<?xml version="1.0" encoding="UTF-8" standalone="no"?>
<!-- Created with Inkscape (http://www.inkscape.org/) -->

<svg
   width="590.06476mm"
   height="59.521179mm"
   viewBox="0 0 590.06476 59.521179"
   version="1.1"
   id="svg436"
   inkscape:version="1.2.2 (b0a8486541, 2022-12-01)"
   sodipodi:docname="hp1.svg"
   xml:space="preserve"
   xmlns:inkscape="http://www.inkscape.org/namespaces/inkscape"
   xmlns:sodipodi="http://sodipodi.sourceforge.net/DTD/sodipodi-0.dtd"
   xmlns="http://www.w3.org/2000/svg"
   xmlns:svg="http://www.w3.org/2000/svg"><sodipodi:namedview
     id="namedview438"
     pagecolor="#ffffff"
     bordercolor="#000000"
     borderopacity="0.25"
     inkscape:showpageshadow="2"
     inkscape:pageopacity="0.0"
     inkscape:pagecheckerboard="0"
     inkscape:deskcolor="#d1d1d1"
     inkscape:document-units="mm"
     showgrid="false"
     inkscape:zoom="0.32153203"
     inkscape:cx="953.24873"
     inkscape:cy="320.34133"
     inkscape:window-width="1920"
     inkscape:window-height="1011"
     inkscape:window-x="1280"
     inkscape:window-y="0"
     inkscape:window-maximized="1"
     inkscape:current-layer="layer1"
     showguides="false"><inkscape:grid
       type="xygrid"
       id="grid292"
       originx="1001.4012"
       originy="1032.1584" /><sodipodi:guide
       position="22.644273,-0.043830303"
       orientation="0,-1"
       id="guide739"
       inkscape:locked="false" /><sodipodi:guide
       position="315.90663,60.965669"
       orientation="0,-1"
       id="guide741"
       inkscape:locked="false" /><sodipodi:guide
       position="-0.75040699,-1.2220303"
       orientation="1,0"
       id="guide743"
       inkscape:locked="false" /><sodipodi:guide
       position="590.18349,59.521169"
       orientation="1,0"
       id="guide745"
       inkscape:locked="false" /><sodipodi:guide
       position="294.7165,99.727168"
       orientation="1,0"
       id="guide801"
       inkscape:locked="false" /></sodipodi:namedview><defs
     id="defs433" /><g
     inkscape:label="Ebene 1"
     inkscape:groupmode="layer"
     id="layer1"
     transform="translate(1001.4012,1032.1584)"><path
       id="path932"
       style="fill:#000000;stroke-width:1"
       d="m -533.42352,-1025.6851 c -9.56035,-6.7326 -21.09541,-5.6243 -29.56889,-1.2541 -4.81508,2.4833 -9.41899,7.7108 -13.25883,7.3034 -3.72182,-0.3949 -4.34068,-1.1107 -4.76193,-4.2416 -0.13765,-1.023 -0.31975,-1.9441 -0.40746,-2.0434 -0.85027,-0.9634 -2.25361,0.079 -2.51973,0.3408 -0.1552,0.1527 -0.44418,4.0217 -0.23989,5.0458 0.81352,4.0786 8.13348,8.0164 13.00553,4.845 0.78062,-0.5082 1.51582,-1.1911 1.7604,-1.3882 l 4.9201,-3.9648 c 0.78957,-0.6363 1.26777,-1.1239 1.58486,-1.1291 0.19029,4e-4 0.29254,0.1319 0.28506,0.4135 -0.0118,0.4459 -1.87459,2.303 -2.45737,3.4397 -3.00244,5.8556 -3.11543,11.3061 -2.28097,16.6213 0.40638,2.58833 0.26073,2.7388 -0.54264,2.93795 -1.92702,0.47765 -2.73544,0.0412 -3.83963,-1.61185 -1.0356,-1.5505 -1.56589,-2.6787 -2.48769,-2.3475 -0.45718,0.1626 -0.92545,0.2341 -1.04055,0.1558 -0.11509,-0.078 -1.04209,-1.0685 -1.39743,-2.3478 -2.82075,-10.1554 -16.38733,-17.2405 -26.9281,-17.3978 l 0.79955,-2.1548 c 0.57462,-1.5486 -0.16856,-2.3743 -1.41274,-4.677 -1.15531,-2.1382 -3.07509,-2.3993 -6.23426,-0.8483 -1.8449,0.9058 -2.67664,1.5476 -3.41051,2.6318 -0.34541,0.5104 -1.16935,1.5504 -1.83068,2.3111 -1.55788,1.792 -1.44234,2.1284 0.74309,2.1641 2.12572,0.035 5.64026,0.616 5.98072,0.9898 0.43032,0.4725 -0.39911,0.5003 -2.02279,0.7206 -9.60349,1.3021 -17.86125,6.0205 -26.77719,14.4851 -4.61887,4.3852 -9.62769,8.81091 -13.45784,11.96743 -2.10737,-5.66133 -3.97194,-12.54583 -6.70879,-17.75433 -0.36606,-0.6967 -2.03606,-3.884 -1.91432,-4.7617 0.0535,-0.3865 0.17406,-0.5972 0.32366,-0.6458 0.24931,-0.08 0.57841,0.2887 0.80861,1.0457 0.17862,0.5874 1.86257,3.2121 2.31244,3.6012 1.02646,0.8875 3.61618,1.5319 5.7862,1.4391 3.80917,-0.1627 8.33327,-2.7497 9.53923,-5.4544 0.2992,-0.6709 0.71364,-2.2393 0.92102,-3.4857 0.51781,-3.1122 0.30335,-3.8083 -1.93158,-6.274 -1.95909,-2.1613 -2.74644,-2.5418 -3.97914,-1.9235 -1.30167,0.6527 -1.12964,1.6052 0.67193,3.7203 1.1865,1.3929 1.52154,1.9809 1.57738,2.768 0.0915,1.2903 -0.39892,2.3563 -1.07504,2.5411 -1.96877,0.538 -5.869,1.6505 -7.48595,-1.4541 -1.20802,-2.3193 -2.87082,-4.5656 -4.46153,-5.4924 -1.17273,-0.6833 -2.8572,-1.6868 -3.7426,-2.2305 -0.88534,-0.5438 -2.00733,-1.0243 -2.49326,-1.0671 -0.83275,-0.073 -0.91522,0 -1.43496,1.1985 -0.49629,1.1494 -0.51591,1.347 -0.19885,1.9794 0.19376,0.3863 1.16412,1.3133 2.15644,2.0599 2.08001,1.5648 2.16467,1.8781 1.05009,3.8876 -0.92814,1.6739 -1.48426,1.7105 -3.17661,-0.03 -8.33837,-8.5763 -27.93898,-12.532 -38.5276,-1.6616 -0.97195,0.9977 -1.05755,1.1164 -1.41815,0.7353 -0.3606,-0.3812 -0.32694,-0.6094 0.34815,-2.369 1.09605,-2.8567 1.11801,-3.019 0.51564,-3.8299 -0.2959,-0.3982 -0.53236,-0.9225 -0.52567,-1.1648 0.0193,-0.6997 -0.53235,-1.2118 -1.56912,-1.1191 -1.51469,0.1353 -3.09458,1.7091 -3.86175,2.9615 -0.82026,1.339 -1.36971,4.2158 0.43167,2.5111 1.2373,-1.1708 1.37569,0.039 1.50029,0.7843 0.0649,0.389 0.23236,1.211 0.37196,1.8263 0.26471,1.1668 0.0885,1.8715 -0.70328,2.8177 -0.40265,0.481 -0.55738,0.5865 -0.93516,9e-4 -11.28645,-17.5465 -35.31179,-9.7995 -41.55369,2.4845 -0.63957,1.2586 -2.80506,0.6413 -4.32106,-1.1635 -1.32574,-1.5783 -0.90142,-3.3649 -1.88449,-5.4124 -0.35554,-0.7405 -0.39639,-0.6137 0.0114,-1.3515 0.21813,-0.3951 0.32579,-0.9079 0.61032,-1.4815 0.40203,-0.8105 -1.58709,-0.1441 -2.42462,0.4052 -0.99929,0.6556 -2.22678,1.8575 -1.69152,3.6352 1.48279,4.9248 -1.0974,7.6388 -3.84585,8.0629 -4.4475,0.6861 -11.52063,-1.869 -11.30318,-6.5077 0.1943,-4.1449 1.27573,-4.5879 4.06851,-4.3284 3.05636,0.284 3.25461,0.1518 2.40886,-1.6235 -1.15275,-2.4194 -1.94024,-2.8367 -5.06301,-2.6832 -2.01832,0.099 -2.96637,1.2962 -3.82119,1.9784 -4.23409,3.3793 -3.62834,13.0872 4.55267,16.6638 8.23664,3.601 14.4966,2.5193 16.60194,-2.7631 0.46492,-1.1665 1.59741,-0.8859 2.76265,-1.0492 0.11557,-0.02 0.71782,1.2057 0.78136,1.5496 0.0203,0.1098 0.032,0.3781 0.026,0.5963 -5.83578,7.7416 -6.46976,18.45705 -12.00389,25.51259 -9.49777,-3.52092 -16.45704,-21.01469 -32.36052,-32.56489 -1.26756,-0.9207 -1.25856,-1.8741 0.17471,-2.0036 1.58425,-0.1432 3.7398,-0.062 5.4884,-1.1368 1.29579,-0.7966 5.61906,-2.5364 1.21843,-3.0898 -1.67856,-0.2112 -1.69132,-0.7459 -2.07016,-1.227 -1.26433,-1.6055 -4.35397,-2.6398 -5.61273,-2.5453 -3.15594,0.2367 -3.08847,0.2604 -4.88552,2.3129 -0.79697,0.9102 -1.17555,3.2104 -0.64579,4.013 0.9275,1.4051 -0.32499,0.7309 -1.34366,0.3775 -3.87316,-1.344 -11.32787,-2.1323 -16.64145,-0.039 -7.69807,3.0327 -11.80927,6.8528 -15.99206,16.5197 -0.33296,0.7695 -1.95885,4.8493 -2.66914,5.4729 -0.93465,0.8204 -2.29497,2.4168 -2.86109,2.85585 -0.98478,0.76374 -1.94415,0.71105 -3.36041,-0.27519 -2.26898,-1.57994 -1.31291,-3.49596 -5.88372,-5.38876 -0.62086,-0.2571 -0.10373,-0.8482 0.43418,-2.3394 2.1105,-5.8498 1.37044,-12.8354 -3.83492,-19.1614 -0.0951,-0.1155 -0.62641,-0.9794 -0.71681,-1.8064 -0.0813,-0.7439 0.72169,-0.4272 2.15305,0.49 3.22647,2.068 4.88429,4.9212 7.9066,6.9061 5.91593,3.8852 11.45646,1.9557 13.22011,-2.8052 0.59435,-1.6044 0.73386,-3.4229 0.71398,-3.9552 -0.0574,-1.5388 -0.30351,-2.3739 -1.93031,-3.4104 -1.45997,-0.9303 -1.56389,0.6291 -1.53089,1.7671 0.0168,0.5784 0.0503,2.031 -0.26096,3.4244 -0.8863,3.9673 -3.05737,4.0389 -6.10852,3.0392 -1.94332,-0.6366 -2.8557,-1.59 -5.13229,-3.6947 -3.29993,-3.0506 -4.76939,-5.2641 -8.52267,-6.1238 -2.48311,-0.569 -5.58467,-1.2339 -8.0772,-0.18 -0.32426,0.1371 -0.90657,0.1175 -1.32528,0.066 -7.33237,-0.8857 -15.98263,0.1663 -22.73574,5.5193 -1.02692,0.8141 -1.68171,1.9229 -1.85606,1.8424 -0.55604,-0.2569 -1.55641,-0.663 -2.25348,-0.8976 -5.70644,-1.9206 -11.45207,-1.1902 -12.36177,3.7914 -0.24544,1.3441 -0.0873,1.7128 0.38059,2.338 0.67197,0.8976 2.57088,1.5669 2.93418,1.0342 0.15698,-0.2303 0.0306,-0.5267 -0.37967,-0.8914 -0.99482,-0.8845 -1.04727,-1.6013 -0.17385,-2.374 1.16899,-1.0341 2.0175,-1.1992 4.13745,-0.1386 1.05626,0.5286 1.87803,1.1988 2.77968,1.4616 1.07661,0.3138 1.43626,1.029 0.68956,1.9318 -0.9488,1.1473 -1.72527,3.3674 -1.47278,4.4202 0.44085,1.8383 2.36929,2.5584 4.96326,3.0381 2.18001,0.4034 2.39829,-0.1878 1.52083,-1.4588 -0.36247,-0.525 -0.3176,-1.2745 -0.22437,-1.4986 0.17442,-0.4195 0.98417,-0.5575 0.97337,-0.166 -0.003,0.1207 0.72747,0.6144 1.62402,1.0969 1.916,1.0312 2.37944,1.6484 1.97511,2.6295 -0.41773,1.0136 -0.36973,1.8355 0.16447,2.8261 0.71523,1.3261 0.478,3.8756 -0.48213,5.1827 -0.39653,0.5398 -0.72444,1.1118 -0.72883,1.2707 -0.012,0.4335 -1.87132,1.89334 -2.93267,2.30281 -0.95858,0.36982 -2.52455,0.21085 -3.12919,-0.31742 -0.16987,-0.14845 -0.58426,-0.23891 -0.92088,-0.20018 -0.47544,0.0539 -0.63609,0.26286 -0.71957,0.93551 -0.10355,0.83426 -0.0443,0.89681 1.62263,1.70881 2.30578,1.12322 2.94616,1.24033 4.50688,0.82332 3.6243,-0.96839 7.16028,-5.00225 6.82151,-7.78245 -0.16148,-1.3248 0.15683,-2.2393 1.07187,-3.0798 1.00665,-0.9245 1.1265,-1.4857 0.35568,-1.6677 -0.35648,-0.084 -0.93248,-0.2193 -1.27944,-0.301 -0.53856,-0.1264 -0.63981,-0.33 -0.69472,-1.3891 -0.0506,-0.9745 0.0493,-1.3411 0.46693,-1.7092 0.29239,-0.2577 0.6878,-0.4644 0.87858,-0.459 0.45616,0.012 0.44597,-0.2692 -0.037,-1.0009 -0.24042,-0.3642 -0.67472,-0.6105 -1.10773,-0.6225 -0.90447,-0.034 -1.24302,-0.2765 -1.41087,-1.0272 -0.17904,-0.8009 0.10437,-0.9186 2.05625,-0.8539 1.19794,0.043 1.90212,0.2145 2.5411,0.6286 0.9375,0.6075 1.95369,0.753 2.59523,0.3714 0.23609,-0.1351 0.56757,-0.1252 0.84328,0.033 0.68416,0.3909 0.77284,-0.016 0.35257,-1.6115 -0.43965,-1.6688 -2.07699,-3.9874 -3.33738,-4.7256 -0.81368,-0.4769 -0.90119,-0.4808 -1.63358,-0.074 -0.49029,0.2717 -0.83228,0.3288 -0.93276,0.1557 -0.2451,-0.4222 -1.38897,-0.3566 -2.19902,0.1259 -0.40181,0.2395 -1.36249,0.8784 -2.13438,1.4186 -1.58062,1.1076 -2.23084,1.1164 -2.57799,0.034 -0.33762,-1.0518 -0.0856,-2.8474 2.90624,-4.5859 16.653,-9.6774 27.04721,4.2995 26.14793,15.2295 -0.13034,1.5838 0.39143,2.515 -1.43518,1.9145 -0.50428,-0.1657 -1.80812,-0.5383 -3.27437,-0.5644 -2.74247,-0.049 -5.33458,3.9837 -4.32814,6.7495 0.89971,2.47231 1.5386,5.23139 -0.36282,5.50483 -4.31151,0.61992 -4.01626,1.79911 -0.51219,2.33757 6.43064,0.98805 7.28962,-1.96027 7.75563,-5.90793 0.19972,-1.69206 0.67194,-1.56515 1.28968,-0.81944 0.0477,0.0574 0.0582,0.13736 0.0766,0.22031 0.36689,1.65375 -1.48364,6.33308 -3.29331,8.32782 -2.57876,2.84256 -6.26056,5.63726 -7.43451,6.26102 -12.52256,6.65342 -24.44248,5.56611 -38.04094,-0.58653 -1.04822,-0.47428 -1.99575,-1.00123 -1.98014,-1.56671 0.008,-0.27419 0.10782,-0.49591 0.22296,-0.49273 0.25447,0.008 2.2629,-1.76595 2.18233,-1.91973 -0.38345,-0.73206 -2.64646,-1.46646 -4.1023,-0.8726 -0.53019,0.21596 -0.82342,0.50268 -1.04184,0.81128 -0.41958,0.59285 -1.20966,0.80724 -1.41482,0.80159 -0.33477,-0.01 -1.29035,-0.81321 -3.4836,-2.92961 -0.62946,-0.6074 -0.70376,-0.83633 -0.53646,-1.65363 0.10683,-0.52175 0.44462,-1.14967 0.75088,-1.39572 0.85758,-0.68871 0.48256,-1.3454 -0.66425,-1.16286 -0.73013,0.1162 -1.03038,0.0266 -1.47006,-0.43762 -0.45514,-0.48094 -0.51742,-0.77147 -0.35263,-1.64645 0.34442,-1.82939 1.54375,-2.92426 3.7308,-3.40566 1.71084,-0.3766 3.38387,1.45516 3.69426,4.0443 0.0855,0.71333 0.37996,1.53377 0.65379,1.82323 0.47364,0.50017 0.53274,0.50479 1.21892,0.0967 0.39673,-0.23605 0.96579,-0.64501 1.26422,-0.90859 0.29844,-0.26356 0.92233,-0.79946 1.4211,-1.14203 0.78046,-0.53598 0.78232,-1.14665 0.92809,-2.29087 0.89702,-7.04274 -2.83038,-10.88294 -10.4712,-13.97024 -0.79916,-0.3229 -2.02146,-0.802 -2.73391,-1.0225 -1.58451,-0.4906 -1.77817,-0.7661 -1.55789,-2.219 0.20511,-1.3527 1.59783,-3.3121 2.74945,-3.868 0.84541,-0.4081 3.32114,-0.5929 3.77226,-0.2816 0.14938,0.1032 0.37805,0.5482 0.5083,0.9885 0.29305,0.9907 1.13668,1.1963 1.90869,0.4658 0.76935,-0.728 0.72541,-1.1504 -0.36183,-3.4669 -0.91687,-1.9536 -2.29835,-2.0762 -3.61546,-2.1608 -3.02809,-0.1947 -7.34972,1.4772 -8.53158,4.1089 -1.17188,2.61 -2.45733,5.1796 -0.78153,9.5134 1.298,3.3558 7.10862,3.8713 10.11551,4.5849 2.26026,0.5363 4.9753,1.9525 6.04817,6.1549 0.31249,1.22378 0.43337,2.67847 -0.51722,3.28798 -0.69217,0.44377 -0.50993,-1.30066 -0.88121,-2.08699 -1.25591,-2.66009 -3.91186,-3.91079 -6.57201,-3.37609 -2.71864,0.5462 -3.78948,0.4618 -6.05332,2.96767 -2.83307,-3.60147 -3.28699,-4.91387 -3.81835,-9.00827 -0.39658,-3.0561 -1.89412,-8.1677 -5.70199,-12.1246 -1.01222,-1.0518 -1.02336,-1.1669 -1.5094,-1.8784 -0.77038,-1.1276 -1.6228,-0.9389 -1.09173,1.5332 0.7356,3.4238 0.5586,3.5664 -1.7084,1.3808 -1.58966,-1.5326 -2.13622,-1.8182 -5.7404,-2.9951 -1.70722,-0.5574 -2.3454,-0.6498 -3.42151,-0.4966 -0.72754,0.1035 -1.36623,0.2298 -1.41901,0.2793 -0.0528,0.05 -0.0715,0.44 0.19987,0.6817 1.51416,1.3486 1.77614,2.4116 1.02621,2.0031 -6.59309,-3.592 -16.08862,-4.2233 -22.64688,-4.3522 -11.53443,-0.2262 -23.21379,4.8476 -28.85976,13.785 -5.0553,8.0028 -5.3841,31.36701 8.51879,36.24035 9.95545,3.48964 23.31946,1.88054 27.41056,-6.67906 1.6033,-3.35446 2.24084,-7.91942 1.22098,-12.81131 -0.51128,-2.45234 -1.20276,-3.38046 -2.07955,-4.78388 -0.54718,-0.87572 -0.55149,-0.94086 -0.0985,-1.4146 0.26114,-0.2729 0.8383,-0.6384 1.28277,-0.8123 0.44449,-0.1741 1.03584,-0.5587 1.3139,-0.854 0.48432,-0.5146 0.48809,-0.5871 0.0832,-1.7409 -0.23225,-0.6624 -0.83684,-1.6425 -1.34345,-2.1777 -0.86437,-0.9135 -0.9954,-0.9647 -2.12967,-0.8322 -0.66477,0.078 -1.41159,0.2392 -1.65953,0.3589 -0.83683,0.4046 -1.63494,1.7601 -1.71065,2.9053 l -0.0736,1.1145 c -0.0199,0.3013 -0.39584,0.5191 -1.75277,0.4406 -6.8454,-0.3956 -9.68918,1.6096 -12.08561,4.14394 -1.756,1.85717 -1.9829,4.85295 -0.83574,6.77503 1.39265,2.3333 3.96024,2.70736 5.84142,2.33191 1.34629,-0.26877 2.13706,-0.92271 2.54902,-1.3446 0.7725,-0.7909 0.55306,-1.73891 -0.0273,-1.82045 -5.21951,-0.73345 -2.50156,-7.04608 -0.88396,-7.43921 1.13619,-0.27617 2.63382,-0.39691 3.98792,-0.39655 1.81112,10e-4 4.54982,0.90643 5.76974,2.83143 1.35554,2.1388 1.95602,4.50946 1.52938,7.26154 -1.04855,6.76365 -4.72344,12.03359 -11.52867,12.8675 -6.67419,0.81782 -12.82335,-0.63705 -17.84082,-8.6557 -3.73875,-5.975 -3.48055,-15.85114 0.35905,-22.64214 1.54636,-2.7354 5.2695,-6.9301 7.02668,-7.7239 1.07511,-0.4856 1.95448,-0.2758 2.30342,0.5489 0.24484,0.5794 0.46857,1.1013 -0.38914,1.7191 -4.75681,3.4257 -6.36041,4.4313 -6.5895,9.5287 -0.13065,2.9075 1.53063,6.59296 2.06082,2.7838 0.20045,-1.44 1.16871,-2.4798 1.94328,-3.411 3.41725,-4.1083 6.97079,-1.8623 10.66217,-4.0039 1.47403,-0.8551 2.08376,-2.6284 1.86971,-4.5472 -0.0961,-0.8616 -0.67485,-0.8602 -1.42934,-0.04 -0.62812,0.6834 -0.85731,0.7328 -2.10859,0.4464 l -0.78546,-0.1804 0.18539,-1.8663 c 0.13932,-1.4025 0.34443,-2.1432 0.90377,-2.9269 2.36104,-3.3087 5.60016,-3.8259 13.09732,-3.6203 8.4322,0.2327 16.91228,4.3402 20.88597,7.729 1.19132,1.0159 1.89425,1.2333 1.87948,1.7682 -0.0181,0.6534 -0.66242,1.2098 -1.39351,0.7794 -2.44981,-1.4422 -1.60831,2.2892 -1.14057,3.228 0.72265,1.4502 0.76829,1.8544 3.11456,3.6389 0.89322,0.6794 1.19475,0.7877 1.74381,0.5961 1.52199,-0.5311 1.86537,-0.057 0.69918,0.9654 -0.91852,0.8053 -0.65203,1.1498 0.69609,1.7701 3.07738,1.41606 6.20644,2.2952 8.36176,2.81295 1.70029,0.40846 2.46293,1.15607 2.99557,1.84394 1.42724,1.84316 1.12067,2.11451 -2.22387,2.03852 -6.43452,-0.14654 -10.34367,8.04535 -6.54424,12.34748 0.63377,0.71766 0.91217,0.79057 1.89699,0.7207 2.33861,-0.16674 2.39555,1.05428 0.0515,1.63814 -2.88982,0.71987 -6.85756,-0.81395 -8.02471,-3.61832 -2.36649,-5.68613 0.36867,-9.24665 -1.30119,-12.92691 -1.37197,-3.02338 -7.46342,-4.14466 -12.03347,0.28729 -1.58517,1.53716 -1.52243,5.70388 0.58926,5.69772 1.08517,-0.003 1.70481,-0.045 1.79938,-0.70622 0.0678,-0.47382 -0.0381,-0.78717 -0.30609,-0.89709 -1.35843,-0.55699 -1.2084,-2.40835 -0.0201,-2.92497 1.16135,-0.50487 2.11048,-1.14272 3.27022,-1.36552 -0.21492,3.05864 -0.0833,5.47209 0.23846,7.43321 0.58927,3.59143 1.28431,4.86997 4.77199,8.77017 4.05196,4.53058 9.98305,2.86134 13.7588,3.73263 1.12034,0.2585 1.2898,0.10961 1.51431,-0.43541 0.13705,-0.33254 1.07426,-1.28244 2.08266,-2.11065 3.30215,-2.71215 3.14943,-2.50488 2.99836,-4.06534 -0.16594,-1.71403 -0.75546,-2.99138 -1.5634,-3.38682 -0.98495,-0.48195 -1.63024,-0.59639 -2.20744,0.71289 -1.23467,2.80131 -3.64471,2.32135 -4.75583,0.74139 -2.43188,-3.45739 1.15585,-7.61601 5.19986,-8.00941 1.05849,-0.10295 1.26118,0.28099 1.65863,0.90959 0.78544,1.24225 1.32267,1.45315 1.62839,0.63837 0.57824,-1.54103 1.23593,-2.3567 2.64802,-0.92261 1.35582,1.37692 2.13357,3.19346 4.74926,5.09753 1.39493,1.01546 1.85409,2.74349 0.007,2.69252 -1.67068,-0.0461 -0.88551,1.53636 1.00901,1.85844 0.65205,0.11103 1.60659,0.28072 2.12148,0.37896 0.67465,0.12856 1.51929,-0.10764 1.77864,-0.40369 0.46682,-0.53193 0.87608,-0.48912 2.15149,0.28425 11.77055,7.13619 23.86807,8.82821 36.38764,6.56549 10.83076,-1.9575 17.19755,-8.45826 18.886,-18.16807 0.3585,-2.0616 -0.19375,-3.77268 -0.15878,-5.29911 0.0236,-1.03524 0.48224,-1.36442 1.56938,-0.44617 4.17739,3.52816 6.87184,4.26366 10.91218,1.99926 0.82388,-0.46176 1.803,-0.0504 1.54721,1.4065 -0.3339,1.90182 0.0118,4.83938 0.29758,6.32131 0.14371,0.74645 0.0715,0.97065 -0.79956,1.11727 -4.81206,0.80999 -3.65489,7.50085 -0.19696,8.2257 1.99201,0.41752 4.1898,0.0756 4.95256,-0.60212 0.32599,-0.28972 0.75818,-0.45717 0.96044,-0.37255 0.20228,0.0846 0.8761,1.04816 1.7762,1.87691 11.50359,10.59154 28.39349,4.63875 33.93471,-3.36675 3.41067,-4.9275 3.49894,-12.43963 0.3355,-16.4301 -0.96376,-1.2157 -3.91406,-3.0274 -5.33985,-3.0666 -0.59787,-0.016 -1.39807,-0.2092 -1.77841,-0.4286 -0.38026,-0.2192 -1.01689,-0.4785 -1.41458,-0.5746 -0.48167,-0.1164 -0.71845,-0.3417 -0.70919,-0.6771 0.016,-0.5793 0.9852,-0.9305 3.16545,-1.1465 2.31969,-0.2299 3.52982,-1.6864 3.60297,-4.3373 0.0285,-1.0329 -0.17271,-1.154 -1.10767,-0.6623 -1.0329,0.5432 -1.55581,1.2649 -1.58109,2.181 -0.0134,0.4868 -0.14738,0.8819 -0.29767,0.8778 -0.56098,-0.014 -4.11316,-2.1335 -4.67857,-2.7894 -0.0706,-0.082 -0.64769,-0.3156 -1.28217,-0.5203 -0.83669,-0.2697 -2.06442,-0.3464 -4.46664,-0.2778 -2.91125,0.083 -3.45323,0.1734 -4.47071,0.7502 -0.72957,0.4136 -1.40891,1.0935 -1.83677,1.8368 -0.92097,1.6013 -1.73415,5.2236 -1.56483,6.9688 0.16009,1.65016 1.18395,4.14675 1.70642,4.16117 0.69955,0.0193 1.04157,-0.66433 0.80809,-1.61392 -0.38057,-1.54829 0.008,-2.67485 0.87104,-2.52775 0.79314,0.135 0.91471,1.61986 0.23045,2.81454 -0.461,0.80478 -0.46423,0.88424 -0.055,1.31678 0.35967,0.38007 0.52799,0.40592 0.9657,0.14911 0.73907,-0.4338 0.85316,-0.38983 0.73749,0.28914 -0.0556,0.3261 -0.26959,0.58919 -0.47568,0.5835 -0.73659,-0.0204 -0.9274,1.30372 -0.35992,2.49572 0.85972,1.8066 1.36102,2.19318 2.66358,2.05356 2.00603,-0.21505 2.29831,-0.31613 3.26551,-1.11916 1.02117,-0.84786 1.21444,-1.52247 0.59162,-2.06907 -0.57928,-0.50847 -0.43415,-1.72564 0.3947,-3.30646 1.08323,-2.06591 1.64645,-2.60246 2.66738,-2.31781 0.95471,0.26623 1.45254,-0.73445 2.20297,-0.45675 5.65078,2.0923 6.43482,9.48263 4.51799,13.498 -5.71238,11.96638 -17.76487,11.84629 -24.63303,9.11771 -3.11881,-1.23911 -7.03635,-5.13394 -7.0246,-5.55938 0.0144,-0.52011 1.02266,-0.61663 2.82554,-1.67971 4.67333,-2.75574 -2.76663,-9.21872 -5.71473,-6.45478 -0.86385,0.80988 -1.54301,1.65498 -1.33542,-2.37554 0.60673,-11.7796 6.01227,-20.1103 12.99512,-23.8967 7.75491,-4.2051 16.70105,-2.8634 19.84114,-1.6925 4.25987,1.5886 10.17686,6.7784 12.7535,10.1892 3.4698,4.5932 10.88442,14.43768 14.90539,21.17545 2.25696,3.7819 3.38426,4.0707 3.14411,4.6484 -0.21936,0.52764 -1.58996,1.2186 -2.37435,1.19696 -0.37407,-0.0106 -1.07142,0.20482 -1.5496,0.47784 -0.80336,0.45851 -0.9041,0.46213 -1.33012,0.0553 -0.34759,-0.33171 -0.29143,-0.46541 -0.15823,-0.78497 1.15129,-2.76189 -2.05586,-5.43087 -6.44244,-4.19449 -2.48326,0.69997 -2.70493,3.59855 -4.3663,4.10512 -1.8431,0.56188 -3.7596,0.5331 -5.78888,0.27912 -1.30633,-0.16348 -0.95986,1.30344 0.18387,1.8982 10.53791,5.47996 17.92159,3.51038 25.76984,-1.1189 13.85835,6.89707 23.0293,7.01998 31.55465,6.18763 10.88207,-1.06253 21.08993,-7.10668 25.54179,-12.31957 l 1.63051,1.16112 c 0.89657,0.63868 1.72915,1.44535 1.85037,1.79273 0.80118,2.29627 -0.73071,4.73075 -3.69597,5.87149 -0.55166,0.21235 -1.00656,0.50732 -1.01065,0.65556 -0.007,0.22482 1.52048,1.57114 3.32735,2.93411 0.30275,0.22793 0.90475,0.25994 2.14692,0.11325 0.94934,-0.11206 2.44099,-0.21405 3.31481,-0.22695 1.00427,-0.0153 2.05715,-0.23586 2.86192,-0.60029 1.81489,-0.82195 1.79435,-1.61502 -0.0961,-3.70976 -0.7769,-0.86086 -1.54911,-1.09715 -1.38674,-2.06995 0.2735,-1.63867 0.95204,-1.91676 2.13761,-3.15204 18.81913,15.47539 42.47279,9.09585 52.17397,-0.98956 2.03551,2.09652 4.13502,1.53088 5.6284,5.05702 0.4663,1.10099 1.01669,1.37186 1.43939,1.65058 7.60144,5.01306 15.8892,4.52939 20.95917,0.41014 0.62673,-0.50924 1.42875,-1.17171 1.78684,-1.46556 0.5551,-0.45547 0.59585,-0.57585 0.27648,-0.81819 -0.206,-0.15666 -0.57897,-0.23938 -0.829,-0.18454 -0.25004,0.0549 -0.84846,-0.0244 -1.32921,-0.17875 -0.60111,-0.191 -1.21562,-0.18721 -1.96806,0.009 -0.60183,0.15761 -1.66794,0.30411 -2.36907,0.32603 -0.70116,0.0219 -1.63078,0.1058 -2.06587,0.18735 -0.64553,0.12065 -0.92984,0.005 -1.54622,-0.62534 -0.76932,-0.78775 -1.01812,-1.38521 -1.1487,-2.76047 -0.15802,-1.66527 -0.61511,-3.02539 -1.22613,-3.64713 -1.58537,-1.61335 -4.58078,-1.53097 -6.60593,0.18175 -0.62626,0.52965 -1.41949,1.90924 -1.43506,2.49562 -0.007,0.21421 -0.31183,0.74107 -0.67991,1.17106 l -0.66909,0.78162 -1.76702,-0.98531 c -0.97174,-0.54216 -2.21671,-1.46509 -2.76668,-2.05108 -0.54994,-0.58598 -1.09279,-1.06832 -1.20647,-1.07158 -0.11368,-0.003 -0.27652,-0.25762 -0.36163,-0.56557 4.39342,-6.54338 7.12792,-11.59144 11.90141,-16.81075 10.26985,-11.2292 22.41874,-14.3019 33.65652,-13.7203 13.89103,0.719 22.7346,10.8942 23.50757,20.6003 0.29567,3.71249 0.2317,4.14192 -0.15468,4.71906 -0.37598,0.56175 -0.52125,0.56219 -1.35181,0.39142 -1.99859,-0.41084 -3.70409,0.0938 -4.56367,1.54659 -1.56038,2.63729 -1.14881,4.86734 0.79857,7.18652 0.43559,0.51879 1.16989,1.00712 -0.47673,2.26101 -6.65237,5.06597 -21.0281,4.54808 -23.14709,-6.24066 -0.65773,-3.34882 0.77415,-7.97124 2.87673,-9.77397 2.05938,-1.76573 6.55705,-3.57517 8.67281,-1.10107 0.89352,1.04492 -0.49015,3.43767 -1.65447,3.78734 -0.39219,0.1178 -0.58302,0.37093 -0.59474,0.81216 -0.023,0.86736 1.27551,1.73331 2.66159,1.77405 0.89345,0.0264 1.34807,0.0176 1.94093,-0.93593 2.39393,-3.85015 1.24132,-6.92332 -1.42647,-7.79412 -1.31819,-0.4303 -2.37258,-1.4579 -2.58712,-1.6934 -0.22883,-0.2512 -0.43101,-1.1001 -0.48876,-2.054 -0.11209,-1.8506 0.15298,-2.0483 1.35381,-1.0101 0.84088,0.7272 3.1654,1.2461 3.47127,0.7752 0.34013,-0.5237 0.30266,-2.7021 -0.0629,-3.6675 -0.6474,-1.7104 -2.3114,-3.1903 -3.86679,-3.6996 -4.48538,-1.4688 -9.68186,0.048 -12.74815,4.5047 -1.03235,1.5008 -1.34323,3.8062 -3.90392,3.9565 -0.14261,0.01 -0.65053,0.024 -1.12886,0.034 -1.3133,0.027 -1.23769,0.5588 0.18789,1.3184 1.12778,0.6009 1.53842,0.7179 3.50146,0.6307 2.20432,-0.098 4.7603,-0.4512 6.59323,-1.4827 2.44775,-1.3779 2.40265,-1.3695 3.09146,-0.9608 0.71756,0.4258 1.04339,1.4889 0.64514,2.1054 -0.14917,0.231 -0.65139,0.4 -1.13185,0.4272 -7.80713,0.4403 -14.75886,9.95204 -9.9254,18.55224 7.20286,12.8161 26.68797,7.5137 31.5225,2.53716 0.83284,-0.85735 1.19579,-1.28191 1.8491,-0.83152 0.75383,0.5197 5.57659,0.41818 6.3313,0.0259 1.01385,-0.52695 2.13437,-2.5542 2.16073,-3.90937 0.0212,-1.0889 -0.0794,-1.30197 -1.05076,-2.21375 -0.59106,-0.55484 -1.40427,-1.10296 -1.80661,-1.21853 -1.03329,-0.29694 -1.94121,-1.11496 -1.8775,-1.90404 0.19277,-2.38789 0.19204,-4.53363 0.0553,-6.81981 -0.11402,-1.90518 0.12673,-2.22692 0.81591,-1.06531 0.71327,1.20209 2.35141,2.31155 3.45949,2.34333 1.4512,0.0416 3.69411,0.85329 3.97608,1.43898 0.13235,0.2749 0.0598,0.89708 0.2188,1.31628 10.38498,27.38819 41.25651,23.3767 57.09269,13.70002 0.67621,-0.4132 1.7841,-1.14811 2.89996,-1.11611 0.54303,0.0156 1.64682,0.2859 2.45295,0.60012 0.80614,0.31423 1.68365,0.57718 1.95032,0.58483 0.50737,0.0145 0.51052,-0.0414 0.15736,-3.30405 -0.11296,-1.04493 0.5545,-1.81471 2.13633,-2.46621 1.35308,-0.55724 2.07628,-0.46898 3.16765,0.38653 0.78489,0.61533 1.31457,0.68634 1.70155,0.22824 0.58186,-0.68888 0.6345,-1.69676 0.16782,-3.20871 -0.57533,-1.86349 -0.43197,-2.40009 0.57632,-2.1603 0.83676,0.19896 3.02025,2.10496 3.24499,2.79016 0.48995,1.49381 0.79345,3.29548 0.26578,4.42229 -0.62307,1.33056 -0.87431,1.41959 -3.23456,1.17845 -1.00956,-0.10296 -1.30014,0.23744 -1.34131,1.56987 -0.0361,1.17412 0.11949,1.32112 2.5348,2.40726 1.80965,0.81357 2.0807,0.91267 4.51895,0.81962 7.4439,-0.28408 7.77327,-6.22901 13.72344,-8.77895 1.38173,-0.59212 2.88928,-0.98017 4.37667,-0.49286 2.90633,0.95216 2.64918,0.61616 3.05288,3.99582 0.17202,1.44018 -0.1987,1.75917 -1.98386,1.70799 -1.76362,-0.0505 -2.67881,0.61507 -2.44748,1.78004 0.18212,0.91777 1.57656,2.25084 2.85659,2.73081 0.99552,0.37327 1.13603,0.36069 2.22744,-0.20134 1.83743,-0.94631 2.13139,-1.95997 2.74323,-5.66474 0.80019,-4.84551 -0.29487,-6.59476 -2.22587,-8.49493 -0.63377,-0.62359 -0.35715,-0.98481 -0.0277,-1.18834 0.20847,-0.12877 0.63007,-0.23103 0.93683,-0.22224 0.67862,0.0194 1.04826,-0.48084 0.59125,-0.79266 -0.18263,-0.12467 -1.04754,-0.37756 -1.92207,-0.56169 -0.87449,-0.18424 -2.05088,-0.81549 -2.74922,-0.89103 -4.02617,-0.43535 -6.07464,0.0262 -9.02971,1.42486 -5.02557,2.37867 -4.36284,4.84731 -6.27379,8.56506 -1.06211,2.06635 -2.65917,3.84665 -3.35737,3.72259 -0.48296,-0.0859 -0.69949,-0.28625 -0.52076,-1.88063 0.36392,-3.24601 -0.0861,-5.20805 -0.87831,-7.26283 -0.33669,-0.87329 -0.72437,-1.84177 -0.6344,-1.93023 0.0899,-0.0864 0.52851,-0.1208 0.9751,-0.0711 0.44646,0.0498 1.65102,0.12237 2.63577,-0.10119 4.95048,-1.12555 7.38759,-4.10263 9.73107,-8.03114 0.78994,-1.32434 3.30487,-4.02124 4.12947,-4.41224 0.46118,-0.2188 0.84147,-0.5086 0.84507,-0.6443 0.01,-0.3325 -2.93796,-1.9117 -4.03058,-2.1601 -0.87532,-0.199 -1.82202,-0.6853 -1.81324,-1.0161 0.002,-0.097 1.09752,-1.1894 1.80899,-1.6994 8.66295,-6.2096 18.14027,-10.7627 25.39521,-11.3924 2.61845,-0.2273 3.55276,-0.9464 3.45561,2.7109 -0.028,1.0524 0.31139,2.16 -0.76745,2.3717 -1.40845,0.2765 -1.88539,1.9395 -1.30727,3.0781 1.26927,2.4998 4.32916,3.1661 7.41573,2.5868 5.65534,-1.0613 8.22353,0.082 10.49757,3.3068 1.95974,2.7794 3.45937,2.0333 3.30154,-0.4651 -0.1462,-2.3142 -0.53616,-2.9326 -1.69302,-4.6651 -2.46643,-3.6937 -9.16807,-5.6895 -12.73673,-4.8239 -2.31615,0.5618 -2.60383,0.6772 -2.15892,-1.5358 0.20102,-0.9999 -0.18587,-1.6159 -0.27183,-2.5157 22.32694,0.4522 26.72953,14.6323 27.11904,25.65784 0.30998,8.77391 -3.47387,15.18075 -12.04082,17.4534 -5.48593,1.45533 -11.1032,1.36581 -14.2299,-2.80128 -4.60893,-6.14252 -2.28784,-13.27752 3.23034,-15.91247 3.03888,-1.45106 3.80519,-1.55003 3.77851,-0.54562 -0.009,0.31359 0.25252,0.9569 0.58001,1.42947 0.59248,0.855 0.59322,0.86293 0.0941,1.6078 -0.54986,0.82055 -0.50653,1.47595 0.20105,3.05223 0.54172,1.20678 2.28825,2.95899 2.96893,2.97852 0.82612,0.0237 2.36243,-0.68937 3.11078,-1.4441 2.32993,-2.35013 2.89773,-4.56198 1.40902,-7.07971 -3.31682,-5.60968 -8.14185,-5.19698 -14.66635,-3.67788 -0.51862,0.1208 -0.86033,-0.8329 -0.43781,-1.0879 0.44977,-0.2713 0.16035,-1.6406 -0.53229,-1.8773 -1.52451,-0.5211 -2.60511,-1.576 -5.13858,0.1052 -0.51666,0.3429 -0.98591,0.6067 -1.75669,0.6114 -1.09612,0.011 -1.07618,0.9014 -0.99971,2.0272 0.14035,2.06602 1.69358,2.56012 2.5747,2.94833 0.54869,0.24171 1.22545,0.57743 1.49995,0.75637 0.49184,0.32061 0.44699,0.30452 -0.14685,1.18274 -3.62306,5.3579 -3.4732,9.19424 -0.52426,14.28871 10.13174,17.50322 32.84551,5.99719 35.6588,-8.08544 3.23169,-16.17711 -3.42481,-37.58041 -28.62264,-38.28971 -13.77717,-0.3879 -26.14826,8.1186 -39.56315,16.5629 0.633,-1.8952 -0.53361,-2.1111 -0.10895,-5.4508 0.17106,-1.3453 0.0802,-1.9848 -0.17475,-2.3563 -0.32747,-0.4773 -0.38754,-0.4828 -0.99968,-0.091 -0.35804,0.2294 -0.79692,0.7267 -0.97521,1.1052 -0.65895,1.3989 -3.18219,3.9032 -4.66261,4.6275 -1.49859,0.7331 -2.97644,2.4287 -3.9054,4.4803 -0.22776,0.5029 -0.71763,1.2258 -1.08854,1.6065 -0.6282,0.6449 -0.68645,0.8967 -0.84908,3.6812 -0.35179,6.02191 -0.52003,7.55407 -0.93345,8.50728 -0.62427,1.43935 -1.17538,1.13865 -1.82505,-0.91824 -1.32598,-4.19834 -6.1161,-7.01984 -10.96628,-4.28574 -0.8093,0.45616 -2.56642,2.4631 -2.93871,0.77339 -0.31573,-1.43299 1.45374,-3.79259 3.47361,-4.65239 0.72327,-0.3079 1.76078,-0.8557 2.30567,-1.2174 0.76329,-0.5069 1.30606,-0.6485 2.3639,-0.6182 1.35909,0.04 2.74829,-0.4132 4.53329,-1.6692 6.85259,-4.8215 4.49441,-14.186 -0.24862,-16.7163 -2.70017,-1.4404 -4.03387,-1.95 -5.11708,-1.3977 -1.35719,0.6919 -4.04787,3.8025 -4.37862,5.0622 -0.19563,0.745 0.22272,1.4648 0.65854,1.1329 0.15978,-0.1216 0.65581,-0.3369 1.10236,-0.4787 1.06026,-0.3366 3.25127,0.3621 3.74377,1.194 0.957,1.6166 0.0241,6.2226 -1.73739,8.5768 -1.10732,1.4802 -1.46884,1.7158 -2.69113,1.7549 -2.11028,0.068 -5.50477,2.8932 -6.94618,5.7817 -0.9863,1.9762 -0.92754,4.45988 0.16057,6.78654 1.27177,2.71928 2.22712,3.6135 4.02383,3.76305 1.29685,0.10821 1.72682,-0.34554 2.16894,-2.28951 0.44546,-1.95866 1.6224,-4.09966 2.45413,-4.46495 0.91665,-0.40269 2.52966,0.24738 3.35936,1.35408 1.30849,1.74515 1.61046,4.41382 0.65893,5.82079 -0.60213,0.89028 -0.69314,1.7437 -0.26687,2.4985 0.25163,0.44549 0.19029,0.6274 -0.41808,1.24119 -0.39217,0.39572 -0.86856,0.93677 -1.05838,1.20203 -0.31977,0.44671 -0.45538,0.45342 -1.84635,0.0903 -1.59599,-0.4168 -2.99165,-0.4295 -3.75055,-0.0385 -0.39836,0.20607 -0.44505,0.46011 -0.33384,1.81582 l 0.12931,1.5763 c -0.14578,0.50543 -0.48665,0.21825 -1.16904,0.49739 -22.97842,9.39953 -47.15971,5.53002 -50.50088,-14.15369 -0.0971,-0.57181 -0.46022,-1.20813 -0.45825,-1.5356 0.002,-0.55242 0.11383,-0.59177 1.51279,-0.55166 1.55549,0.0446 2.07365,-0.25397 2.77176,-0.78908 0.44089,-0.3379 0.38461,-0.523 0.52254,-0.099 1.05863,3.25472 1.32652,7.91266 5.41214,8.89874 2.41245,0.58226 3.10962,-0.39714 4.55822,-0.90001 1.94475,-0.67502 1.46363,-1.57226 -0.68606,-1.02015 -0.68707,0.17648 -1.85356,-0.0971 -1.89996,-0.69152 -0.2197,-2.81186 0.64976,-5.77073 -0.35835,-8.54476 -0.37773,-1.0394 -0.7018,-2.6145 -1.76213,-2.8753 -0.8507,-0.2093 -2.47361,-1.7885 -2.45728,-2.4039 0.0129,-0.4866 -1.42619,-0.8919 -3.07699,-0.6893 -2.09755,0.2574 -4.60526,2.5254 -2.91172,2.7468 1.29,0.1686 1.82261,0.995 2.06138,1.7702 0.36246,1.1768 0.30704,1.305 -0.87774,2.025 -1.37692,0.8368 -3.67897,0.7588 -3.74381,0.1763 -2.17521,-19.5452 10.53562,-30.2679 24.93583,-21.2732 2.48563,1.5526 3.92491,3.8914 3.03363,5.2587 -0.63208,0.9696 -1.08664,0.4106 -2.5176,-0.2211 -0.66294,-0.2927 -2.13142,-0.6436 -3.26318,-0.7797 -1.89825,-0.228 -2.15898,-0.1974 -3.363,0.3937 -1.01468,0.4982 -1.48707,0.9514 -2.1229,2.0354 -0.76902,1.3114 -0.80572,1.4808 -0.60869,2.8357 0.67765,4.6592 0.85204,4.9453 2.11448,3.4711 0.79308,-0.9263 1.69295,-1.4159 2.99884,-1.632 0.84609,-0.1398 0.94892,-0.097 0.9361,0.3856 -0.0158,0.5953 -0.48152,0.4496 -1.39657,1.1966 -3.99533,3.262 -1.23643,8.9815 1.26907,10.46088 0.52463,0.30975 0.55588,0.24822 0.53769,-1.06088 -0.0229,-1.6578 0.43514,-1.9359 0.81013,-0.4917 0.14968,0.5765 0.71936,1.78741 1.26598,2.69093 1.52659,2.52339 4.7749,4.41691 7.73848,4.51617 1.59393,0.0558 2.25002,-0.15607 3.73835,-1.1872 1.27257,-0.88177 2.11772,-2.29828 2.37923,-3.98742 0.16995,-1.09798 0.0945,-1.50698 -0.5346,-2.89578 -0.90468,-1.9971 -1.37225,-2.1121 -1.44443,-0.3552 -0.0666,1.6204 -0.30161,2.0332 -2.24896,3.95327 -1.50863,1.48752 -1.61538,1.54608 -2.146,1.16264 -0.30717,-0.2219 -1.02351,-0.56314 -1.59195,-0.75801 -1.1992,-0.41103 -2.53585,-1.60789 -3.52939,-3.5147 -1.46092,-2.8036 -3.13666,-5.8043 -1.15869,-8.7904 2.18891,-3.3046 3.48304,-3.7226 6.48047,-2.1468 3.98464,2.0946 6.83941,1.991 8.40091,-0.3051 1.33619,-1.9644 0.61671,-5.95 -1.52944,-8.4697 -0.609,-0.715 -1.22157,-1.5265 -1.36119,-1.8034 -0.14707,-0.2916 -0.66801,-0.588 -1.23812,-0.7045 -0.91048,-0.1859 -0.9768,-0.2593 -0.88098,-0.9816 0.18199,-1.3731 1.08852,-2.0183 3.3624,-2.3943 1.19103,-0.197 1.74328,0.112 3.11419,1.7429 0.658,0.7829 0.66332,0.784 1.01011,0.2411 0.19175,-0.3004 0.47961,-0.5426 0.63971,-0.538 0.34297,0.011 1.08322,1.1794 1.06965,1.6901 -0.0151,0.5728 1.62684,2.3782 2.029,2.231 0.1994,-0.073 0.58234,-0.4958 0.85091,-0.9397 0.40615,-0.6713 0.81274,-1.2002 0.37954,-2.7881 -2.16579,-7.9382 -12.94019,-7.3577 -16.77913,-1.3862 -1.065,1.6566 -0.48757,5.4329 0.95212,6.6979 0.0892,0.078 0.3968,0.6455 0.67938,1.2665 0.51664,1.1355 0.8,2.1838 0.31358,2.8429 -0.94859,1.2854 -2.17191,-0.3437 -2.13824,-1.9585 0.0234,-1.1319 -0.6118,-2.1018 -0.94756,-3.2519 -0.54332,-1.8612 -1.35762,-3.1591 -3.2346,-4.4809 z m -174.49455,17.1721 c 0.39784,1.6951 0.27044,1.7314 -1.17568,1.3716 -1.77916,-0.4428 -2.86797,-1.4283 -3.79754,-2.8685 -0.58139,-0.9008 -3.85815,-4.7192 -2.90247,-2.3129 1.1304,2.8462 -0.0199,4.6791 0.2284,5.9038 0.14775,0.7287 3.17168,2.4788 4.44066,2.6991 1.38349,0.2404 2.80179,0.7895 2.71612,1.292 -1.30297,7.64272 -2.38206,8.16974 -4.53809,10.32279 -0.55714,0.55635 -0.73016,0.50817 -3.02499,-0.30995 -1.78323,-0.63584 -3.69181,-0.59166 -5.69011,0.1369 -3.0389,1.10791 -4.58122,2.7818 -5.52597,6.3571 -0.67742,2.56369 -1.22093,3.14292 -2.06296,3.25163 -1.70455,0.22007 -3.35186,0.65709 -5.04068,0.92941 -9.98503,1.61011 -20.89406,0.75097 -28.41809,-4.0837 6.25251,-7.28432 5.02053,-16.87668 11.32445,-26.48018 0.157,-0.266 0.42488,-0.3612 0.6888,-0.2514 0.34323,0.1427 0.39763,0.5199 0.35513,1.8372 -0.38267,11.85952 9.72603,22.01951 23.19749,15.7219 0.40021,-0.18713 0.40202,-0.4997 0.22223,-0.85919 -0.4053,-0.81029 -0.26992,-0.99743 0.70295,-0.97058 0.51247,0.0141 1.24748,-0.18587 1.63347,-0.44452 0.38598,-0.25875 1.105,-0.54703 1.37279,-0.89007 10.09306,-12.92974 -3.11764,-20.56264 -9.85485,-15.80244 -1.65191,1.1672 -1.57149,2.1632 -0.19988,3.9663 0.5401,0.7101 1.63458,1.4515 1.84671,1.2508 0.0681,-0.064 -0.15255,-0.4676 -0.4907,-0.8954 -0.41014,-0.519 -0.63024,-1.2861 -0.75974,-2.2931 -0.16797,-1.3061 0.86805,-1.375 2.04136,-1.8037 2.33745,-0.8539 7.76132,0.8821 7.64903,4.2976 -0.16506,5.0209 -0.25964,7.9695 -5.76818,10.33307 -10.7003,4.591 -16.27863,-5.18847 -18.13454,-12.41207 -0.2698,-1.0503 -0.0908,-2.3424 0.38117,-2.3293 0.15661,2e-4 0.59435,0.2401 0.97293,0.524 1.03719,0.7779 2.81636,0.8244 3.93541,0.345 2.47015,-1.0581 0.49212,-2.3106 1.19418,-3.5574 0.51941,-0.9226 -0.42906,-1.5019 -1.87548,-1.1452 -1.06807,0.2635 -2.57055,-0.1985 -2.27863,-0.7167 6.3541,-11.2772 31.66215,-11.3034 36.6353,9.8861 z m 39.08867,-12.7093 c 0.49393,0.294 0.32119,0.507 -0.90235,0.8907 -1.43091,0.4488 -1.61927,0.8617 -0.73917,1.6227 0.31936,0.2762 0.65141,0.8332 0.73784,1.2381 0.26911,1.2604 0.98211,1.8049 2.41586,1.8461 1.51484,0.043 1.89105,-0.4408 1.07979,-1.3891 -0.64036,-0.7487 -0.65525,-0.9809 -0.063,-0.9639 0.73969,0.021 1.62924,0.798 1.76227,1.4631 0.93468,4.6728 0.93412,8.8891 -1.90904,13.4119 -8.79441,13.98957 -25.59962,4.65798 -26.0482,-2.9764 -0.18754,-3.192 1.78284,-5.9198 3.48825,-6.8762 2.00132,-1.1221 3.46421,-1.4289 5.60158,-0.6273 1.27535,0.4782 0.714,0.2348 0.50818,1.6486 -0.12593,0.8649 -0.501,1.8805 -0.93244,2.5238 -0.85065,1.2686 -0.65629,1.9418 0.54305,1.8828 1.26737,-0.062 2.16795,-0.5486 2.9246,-1.5787 1.00115,-1.3628 0.98104,-2.2503 -0.0914,-4.0332 -1.32775,-2.2075 -4.9152,-3.2178 -7.68375,-1.8678 -4.33534,2.1136 -6.27381,5.9204 -6.50514,9.7768 -0.44356,7.39407 8.42831,17.1598 20.97497,13.54671 7.56163,-2.17763 11.51293,-7.77491 12.07501,-18.44711 0.0139,-0.2694 -0.27138,-1.2432 -0.3459,-2.2261 -0.11944,-1.5761 -0.0807,-1.8071 0.3251,-1.9556 0.66353,-0.243 2.67595,3.4026 4.24077,7.5864 1.75303,4.6873 2.4982,8.19639 4.2069,13.59092 -5.0004,5.82741 -20.31842,15.12485 -28.63776,11.97698 -0.55653,-0.21053 -1.12253,-0.73154 -1.39554,-0.88994 -0.32882,-0.19083 -0.5171,-1.06676 -1.02203,-2.45432 -2.78895,-7.66405 -10.45281,-8.59569 -17.47898,-5.38857 -1.21108,-3.36999 -2.01366,-7.38126 -2.85488,-10.48997 -1.11891,-4.1351 2.49988,-3.2296 4.22657,-4.2865 1.11395,-0.6817 2.10439,-1.3149 1.42446,-2.9688 -0.30267,-0.7363 -0.0705,-2.0032 0.32115,-2.9643 0.68391,-1.6782 -0.0141,-2.7652 -0.91281,-2.478 -2.65607,0.8487 -3.68203,3.9246 -5.4135,5.6906 -0.81788,0.8342 -0.88886,0.8521 -1.07561,0.3503 -0.10944,-0.2942 -0.36229,-1.7128 0.0224,-3.0431 4.28753,-14.8271 24.30684,-18.7753 37.13275,-11.1416 z m -95.40809,-3.3042 c -0.31229,-0.2052 -2.13165,0.5706 -2.1411,0.9128 -0.0146,0.5303 -1.38959,2.033 -1.85608,2.03 -0.86873,-0.011 -1.43607,0.6471 -1.3723,1.5844 0.0578,0.8503 0.105,0.8865 1.17253,0.9159 0.67467,0.019 1.27813,0.205 1.53418,0.474 0.5851,0.6147 1.26179,0.3845 2.41255,-0.8207 0.85545,-0.8958 0.96798,-1.1562 0.86313,-1.9974 -0.28473,-2.2843 -0.42123,-2.9732 -0.61291,-3.099 z m 4.67409,11.2312 c -1.52355,2.0963 -2.854,2.6621 -5.11914,2.7447 -2.31519,0.084 -10.56933,-2.2316 -7.76154,-2.0285 2.69755,0.195 3.91137,0.7071 6.77102,0.6392 4.23311,-0.1001 6.96597,-2.5336 6.10966,-1.3554 z m 275.28548,8.7514 c 0.20751,0.016 1.41039,1.7707 1.98738,2.8987 0.29324,0.5732 0.25382,0.6391 -0.58615,0.9758 -0.57144,0.2289 -1.05865,0.68366 -1.33318,1.24433 -0.23797,0.48596 -0.8877,1.24252 -1.44378,1.68115 -1.11551,0.87987 -2.72776,1.07194 -2.97135,0.35368 -0.16225,-0.47833 1.33501,-3.11776 2.36933,-4.17626 0.4151,-0.425 0.98417,-1.2723 1.26405,-1.8828 0.27988,-0.6107 0.60108,-1.1079 0.7137,-1.0946 z m -450.692,-5.7681 c 4.38097,0.2707 3.56349,2.3312 5.81533,4.8699 0.48804,0.5503 0.77397,1.9078 0.58355,2.42 -0.16443,0.4423 -2.13338,1.9729 -2.49155,0.4239 -0.0925,-0.4002 -1.35874,-1.9692 -1.68954,-2.0943 -1.43375,-0.5418 -2.87312,-3.3295 -3.05259,-4.5177 -0.16957,-1.1226 -0.26042,-1.1696 0.8348,-1.1018 z m 121.49627,4.1937 c 1.01373,-0.069 1.33366,0.2726 1.30864,1.3967 -0.01,0.4096 0.0961,0.9697 0.23346,1.2445 0.13746,0.2748 0.17285,0.6847 0.0787,0.9109 -0.2662,0.6403 -0.69321,0.4532 -1.74842,-0.7662 -0.75438,-0.8718 -0.95127,-1.3063 -0.87326,-1.9256 0.0879,-0.6976 0.21525,-0.8071 1.00081,-0.8603 z m 170.10951,7.90978 c 2.37594,-1.48397 -4.29905,7.40522 -5.61242,8.00971 -0.28972,-0.33444 -1.1073,-1.01262 -1.34795,-1.92987 2.40441,-1.93333 4.7634,-4.70768 6.96037,-6.07984 z m -218.87039,-5.20968 h 5.2e-4 c 1.42965,0.203 1.43816,3.69134 1.03737,5.38334 -0.39388,1.66285 -1.46381,4.05096 -2.4854,4.20984 -1.63826,0.25471 0.53105,-1.44211 1.31817,-4.38111 0.82324,-3.07387 -0.78689,-5.34057 0.12931,-5.21207 z m 156.18664,6.39062 c 0.82663,2.13072 0.99364,3.08278 1.46751,4.99838 0.62861,2.54111 0.28791,5.08438 -1.57632,6.29471 -1.14206,-1.23587 -2.81941,-2.49961 -3.58901,-4.07445 -0.36807,-0.75313 0.19238,-1.18024 1.44786,-3.51109 1.58767,-2.94773 1.91543,-3.71679 2.24996,-3.70755 z m 96.76105,3.69213 c -0.64117,1.69857 -0.78442,2.46256 -0.9134,4.42171 -0.133,2.02076 1.49271,5.27899 0.60588,4.64854 -0.51889,-0.36891 -2.10322,-3.01383 -1.70438,-5.29547 0.80983,-4.63245 3.06275,-6.55852 2.0119,-3.77478 z m -191.06002,-5.10604 c 0.0923,-0.0245 0.2822,0.0288 0.56058,0.19903 2.31824,1.41669 2.69865,7.29742 1.66439,9.76893 -0.44791,1.07035 -1.00386,1.05242 -0.79445,0.48258 1.57917,-4.29728 -0.16448,-8.60752 -1.40538,-10.18155 -0.1119,-0.14193 -0.11736,-0.24442 -0.0253,-0.26899 z m 219.40294,8.76961 c -0.043,1.56372 2.80742,0.27047 1.37774,2.3639 -1.54471,2.26179 -2.39504,1.88247 -2.96592,-0.097 -0.3531,-1.22408 1.62613,-3.64702 1.58819,-2.26725 z m -70.08678,1.68884 c -0.92706,1.20068 -3.78415,3.2856 -5.19426,4.26876 -1.30404,0.90918 -3.76818,2.01397 -6.37757,3.08941 -8.51373,3.50893 0.27289,-1.74604 3.67581,-3.65956 3.14751,-1.76967 5.82293,-4.57916 6.81876,-5.51788 0.60326,0.89783 0.6785,1.4264 1.07726,1.81927 z m -64.75831,-1.95623 c 1.31777,0.30275 -0.29407,1.59089 -2.55117,3.23165 -0.99409,0.72256 -2.68389,1.81116 -4.37234,2.46994 -0.77532,0.30243 -1.86599,0.62527 -2.36865,0.13792 -0.77377,-0.75024 -0.0256,-1.23637 0.58535,-2.71448 0.83468,-2.01945 3.52272,-4.31618 8.70681,-3.12503 z m 140.37892,3.24483 c 0.31515,0.11668 2.50886,0.0558 1.71659,1.67553 -0.50406,1.03054 -2.68602,1.18948 -3.20817,0.98983 -0.32667,-0.12491 -0.25157,-0.41367 0.38367,-1.46886 0.44704,-0.74268 0.92857,-1.26287 1.10791,-1.1965 z m -371.69299,-9.18899 c 0.3488,-0.0234 0.71652,0.26447 0.57489,1.36668 -0.21817,1.69792 -0.21391,3.07377 0.32866,5.10061 0.24627,0.91994 0.0398,1.26287 -0.38121,1.16922 -0.48318,-0.10737 -0.75228,-1.00322 -0.94551,-3.12897 -0.18538,-2.03938 0.0802,-3.63737 -0.0599,-4.3281 0.0597,-0.0274 0.1043,-0.0351 0.16014,-0.0707 0.0925,-0.0584 0.20673,-0.10115 0.323,-0.10894 z m 260.86682,14.03199 c -0.0201,0.4021 -0.55287,0.71952 -0.84199,0.61311 -4.51274,-1.6609 -8.55044,-1.59355 -12.17008,-5.20108 2.56744,-4.76028 13.34207,-1.8989 13.01207,4.58797 z m -86.08796,-6.23875 c 1.34002,0.33798 3.68024,2.33079 5.08747,2.86421 -0.16299,0.28541 -1.24565,0.6952 -1.84383,0.83676 -1.34734,-0.52826 -2.95997,-2.2707 -3.28108,-3.01905 -0.0972,-0.22657 -0.31247,-0.77021 0.0373,-0.68192 z m -62.19016,-1.63904 c 0.1693,0.0237 0.31909,0.16576 0.37576,0.37691 0.0741,0.27685 0.56231,0.77331 1.08567,1.10367 0.52336,0.33036 0.98546,0.87131 1.02712,1.20189 0.0628,0.49852 -0.17589,0.6591 -1.39954,0.94155 -0.81167,0.18739 -1.63941,0.38163 -1.83939,0.43204 -0.4329,0.10818 -1.199,-1.00297 -1.24691,-1.87372 -0.0359,-0.65324 1.11765,-1.9186 1.82414,-2.16491 0.0581,-0.0204 0.11672,-0.0258 0.17314,-0.0172 z m -4.65329,2.96408 c 0.18666,-0.0189 0.3638,0.028 0.51057,0.15674 0.54902,0.48182 1.65371,2.68123 1.63772,3.26071 -0.01,0.36347 -0.20768,0.49367 -0.7411,0.47895 -0.40003,-0.0111 -0.96677,0.0244 -1.25926,0.0728 -1.3663,0.22861 -1.92117,-0.63914 -1.53874,-2.40705 0.18331,-0.84747 0.83083,-1.50417 1.39081,-1.56214 z m 74.20804,2.85418 c 9.6895,5.17664 18.55255,5.57266 23.17485,5.84476 2.15592,0.12652 3.82034,-0.38877 2.65624,0.46514 -0.2303,0.16892 -1.89666,0.61512 -4.09277,0.65356 -8.97188,0.15668 -18.47363,-2.84004 -23.68281,-5.81365 0.091,-0.21878 1.49102,-0.68164 1.94449,-1.14981 z"
       sodipodi:nodetypes="sssssssssssssssscsscssssscssscsscssssssssssssscsssssssssssssssssssssssssssssssscsccsssssssssssssssssssssssssssssssssssssscsssssssssssssscssssssssssscscsccscssscsssssssssscsssssscsssssscssscssscsssssssssscssssscsssssssssscssssssssssssssssssssscssssssssssssssccsscsssssssssscscsssssssscscsssssccssssssssccsssssssssssssssssssssssscsscssssssssscssssscssssssssssssssssssscsccssscscsssccsssscsccsccsssssccsscssssssssssssssssssssssssssssssssssssssssssssssssssssssssscssssssssssssssssssssscsssssssssssssssssscssssssssssssssssssssssscssssssssssssssssssssssscsscsssssssscscsssssssssssssssssssssssssssssssssssssssssssssssssssssscssssssssssssssssssssssccssssssssssssssssssssssssssssssssssssssssssssssscssscsssssssssscsssscsscssscsscsssscsscssssscsssssscssssssssscsscscsscssccsssscsssssssssssssscsssscssccsccsssccsccsccscsccssscccsccsscscccssccccccc" /></g></svg>
