<?xml version="1.0" encoding="UTF-8" standalone="no"?>
<!-- Created with Inkscape (http://www.inkscape.org/) -->

<svg
   width="477.49207mm"
   height="52.657135mm"
   viewBox="0 0 477.49207 52.657135"
   version="1.1"
   id="svg5"
   xml:space="preserve"
   inkscape:version="1.2.2 (b0a8486541, 2022-12-01)"
   sodipodi:docname="hp3.svg"
   xmlns:inkscape="http://www.inkscape.org/namespaces/inkscape"
   xmlns:sodipodi="http://sodipodi.sourceforge.net/DTD/sodipodi-0.dtd"
   xmlns="http://www.w3.org/2000/svg"
   xmlns:svg="http://www.w3.org/2000/svg"><sodipodi:namedview
     id="namedview7"
     pagecolor="#ffffff"
     bordercolor="#000000"
     borderopacity="0.25"
     inkscape:showpageshadow="2"
     inkscape:pageopacity="0.0"
     inkscape:pagecheckerboard="0"
     inkscape:deskcolor="#d1d1d1"
     inkscape:document-units="mm"
     showgrid="false"
     inkscape:zoom="0.70710678"
     inkscape:cx="925.60278"
     inkscape:cy="222.03153"
     inkscape:window-width="1920"
     inkscape:window-height="1011"
     inkscape:window-x="1280"
     inkscape:window-y="0"
     inkscape:window-maximized="1"
     inkscape:current-layer="layer1"
     showguides="false"><sodipodi:guide
       position="259.85061,45.709915"
       orientation="1,0"
       id="guide825"
       inkscape:locked="false" /></sodipodi:namedview><defs
     id="defs2" /><g
     inkscape:label="Ebene 1"
     inkscape:groupmode="layer"
     id="layer1"
     transform="translate(134.14926,109.26265)"><g
       id="g2193"
       transform="rotate(0.20422749,104.54459,-82.187706)"><path
         id="path1187"
         style="opacity:1;fill:#000000;stroke:none;stroke-width:3;stroke-linecap:round;stroke-linejoin:round;paint-order:stroke fill markers"
         d="m 158.36604,-107.53194 c -1.4663,-0.0548 -2.81595,0.13126 -3.86901,0.4098 -4.01303,1.06147 -7.95764,3.00981 -10.55233,4.98729 l -1.32085,1.51515 c -0.86341,1.579706 -2.50683,3.130281 -4.5377,4.606956 -1.26212,0.917679 -2.82299,1.073943 -2.67168,2.141471 0.12573,0.887086 1.28214,0.871506 1.9482,0.850594 1.08174,-0.03396 1.46304,0.914587 1.08056,1.779737 -0.5679,1.284577 -1.63543,2.233704 -2.5709,3.238045 -4.03769,4.33496 -7.86847,4.132137 -11.7073,3.007568 -0.87813,-0.257246 -1.22893,-0.735517 -2.04949,-1.129647 -0.79655,-0.382595 -2.21175,-0.516132 -3.16569,-0.124023 -0.57033,0.234418 -1.23117,1.588135 -1.78801,0.847493 -0.85224,-1.133543 -0.60725,-3.106896 1.00356,-4.111376 1.94391,-1.212201 1.95832,-1.89997 -1.3994,-2.218986 -1.42927,-0.135796 -3.15954,0.523644 -3.84214,1.956469 -0.72079,1.512989 -0.56075,3.158499 -0.19792,4.828646 0.11624,0.535079 -1.08629,1.126916 -1.61076,1.14515 -1.88666,0.06559 -1.79688,-0.105188 -2.59882,-1.566618 -0.33169,-0.604461 -1.25721,-1.20512 -1.91716,-1.364687 -1.15551,-0.279385 -1.47751,-1.846879 -0.77207,-2.535545 0.7044,-0.68765 0.66765,-1.629643 3.56039,-1.48394 3.38012,0.170251 6.04729,-7.799146 0.0907,-8.31782 -0.79609,-0.06932 -0.71026,-0.912929 -0.81142,-1.519217 -0.27482,-1.64708 -0.98131,-1.23582 -1.85882,-1.55886 -0.84424,-0.31079 -0.59244,-1.47231 -0.86868,-2.20916 -0.25361,-0.67648 -0.51903,-2.09616 -1.38803,-1.79679 -1.6502,0.5685 -2.91157,2.20867 -3.22719,3.96306 -0.13008,0.72306 0.29382,2.14593 -0.51212,2.197284 -0.848039,0.05404 -1.54085,-0.774344 -2.418453,-0.879014 -2.4e-4,-3e-5 -2.74e-4,-5.3e-4 -5.16e-4,-5.2e-4 -2.60728,0.0812 -1.672726,1.950804 -1.149284,2.742469 0.315173,0.476675 0.218204,1.192295 0.496158,2.214455 0.457531,1.682539 1.359071,4.041067 3.571295,4.844031 0.79737,0.28942 1.4822,0.98825 1.54317,1.852684 0.0597,0.847104 0.61545,1.413973 0.54777,2.27111 -0.0541,0.685029 -0.30329,-0.0053 -1.25079,1.346424 -0.67266,0.959601 -0.28165,1.133777 -2.01393,1.277939 -0.892101,0.07424 -1.93116,-0.117262 -2.076153,-1.750529 -0.127621,-1.437585 -0.859083,-3.132003 -2.185913,-3.554305 -1.482458,-0.471835 -2.194132,0.07405 -2.834177,0.356888 -1.438524,0.635687 -2.219335,0.902183 -2.839884,1.485376 -0.797394,0.749392 0.44659,1.037033 1.045931,1.046965 0.735836,0.01219 1.833557,-0.04111 2.06809,0.851627 0.261298,0.994616 -1.054506,1.017329 -1.696537,0.79065 -1.309676,-0.462402 -2.746461,0.171592 -3.725871,1.010791 -0.97941,0.839199 -2.009676,0.701403 -3.111654,0.342059 -1.101978,-0.359343 -4.947721,-3.191733 -6.175487,-4.461218 -0.785089,-0.811767 -1.31723,-1.609628 -1.152532,-1.858258 0.589322,-0.889647 0.902416,-1.955548 0.785999,-3.021521 -0.143355,-1.312639 -1.190227,-2.186424 -2.01228,-3.12074 -4.225156,-4.802157 -10.279649,-7.493527 -12.620149,-8.288097 -4.214145,-1.43065 -8.044315,-1.25646 -10.61108,-0.30346 -2.069958,0.76855 -3.91659,2.58758 -4.700916,4.73856 -0.503681,1.381322 0.04656,2.908556 1.075386,3.911392 0.705252,0.687437 1.815861,1.173925 2.729033,0.517797 0.718642,-0.516355 0.956663,-1.787592 -0.129708,-1.888773 -0.965014,-0.08988 -0.928957,-1.19375 -0.696082,-1.87017 1.052995,-3.058576 4.152051,-2.442786 8.066832,-0.988676 2.858033,1.061592 5.537247,2.770188 7.927541,4.836503 3.060711,2.645865 6.443551,6.157573 9.608199,8.895581 1.615183,1.397433 3.155401,2.159732 4.955253,3.375505 1.08703,0.734272 -0.301874,1.262585 -0.926312,1.254721 -2.628237,-0.0331 -3.564508,-0.02273 -6.72338,0.09364 -1.395237,0.0514 -3.168405,0.523645 -3.689668,-0.433173 -0.982839,-1.804074 -1.474558,-1.925722 -3.298956,-2.759301 -1.422597,-0.649994 -2.432106,-3.163903 -3.079466,-1.849203 -0.683386,1.387864 -0.271978,3.027866 -0.243913,4.532023 0.0148,0.793382 0.08177,1.614259 -0.856322,2.022691 -0.998937,0.434924 -2.242048,0.119485 -3.336111,0.310348 -1.046323,0.182534 -2.117709,1.264238 -0.821057,1.591237 1.63932,0.413417 3.559345,-0.106659 5.122555,0.502678 1.358749,0.529639 0.460216,3.363268 1.41539,4.170971 0.909589,0.769156 1.512789,-0.823374 1.826159,-1.295226 0.363822,-0.547819 1.834573,-0.379173 2.534569,-0.936708 0.940514,-0.749109 1.872879,-1.674032 1.511782,-2.923824 -0.317156,-1.097707 1.269179,-1.305086 3.061844,-1.444583 3.095013,-0.24084 5.184799,-0.346134 7.928107,-0.334871 1.039023,0.0043 0.761362,0.788532 0.239567,1.669278 -1.82037,3.072629 -3.032961,5.757966 -5.314117,8.72102 -3.038491,3.946777 -6.828666,7.75326 -11.225154,8.897131 -2.077718,0.540577 -6.351186,0.288272 -8.950879,-0.728642 -1.619441,-0.633472 -2.433133,-2.250721 -3.342949,-3.604431 -0.717052,-1.066898 -1.374784,0.143604 -1.421647,0.962873 -0.05324,0.930673 0.327312,2.293138 1.523371,2.961213 4.519176,2.524246 11.667379,3.501614 16.399078,2.659489 3.397741,-0.604713 6.50385,-1.581471 8.565369,-3.952213 1.598879,-1.838707 3.391519,-3.515675 4.820377,-5.493722 0.440547,-0.609874 1.348215,-1.342146 0.975134,-2.083594 -0.421463,-0.837602 -1.545366,0.138215 -2.354378,0.02429 -0.734367,-0.103414 -1.988453,-0.199123 -1.73116,-1.232483 0.473146,-1.900287 1.599673,-3.564171 2.814298,-5.067907 0.538903,-0.667175 0.733403,-1.551906 1.420069,-2.103748 0.579722,-0.461109 1.169846,-1.252804 1.970939,-1.187524 1.570099,0.551216 2.975399,1.59995 4.721159,1.647444 0.709503,0.0193 1.858677,-0.347165 2.24069,0.440283 0.519586,1.071031 -0.187068,1.539011 -1.77767,1.663982 -1.213496,0.09534 -0.265656,1.167027 0.520899,1.519287 1.056402,0.473112 2.536475,0.643569 3.965144,0.132819 0.919862,-0.328852 1.789402,-0.901209 1.987981,-1.832457 0.286554,-1.343813 -0.201316,-3.047697 0.520635,-4.221336 0.486628,-0.791086 0.572743,-1.576975 1.187282,-1.726384 0.76221,-0.185313 0.93836,-0.489294 1.44745,0.366148 0.58223,0.978359 0.4135,1.416789 1.17771,2.194698 0.45981,0.468042 1.5212,1.046411 1.58813,1.715377 0.0898,0.897873 0.12912,1.4264 0.001,2.169653 -0.16622,0.966567 -0.74028,1.277344 -1.6535,1.610759 -1.65757,0.605179 -3.675509,1.643956 -4.113451,3.280937 -0.386023,1.442912 0.168773,2.863121 0.30179,4.283459 0.11214,1.197412 -0.05798,1.768124 -0.438216,2.596737 -0.221717,0.483162 0.228495,1.267309 0.548804,1.16272 0.664771,-0.268586 1.222313,-0.200966 1.604043,-0.749825 2.45878,-2.826607 -0.627667,-2.743548 0.8108,-4.470012 0.9377,-1.125434 2.40517,-0.395506 3.05098,0.690366 0.61031,1.026176 -0.80417,2.242053 -1.08521,3.222026 -0.30098,1.049523 0.0511,2.349725 0.97875,2.784326 1.0205,0.478084 1.60415,2.103236 2.49756,2.134726 0.86188,0.03038 1.57887,-1.485413 3.05766,-2.784815 1.62595,-1.428705 -2.48978,-5.651524 0.12196,-5.347478 2.06534,0.240437 2.28329,6.47751 3.50779,3.663859 1.68896,-3.880886 -0.1062,-6.378565 -2.86856,-8.881628 -1.62366,-1.471264 -2.77342,-2.333021 -3.36465,-2.617411 -0.77227,-0.371473 -0.71763,-0.999945 -0.71675,-1.804025 9.1e-4,-0.826756 -0.1204,-1.464228 0.78415,-1.845912 0.74492,-0.314328 1.2675,-1.082171 1.49063,-1.603795 0.2696,-0.630236 0.95271,-0.921989 1.92501,-0.951608 1.12403,-0.03424 2.55614,0.386365 2.91455,1.589567 0.12909,1.737778 -1.86986,4.710477 0.48886,5.814632 3.88561,1.818919 5.74836,-1.034878 6.13606,-1.509469 1.05909,-1.296437 0.0405,-1.316439 -2.07171,-1.883606 -0.82404,-0.221285 -1.40147,-2.190003 -0.39635,-2.484603 0.83827,-0.245697 1.78975,0.583861 2.95124,0.751376 0.93084,0.13425 1.79779,-0.434658 2.54454,-1.12758 0.97424,-0.903972 2.07769,-0.948957 3.31246,-0.945162 7.39808,0.02274 11.12778,3.240115 13.53613,5.648234 0.54069,0.540639 1.25322,1.440698 0.51986,2.214852 -0.95535,1.008504 -3.49234,1.57353 -2.91971,2.256193 2.4337,2.90139 3.89879,4.766295 6.0482,6.504513 l 1.65985,1.082621 c 4.94683,2.395393 8.55694,2.734173 13.98416,2.721281 4.82322,-0.01146 8.29693,-0.614515 11.08925,-4.757849 1.26339,-1.874652 0.8817,-3.92936 -0.32815,-5.493205 -1.27634,-1.649782 -4.55813,-1.706871 -5.8012,0.315226 -0.50909,0.828211 -0.1004,1.481645 0.51057,1.979208 0.42808,0.348616 1.75189,1.284931 1.76785,0.313159 0.0122,-0.74391 -0.35061,-2.22052 0.5488,-2.18798 1.53679,0.0556 2.0132,0.768113 1.96991,2.081009 -0.14704,4.459506 -5.43775,5.818347 -7.89203,5.74797 -6.07173,-0.174107 -12.32292,-6.578731 -14.50454,-9.276436 -1.72532,-2.133454 -3.09828,-1.588214 -4.48448,-3.469556 -0.8469,-1.149415 -1.21569,-1.97599 -2.70681,-3.139343 -1.3887,-1.083448 -3.505,-2.294793 -4.91133,-3.263367 3.91706,0.201499 6.41657,0.365425 9.99319,0.03772 0.17845,0.733389 0.23049,1.666249 0.44804,2.393652 0.24654,0.824464 0.39426,1.440466 1.2485,1.879989 0.70175,0.361059 1.53399,0.763813 2.23035,1.382344 0.39127,0.347544 0.76354,0.957449 1.32602,0.881084 0.9017,-0.122426 0.80425,-1.359165 0.72399,-2.074809 -0.0958,-0.854206 -0.69793,-1.593429 -0.56483,-2.474268 0.1528,-1.011243 1.17651,-1.135442 2.0004,-1.050582 0.81767,0.05987 1.86014,-0.198134 1.88981,-1.257804 0.0239,-0.852276 -0.35629,-1.746471 -1.28055,-1.778186 -0.41394,-0.0142 -0.82631,-0.05002 -1.24023,-0.04444 -0.84784,0.01142 -2.21409,0.462534 -2.48409,-0.329179 -0.30822,-0.903793 1.02164,-2.146612 1.1312,-3.840592 0.0421,-0.650486 0.11253,-2.428056 -0.67748,-1.92133 -0.94589,0.606716 -1.54446,1.269703 -2.93212,1.917196 -1.18598,0.553385 -2.0112,4.03021 -1.84485,5.328873 -2.60591,0.609417 -6.64373,0.09013 -9.78855,-0.28732 2.86546,-2.978589 6.14397,-5.585107 7.88169,-7.150468 0.9121,-0.821637 1.88731,-1.508474 2.69234,-2.412256 1.14059,-1.280512 1.68866,-2.963972 2.74506,-4.210596 0.3554,-0.848719 1.23145,-1.286226 1.23145,-1.286226 2.58016,-2.093516 4.78903,-4.418766 9.17928,-4.083986 4.57695,0.34901 6.19974,1.26379 8.44703,3.740854 0.63959,0.704973 1.00839,1.842034 0.47956,2.431893 -0.72284,0.806266 -1.68542,0.580744 -1.73891,-0.307992 -0.0818,-1.3596 -0.91166,-1.089047 -1.60507,0.04703 -0.91159,1.493405 -0.15779,3.824535 1.55546,3.762561 1.07515,-0.03889 2.16824,-0.836094 2.54661,-1.880505 1.26616,-3.494937 0.081,-7.260381 -2.38383,-9.569951 -2.26188,-2.11947 -5.03012,-2.88011 -7.47397,-2.9714 z m -13.76453,8.875946 c 0.49439,-0.05804 0.95954,0.132594 0.79168,0.740524 -0.35902,1.300249 -0.64829,1.912115 -1.54099,2.903698 -0.47098,0.52315 -2.03237,1.917649 -2.56263,1.284676 -0.55399,-0.661291 0.64375,-1.435805 1.16013,-2.133203 0.56615,-0.764621 0.73173,-1.173932 1.32189,-2.144572 0.20202,-0.332276 0.53329,-0.616298 0.82992,-0.651123 z m -72.398554,2.216804 c 0.701625,0.196879 1.562813,0.723391 2.022362,1.115513 0.919766,0.784814 2.404556,2.374757 1.575795,3.006544 -0.293183,0.223502 -0.858384,0.136918 -1.329367,-0.07705 -1.415883,-0.643245 -2.616112,-1.994772 -3.248041,-3.262707 -0.250083,-0.859804 0.277649,-0.979171 0.979251,-0.782298 z m 32.767064,11.578301 c 0.7377,-0.08022 1.83865,0.451769 2.11968,0.99833 0.27537,0.535551 0.13639,1.996519 -0.31366,2.469644 -0.35386,0.372017 -1.80491,0.71168 -2.44479,0.387007 -0.6087,-0.30885 -1.13824,-1.534484 -1.11699,-2.167343 0.0258,-0.767288 0.8696,-1.591273 1.75576,-1.687638 z m -36.075,4.281828 c 0.708645,0.133295 0.453772,1.734703 -0.309542,2.069124 -0.860397,0.376955 -1.909682,0.02486 -1.723926,-0.924491 0.168355,-0.860422 1.066384,-1.326539 2.033468,-1.144633 z m 72.85343,11.336259 c -0.66658,-0.734059 -0.59682,-1.787057 -0.10335,-1.915645 0.0705,-0.01837 0.14973,-0.01779 0.23668,0.0052 0.0994,0.02624 0.2225,0.06627 0.32711,0.172083 3.28911,3.326876 4.94372,5.025947 8.18865,6.263183 1.95752,0.746367 -0.26667,0.837334 -1.62368,0.540019 -3.44661,-0.755138 -5.21244,-3.0683 -7.02541,-5.064807 z m -60.304136,0.946491 c -1.864129,2.549019 -4.823626,5.692563 -7.477377,6.822471 -0.7559,0.321845 -3.307132,-0.136325 -2.34895,-0.801903 3.256568,-2.262098 5.273992,-4.6993 6.618581,-6.414119 0.653166,-0.833014 0.860605,-1.282911 2.37257,-0.908444 1.40156,0.347123 1.148628,0.873379 0.835176,1.301995 z"
         sodipodi:nodetypes="ssccssssssssssssssssssssssssssssssssssssssssszzsssssssssssssssssssssssssssssssssssssssssssssccssssssssssssssssccsssssssssssssscssssscssssccssscsssssssscccsssssccssssssccssccsssscsscsssssssssssssssssssssscsscsssssscsssssss" /><path
         id="path459"
         style="fill:#000000;stroke:none;stroke-width:3;stroke-linecap:round;stroke-linejoin:round;paint-order:stroke fill markers"
         d="m 339.77513,-108.86674 c -0.50919,-0.0618 -1.35563,1.11928 -3.08767,0.67334 -1.47006,-0.37849 -2.56563,0.65387 -2.92954,3.27784 -0.0785,0.56621 -0.0907,0.66685 -0.13591,0.89917 -0.28453,-0.16623 -1.21429,-0.74443 -1.48363,-0.894 -14.5701,-8.09105 -37.25737,-1.85866 -45.683,4.24935 -6.4273,-4.14849 -13.51996,-3.76946 -22.81307,-1.82728 -2.9404,0.61447 -4.95489,1.32907 -6.86315,3.829226 -1.16265,1.523235 -0.92965,4.210456 0.64285,5.724198 0.73169,0.704345 2.20943,1.574226 2.78175,0.668176 0.41494,-0.656882 0.29258,-1.237257 -0.14315,-1.996777 -0.24828,-0.68901 -1.23388,-1.536775 -0.73949,-2.137854 3.20328,-3.894659 11.04709,-3.486691 18.1312,0.430982 0.58941,0.326064 1.08201,0.678213 1.89807,1.073836 -3.43698,3.288094 -9.56696,6.976053 -14.06684,12.151713 -4.28629,-5.78279 -9.26022,-10.496526 -13.98519,-15.294674 1.44243,-2.157356 4.06647,-3.768256 4.92631,-5.938656 0.42577,-1.07472 0.58563,-2.27463 0.54829,-3.43648 -0.033,-1.02558 -1.74165,-1.44125 -2.07326,-0.65733 -0.89491,2.11553 -3.22752,3.53327 -4.92011,2.77813 -3.13321,-1.39771 -4.58167,-1.58709 -6.63164,-0.99167 -3.81295,1.10748 -2.93577,3.47572 -2.42518,4.68188 -2.77523,-0.22599 -4.37475,-0.88715 -8.06307,0.63356 -1.11966,0.46164 -1.88091,1.784783 -2.60708,0.74362 -2.85476,-4.09338 -7.22795,-7.07351 -10.45724,-7.93647 -2.58017,-0.68951 -5.5276,-0.75621 -8.18555,-0.49454 -7.15179,0.70411 -10.12929,3.92261 -13.37489,9.264034 -0.40819,0.67178 -0.92115,1.612744 -1.65985,1.190108 -2.97694,-1.703311 -5.04041,-2.634672 -7.53649,-3.619932 -1.52589,-0.6023 -1.27955,-2.79323 -2.02416,-4.13308 -0.39193,-0.66299 -0.81653,-1.52741 -1.64331,-1.68155 -3.20897,-0.21201 -6.42224,0.19032 -9.63404,0.0739 -1.85899,0.0138 -3.61758,-0.67041 -5.44773,-0.8723 -0.91335,-0.25602 -1.70455,0.66433 -1.33584,1.52188 0.50952,1.50962 1.66741,2.68891 2.79828,3.76514 0.56883,0.59511 1.2879,0.95953 2.05672,1.21543 0.61965,0.33622 1.36375,0.62865 1.75339,1.23662 -0.11227,0.959458 -1.01937,1.541934 -1.7539,2.050518 -3.8734,2.68194 -7.42937,7.782148 -10.02471,13.521139 -8.05608,-8.91107 -13.09603,-12.874659 -21.03541,-17.951877 -4.08001,-2.60915 -9.62586,-4.79381 -15.33137,-4.75423 -3.83059,0.0266 -7.98111,0.7454 -11.31403,3.64215 -7.90295,6.868714 -7.88723,16.088863 -7.75929,21.193192 0.14904,5.946181 1.83573,16.75568 11.7792,20.609428 7.0535,2.733692 15.97459,4.002907 25.46614,-1.586466 7.20638,-4.243698 14.45996,-10.665927 18.87172,-16.773653 5.73252,5.341102 6.58588,8.663675 10.53062,11.881962 1.117,0.911256 2.46661,1.540428 3.48144,2.567285 -1.07362,0.992413 -1.92153,1.25421 -2.90266,2.536796 -1.40976,1.842887 2.17077,1.016436 3.36723,1.006657 4.1704,-0.03409 3.97051,3.542708 8.20622,2.185913 0.95043,-0.30444 1.81957,-0.949294 2.3766,-1.807642 0.40218,-0.619726 0.20533,-1.242068 0.54002,-1.859834 0.55704,-1.028176 1.58166,-0.861166 2.82205,-0.989087 4.21065,-0.434257 5.30507,-2.057228 6.20014,-1.719792 1.20591,0.454626 1.79438,1.301472 2.68717,2.225704 3.86148,3.997494 10.48262,5.611228 14.95826,5.611544 7.05895,4.99e-4 11.39673,-2.029471 16.3928,-5.845638 1.65459,-1.263834 4.32406,0.366149 5.14749,1.393713 0.8508,1.061717 1.536,2.673199 2.87683,2.927987 2.73835,0.520366 8.38351,-0.404652 10.52752,-2.284615 1.28858,-1.129886 -1.74521,-1.057118 0.80563,-2.340426 6.43402,-3.236663 10.11265,-8.605529 13.62191,-11.968778 4.02546,3.339489 9.16699,8.271473 14.3552,11.009663 -1.80063,1.901726 -3.23757,3.818015 -6.60012,3.971334 -2.49727,0.113874 -5.29347,-0.0172 -7.40006,-1.029394 -1.49492,-0.718295 -2.91281,-1.765429 -3.50883,-3.390491 -0.27343,-0.745508 -0.42486,-2.192902 0.74879,-2.02985 0.8354,0.116059 2.07331,1.29391 2.47789,0.529166 0.40632,-0.768017 -0.77241,-1.398151 -1.25006,-1.924947 -0.65479,-0.722153 -1.72682,-0.431059 -2.48977,-0.0646 -0.79369,0.381295 -1.73087,0.743028 -2.06912,1.588017 -0.36225,0.904939 -0.27121,1.918488 0.0894,2.824117 0.78344,1.967722 2.39569,3.519846 4.16253,4.627107 2.10594,1.319628 6.11253,2.192793 8.36332,2.299602 4.4645,0.211849 11.87203,-0.112267 14.33297,-2.088762 0.62555,-0.502354 1.72964,-1.561322 2.48512,-1.778703 0.79106,0.241645 1.16234,0.406827 1.92237,0.7059 11.69763,4.603304 31.38097,7.217591 43.587,-1.376143 0.67516,-0.475334 1.55417,-1.269357 1.79834,-1.524455 1.32414,1.479337 1.48231,2.821836 -0.0207,2.948658 -0.63447,0.05351 -1.4862,0.26523 -0.62529,1.018542 0.88542,0.774559 2.10873,1.146656 3.27732,1.179256 1.26328,0.03524 2.83109,-0.772101 2.90215,-2.15439 0.0747,-1.453162 -0.029,-2.991619 -1.01751,-4.222998 -0.36258,-0.45169 -1.11336,-0.823553 -1.6061,-0.977202 0.49583,-0.463211 1.59357,-1.591732 1.89239,-2.030367 2.26441,-3.323833 2.37038,-7.410426 -0.61495,-11.00863 -0.56758,-0.684099 -1.55149,-1.582815 -1.07952,-2.486153 3.41239,-6.531224 4.10414,-11.749811 -1.9234,-17.450107 0.68918,-0.26004 1.7244,-0.2487 2.85461,-0.90175 1.41979,-0.82035 1.93451,-2.5761 0.30437,-4.40542 -1.32719,-1.48937 -0.66145,-3.10236 -1.26452,-3.43183 -0.0672,-0.0367 -0.13551,-0.0578 -0.20825,-0.0667 z m -398.720794,2.13737 c -0.511613,1.4722 0.474375,4.25051 1.45656,5.15589 1.371252,1.26403 4.002982,1.919275 4.710413,2.061725 2.006887,0.404113 2.831408,0.288811 0.628386,1.702221 -6.906096,4.430798 -11.476532,10.767728 -14.940174,15.513265 -4.355918,5.968045 -7.606809,8.657688 -13.062251,12.255583 -7.573541,4.994794 -14.650147,7.426873 -22.15626,8.590078 -7.1949,1.114975 -19.51661,0.174058 -24.69463,-8.152895 -1.84901,-2.973454 -1.19958,-5.955003 1.56438,-8.969727 0.22711,-0.428746 0.42048,-0.768207 0.80189,-1.270992 0.48588,-0.640524 0.74271,-1.197582 0.84852,-1.683618 -1.24816,0.792143 -3.33336,0.06241 -4.47775,-0.37421 0.0135,0.177569 0.0411,0.371422 -0.36856,0.646908 -4.02575,2.70701 -5.07812,9.350858 -2.78757,12.784805 2.24868,3.371167 4.53148,5.610532 8.5992,7.476127 6.70313,3.074281 19.12615,2.776217 26.076444,1.036113 6.359032,-1.592073 13.177062,-5.341135 18.660585,-8.883152 5.424926,-3.504167 9.539854,-7.992095 11.280052,-10.223109 4.178103,-5.356524 7.593509,-7.328226 8.573808,-8.008363 5.299083,-3.676535 9.305381,-5.039565 14.917435,-5.598108 6.7596,-0.672753 14.084118,-0.289443 17.952196,2.465156 0.771063,0.549102 1.80216,1.316236 2.861403,1.989005 1.055359,0.670303 1.894061,-1.055106 2.071826,-1.837267 0.429511,-1.889834 0.620636,-3.624786 1.820044,-5.840987 2.167368,-4.004744 8.7962171,-5.073408 11.5822737,-5.073408 2.7860566,0 11.2395214,1.132613 14.2233865,8.825814 0.5493685,1.416419 0.3488834,3.021489 0.4650879,4.537191 0.1269567,1.655946 1.283069,1.916204 1.8426609,1.090165 1.565186,-2.310444 5.16328,-4.433279 8.294102,-5.308663 3.685124,-1.030368 8.559466,-0.269104 12.629665,0.86896 7.001831,1.957776 11.547987,5.106632 16.142825,9.787904 3.006109,3.062658 4.490185,5.088259 7.632609,8.73125 6.097248,7.068499 12.350379,11.525016 20.922754,13.028662 10.97437,1.92497 16.977169,0.576213 23.266817,-2.602594 3.376866,-1.706679 4.573536,-3.252614 6.245696,-5.802389 1.59151,-2.426801 2.06476,-6.66383 1.1652,-6.643194 -0.0347,-0.0061 -0.0686,-0.0079 -0.10128,-0.0057 -1.01412,0.06758 -1.68912,3.66168 -3.37515,5.895669 -3.348444,4.436695 -6.686976,5.8497 -9.962025,6.7263 -1.03234,0.276317 -1.981501,-0.918776 -2.55695,-1.414384 -1.670153,-1.438425 -3.198688,-0.04873 -3.789271,1.290067 -0.656955,1.489259 -1.042192,1.545874 -2.44639,1.512328 -8.340065,-0.199242 -12.389991,-1.583012 -18.100321,-5.085479 -4.776028,-2.929407 -7.834343,-6.403257 -11.272697,-10.288778 -4.915252,-5.554495 -5.074177,-9.636284 -13.629659,-16.340605 -3.583367,-2.808029 -4.88525,-3.288037 -4.461743,-3.361035 2.093572,-0.360859 3.553501,-0.53762 5.222937,-1.246952 1.920112,-0.815842 3.284527,-2.605413 3.760494,-4.599727 0.189004,-0.79193 0.06907,-2.40109 -0.956014,-2.26187 -1.287189,0.17482 -1.53279,1.93577 -2.69441,2.44377 -0.995701,0.43544 -2.284254,0.73675 -3.24683,0.0543 -1.222019,-0.86639 -2.369576,-1.853 -3.376538,-2.95951 -3.469463,-3.81245 -9.423879,0.0963 -8.353584,3.07982 0.339196,0.94554 0.95043,1.690933 -1.468555,1.407781 -6.103474,-0.714441 -9.906346,0.244622 -14.597559,3.751192 -0.6854951,0.512391 -1.795401,0.209374 -2.2324937,-0.705125 -2.9814596,-6.237908 -9.9432499,-9.257608 -15.2386448,-9.257608 -5.2953945,0 -13.3150115,3.28409 -15.3268595,11.794126 -0.169583,0.717329 -0.44162,1.206614 -1.008621,0.654344 -2.794108,-2.72151 -5.686429,-4.498157 -8.498585,-5.357019 -2.512888,-0.767461 -7.677963,-1.490571 -8.857565,-2.779031 -0.656682,-0.71728 -0.489123,-1.84131 -1.018542,-2.65721 -1.532036,-2.36107 -5.809769,-3.62996 -7.701339,-1.97662 -1.174814,1.02686 -2.733374,3.50726 -5.321407,3.0685 -1.290658,-0.21882 -1.560951,-2.10764 -2.110605,-3.17441 -0.423981,-0.82287 -1.690373,-1.45517 -2.028817,-0.48128 z m 370.466184,2.47837 v 5.2e-4 c 0.2535,10e-4 0.50678,0.004 0.75964,0.009 6.29356,0.12458 12.36023,1.3436 16.79536,3.29592 0.35046,0.15427 1.86092,0.74187 2.23707,1.038183 -0.15147,0.207361 -0.38202,0.301344 -0.87488,0.58291 -3.54949,2.02784 -9.52825,4.282891 -6.58978,13.154753 0.34032,1.027428 -0.41023,1.274621 -1.30948,1.379244 -0.90835,0.105682 -3.27969,0.41428 -4.85397,0.679028 -1.08837,0.18307 -2.57225,-2.230289 -1.44797,-2.601391 1.13595,-0.374933 1.89523,-3.727812 0.85473,-4.982125 -2.74644,-3.310848 -4.72663,-6.092884 -10.63191,-7.146334 -2.12246,-0.378621 -6.66694,0.425177 -7.71477,2.141988 -0.9489,1.554398 -0.56188,3.536308 -0.65578,5.307686 0.10894,0.626292 -0.36115,1.971897 0.57619,2.027267 0.94619,0.131318 1.27918,-0.921255 1.44074,-1.635559 0.33458,-1.479305 0.72117,-3.17434 2.01952,-4.195093 0.96603,-0.75948 3.2806,0.568678 4.18631,1.169438 2.7237,1.806828 5.03203,4.626265 6.82852,8.560201 0.31624,0.692512 0.66168,1.887704 0.13591,2.106848 -2.04309,0.851559 -6.14143,0.295462 -8.28218,0.0832 -1.83902,-0.182359 -3.46499,-0.22637 -5.13612,-1.135331 -2.66087,-1.447061 -5.96912,-3.167543 -8.50181,-5.227071 -0.68349,-0.555787 -1.31285,-1.500721 -1.02526,-2.303736 0.27593,-1.09904 1.33671,-1.613824 2.21175,-2.173511 -0.48502,-0.848565 -0.91084,-1.743217 -1.58027,-2.468583 -0.44387,-0.561154 -1.97969,-1.308765 -1.10174,-1.942 5.49432,-3.962972 13.28001,-5.660052 20.89899,-5.724712 0.25396,-0.002 0.50769,-0.002 0.76119,-5.2e-4 z m -97.8333,0.7028 c 0.3744,-0.005 0.74606,1.3e-4 1.11362,0.0139 5.32014,0.20156 11.02039,3.07949 12.68553,8.066692 0.22622,0.67756 0.34969,1.901078 1.3286,1.793172 1.73561,-0.191298 3.03786,-2.803387 4.85811,-3.240629 2.86518,-0.688272 7.02969,0.554575 8.5142,1.270724 2.80038,1.350766 5.46585,2.601368 7.87911,4.218864 4.45472,2.985764 9.04897,7.476185 13.00592,11.044804 -4.3096,4.037956 -9.32112,6.933283 -14.61719,9.035107 -3.63353,1.441975 -7.88516,1.168864 -11.48044,1.249536 -1.55965,0.035 -3.39783,-0.630584 -4.0814,-0.01292 -0.75994,0.686688 -1.02378,1.028543 -2.3549,2.377116 -4.84884,4.91257 -9.22933,5.972944 -14.10043,6.017721 -4.61576,0.04243 -11.21847,-3.668293 -12.777,-5.558318 -1.26691,-1.536549 -2.40703,-3.104976 -3.84369,-4.248319 -1.22029,-0.971148 -3.01166,-0.564158 -4.33307,0.01189 -10.11658,4.409798 -22.53294,-0.401008 -29.92995,-11.301636 3.3626,-5.037366 7.07353,-8.337774 11.14195,-10.500651 4.37584,-2.326234 9.88864,-2.992732 13.4767,-1.791622 2.25554,0.755042 4.49435,1.966667 5.8968,3.640604 0.54711,0.65303 1.52238,1.487396 2.24224,0.708484 0.64338,-1.298263 0.87677,-2.76417 1.34565,-4.130497 2.17865,-6.348622 8.41303,-8.592032 14.02964,-8.664072 z m -81.33458,0.48214 c 3.03776,0.0194 6.27321,0.38821 8.57623,1.67225 5.7359,3.198034 13.97151,8.512527 21.6519,18.447452 -2.9706,5.706651 -7.85185,9.601677 -12.26333,13.034863 -6.7705,5.269091 -13.21238,8.467653 -20.63182,7.721493 -1.071,-0.107715 -2.1195,-0.861822 -2.6665,-1.829863 -0.25902,-0.809173 -0.46611,-1.916796 -1.49707,-2.061373 -0.18968,-0.02542 -0.38494,-0.04497 -0.58187,-0.05426 -0.59081,-0.02786 -1.19721,0.03583 -1.71721,0.303857 -0.61163,0.536115 -0.85611,1.480424 -1.70016,1.757516 -0.55105,0.03946 -1.10721,-0.06327 -1.57613,-0.352433 -5.46372,-3.369267 -9.82559,-9.279667 -9.49399,-18.203024 0.27148,-7.305477 1.09441,-15.508315 6.74894,-18.114658 1.71276,-0.78946 2.33343,-0.54177 3.09129,0.27957 1.05645,1.145026 2.30014,2.372644 3.94239,2.560052 0.81754,0.09329 1.36032,-0.611579 1.43609,-1.421102 0.0922,-0.98515 0.28236,-2.9128 2.27635,-3.34502 1.19564,-0.25918 2.48386,-0.38399 3.80028,-0.3948 0.20042,-0.002 0.40212,-0.002 0.60461,-5.2e-4 z m 142.88224,2.89646 c 0.61115,-0.0201 1.67284,0.0418 3.31918,0.201542 3.4013,0.329982 5.04828,1.02008 5.5826,1.347204 -0.3369,0.376203 -2.23757,1.492598 -2.97346,2.015898 -1.01589,-0.465735 -1.91575,-1.15525 -2.90628,-1.578198 -2.63651,-1.125806 -4.8555,-1.926186 -3.02204,-1.986446 z m -89.77798,0.0718 c 2.56632,0.0501 4.60417,0.827565 8.58604,2.646871 1.83876,0.840175 2.54178,0.990256 2.13372,2.052071 -0.31794,0.827283 -0.57343,0.886232 -1.71359,0.222209 -4.37277,-2.546445 -11.28519,-3.250413 -15.60009,-1.589568 -3.62137,1.393956 -6.41905,2.691961 -9.11003,5.510258 -1.26874,1.328719 -0.87953,0.701502 -0.39533,0.03772 0.65209,-0.893869 1.7001,-2.244362 2.01745,-2.625163 2.8308,-3.396737 6.9518,-5.53603 11.24737,-6.073531 1.06457,-0.133197 1.97898,-0.197567 2.83446,-0.180867 z m -212.220515,7.229311 c -9.927382,-3.379335 -20.053425,-3.754367 -32.567748,4.246946 4.881318,-6.852271 13.545056,-9.150873 17.905347,-9.477187 4.033782,-0.301879 10.886407,1.040325 14.662401,5.230241 z m 270.644855,-5.225295 c 2.61659,-0.0853 7.17303,2.764388 8.74727,3.979602 1.36555,1.054116 3.54913,2.774664 4.66225,4.200777 1.92944,2.472219 2.14527,3.311543 -0.29611,1.208712 -2.93546,-2.528408 -5.22032,-4.288871 -7.74475,-5.614128 -1.10469,-0.579922 -3.31788,-1.697175 -4.48344,-2.071708 -1.62563,-0.522264 -3.79622,-1.608362 -0.88522,-1.703255 z m -218.717938,1.271988 c 5.309121,0.57994 10.749886,3.059763 15.400235,7.704147 -4.488476,-2.722611 -9.865603,-5.131814 -15.452251,-5.57657 -6.630763,-0.527879 -9.911893,1.077288 -14.649271,4.095444 -0.8467573,0.539464 -0.8241428,0.0084 -0.8850504,-1.265655 -0.056658,-1.185171 0.6844034,-1.478219 1.6666704,-2.005413 6.806712,-3.653243 9.84105,-3.397479 13.919667,-2.951953 z m 309.496888,-0.299438 c 5.27999,3.569882 3.20787,9.836672 0.18966,11.593608 -2.41215,1.40406 -4.29633,1.499904 -6.81613,0.44235 -1.58065,-0.66347 -2.1269,-3.032415 -0.67489,-4.790922 0.57627,-0.69791 2.11247,-1.071 2.59209,-0.293005 0.30323,0.495652 0.47886,2.266193 1.2237,1.497583 0.81046,-0.836326 0.4163,-2.183347 0.21342,-3.230811 -0.11181,-0.853316 -0.73605,-1.842568 -0.1726,-2.640149 1.45933,-1.318431 2.63393,-1.98457 3.44475,-2.578654 z m -48.01154,0.09612 c 0.8698,0.389545 2.1715,1.482757 2.53267,2.236556 0.34619,0.722972 -0.15238,2.028521 -0.94982,1.865002 -1.47996,-0.303475 -2.83751,-1.468762 -4.63744,-2.404504 0.8564,-0.640005 2.0198,-1.132026 3.05459,-1.697054 z m -5.37125,3.155879 c 0.71649,0.393596 2.73285,1.632789 3.5848,2.366264 3.19895,2.754099 7.97013,6.13968 14.3645,8.25221 0.73227,0.241907 1.17344,0.810557 0.0713,0.961181 -4.23267,0.578553 -8.98211,0.407086 -11.01948,0.303341 -1.91395,-0.09746 -3.26579,-0.367842 -4.8271,-1.490348 -0.91525,-0.658046 -1.43794,-1.765842 -1.69653,-2.550232 -0.20174,-0.73713 -0.4095,-1.958096 -1.27796,-1.968356 -0.96737,-0.01143 -1.98832,2.698114 -1.34411,4.018876 0.32034,0.656784 0.77937,1.906289 -0.18035,2.135271 -1.49479,0.356626 -3.08453,0.140085 -4.593,0.46147 -0.99669,0.212329 -0.52784,1.571912 0.26045,1.752865 1.61932,0.671174 3.33373,0.721854 5.25808,0.32091 0.008,0.766799 -0.16109,1.927336 -0.11059,2.692859 0.061,0.923904 0.37959,2.116391 1.46399,2.317688 0.9504,0.176423 1.55281,-0.611908 1.6459,-1.465027 0.23224,-2.128312 1.42025,-4.178857 3.48764,-4.364074 2.71253,-0.243014 9.04009,0.377371 14.42393,-0.432015 0.78054,-0.117378 1.54138,0.819876 0.61236,1.148767 -7.54267,2.670264 -13.73123,8.277746 -19.28151,11.401888 -4.87392,-2.58373 -11.12178,-6.741333 -14.87713,-12.015804 3.73389,-5.389622 8.44659,-9.77573 14.0348,-13.847734 z m -63.81109,0.205672 c -0.11593,-3.47e-4 -0.23371,0.0033 -0.35295,0.01085 -0.95386,0.06061 -1.99104,0.373831 -2.7528,0.927075 -3.12448,2.269144 -1.91985,4.999772 -0.56896,6.848677 0.95821,1.311469 -0.15377,1.942585 -0.75757,2.234489 -0.96488,0.466371 -2.10396,0.240966 -2.76779,-0.151412 -1.16746,-0.689876 -1.44279,-1.774526 -1.7508,-2.947107 -0.29342,-1.117056 -1.32364,-1.116399 -2.15646,-0.485758 -1.2216,0.925046 -1.44307,2.509252 -1.53996,3.905188 -0.0999,1.439802 -0.0831,3.053115 0.84543,4.263822 0.72189,0.941244 1.65165,-0.670014 2.67684,0.655774 0.54162,0.700447 1.43896,0.696332 2.22002,0.729671 1.02101,0.04358 1.35774,0.312708 1.58285,0.586011 -1.54715,1.020127 -5.99465,1.316366 -7.75922,0.742591 -2.95728,-0.961632 -4.84726,-2.757889 -5.81463,-4.294312 -0.68267,-1.08426 -1.06714,-1.754348 -0.24753,-2.660303 0.67861,-0.750099 2.64493,0.418379 3.40031,-0.202571 0.39161,-0.321927 0.24002,-1.443638 0.28112,-2.209168 0.0987,-0.794286 0.0456,-1.974722 0.92346,-2.29185 0.63689,-0.23012 1.49394,-0.36406 2.23758,-0.584977 0.92623,-0.275104 1.35553,-1.209995 0.45114,-1.791105 -0.79413,-0.494957 -1.73121,-0.643487 -2.66185,-0.675411 -1.13746,-0.03902 -2.94183,0.353962 -3.33055,1.313098 -0.59001,1.45581 -0.7093,2.587187 -0.73174,4.153235 -0.0115,0.801412 -1.46828,0.826413 -1.757,1.514636 -0.33386,0.795795 -0.0597,1.234713 -1.03249,1.77922 -0.61192,0.342515 -2.75392,1.489361 -2.96519,-0.377238 -0.42207,-0.805528 -0.34155,-1.814471 -0.9245,-2.533179 -0.62209,-0.667842 -1.65157,-0.262656 -2.34301,-0.818038 -0.63249,-0.45378 -1.29699,-1.025909 -2.13837,-0.896586 -1.35894,0.179064 -2.75284,0.498265 -3.91552,1.258321 -0.48679,0.369408 -1.84567,1.099994 -0.96945,1.722893 0.65207,0.531874 1.51718,0.166439 2.25774,0.538468 0.73073,0.294845 1.76892,0.330353 2.1177,1.154968 0.45718,1.016247 0.76939,2.107211 1.44694,3.012736 0.58864,0.790995 1.16783,1.727666 2.11357,2.11615 0.47926,0.07891 0.96563,0.106362 1.45004,0.133842 0.64367,0.04054 2.12613,0.155546 1.81591,-0.882117 -0.33396,-0.68955 -1.24979,-2.418418 -0.38654,-2.738334 1.76673,-0.65473 2.49765,-0.907884 3.13159,-1.364774 1.65858,4.26082 5.63732,6.501448 8.63048,6.8833 1.3915,0.177517 4.68429,0.0065 6.75721,-0.777213 -1.1709,0.957574 -1.48225,2.932538 -0.80046,3.98787 0.73028,1.130397 1.82171,2.191029 2.88509,2.698027 1.99594,0.951612 4.13271,1.488359 6.08542,1.265556 0.69826,-0.07968 2.06397,-0.18592 2.00866,-1.160653 -0.0493,-0.869235 -1.38332,0.05857 -2.94246,-0.651123 -0.93526,-0.425787 0.14178,-1.679534 0.27492,-2.396236 0.22355,-1.203373 -0.71383,-2.113273 -1.36891,-2.978113 -0.42583,-0.562401 -1.64294,-1.525444 -0.85317,-2.152324 0.74828,-0.593934 1.44574,0.314016 2.07687,0.723987 2.28606,1.485023 5.16304,2.641823 7.48533,2.552299 5.27879,-0.203482 7.80841,-2.404104 9.99991,-5.848738 0.51924,-0.816161 1.32891,-1.284552 2.24172,-1.263489 0.9897,0.02284 1.32954,0.866585 0.81442,1.701188 -0.3651,0.591546 -0.9772,1.399856 -0.46353,2.109949 0.74497,1.029856 2.23196,1.078153 3.20755,0.473873 1.06187,-0.657737 1.9856,-1.631652 2.51665,-2.754354 0.34607,-0.731979 0.73629,-1.414593 1.28364,-1.998328 1.47339,-1.571306 2.71525,-0.889557 3.79305,0.985987 0.57775,1.005358 1.78427,0.372626 1.53582,-0.819072 -0.70846,-3.398138 -2.21758,-4.157083 -4.69739,-4.819344 -3.58461,-0.957359 -5.31957,2.736564 -6.91792,2.835486 -0.81611,0.05051 -1.43999,-0.955507 -1.46709,-1.773019 0.0788,-1.304608 -0.44318,-2.54054 -1.13327,-3.611665 -1.72304,-2.674425 -3.53958,-2.847596 -5.38778,-2.731617 -1.63584,0.102666 -3.38814,0.911906 -4.6824,1.857768 -0.58681,0.428799 -1.17079,1.918096 -0.0961,1.854667 0.90808,-0.05361 1.7573,-1.268132 2.83703,-1.648478 2.46625,-0.868741 3.73713,0.865235 3.07165,3.355351 -0.25487,0.953686 -0.74693,1.692498 -1.17047,2.513542 -0.48948,0.948853 -0.23469,1.439569 0.92449,1.460375 0.68499,0.0123 2.03372,-0.23574 1.86294,0.821139 -0.66265,4.100774 -3.49371,5.493717 -6.60425,6.152079 -2.07497,0.439166 -4.42453,-0.531396 -6.33036,-1.351338 -0.6979,-0.300238 -2.9892,-1.586797 -0.3359,-1.257805 1.30942,0.162369 2.83754,-0.575979 3.50883,-1.212329 1.27226,-1.206046 1.798,-2.877795 1.64228,-4.517554 -0.12231,-1.286634 -0.79598,-2.424962 -1.70223,-3.292822 -0.96495,-0.924073 -2.4316,-1.514441 -2.23397,-0.412895 0.23177,1.291816 0.91705,2.567156 0.1757,3.196705 -0.94082,0.798923 -1.67548,0.266658 -2.61224,0.402559 -0.93449,0.135571 -1.66266,1.801478 -2.37867,1.317749 -0.80769,-0.545685 -0.29391,-1.726082 0.0553,-2.424141 1.39146,-2.781277 -1.37712,-3.538931 -0.062,-6.180502 0.35491,-0.712944 1.7276,-1.586005 1.13844,-2.214335 -0.37507,-0.399896 -1.08863,-0.597017 -1.90015,-0.599447 z m -2.21847,11.07271 c 0.34746,-0.02908 0.78083,0.196669 0.9369,0.470772 0.41609,0.730751 0.16778,1.490915 -0.50385,2.047937 -0.35605,0.295296 -1.02227,0.442399 -1.36684,0.150895 -0.68188,-0.576839 -0.7003,-1.018685 -0.43253,-1.768367 0.19155,-0.536287 0.78722,-0.852769 1.36632,-0.901237 z m 99.14382,1.763199 c 0.50967,0.0093 0.85604,0.10681 0.55966,0.38499 -1.30013,1.220254 -1.70836,2.918142 -2.05517,4.587317 -0.32457,1.883724 -0.24396,3.862842 -0.9462,5.662703 -1.47908,3.790925 -2.69771,3.874437 -6.97063,3.812687 -1.57675,-0.02278 -3.13907,-2.31941 -2.70991,-4.243151 0.15824,-0.710301 -0.23187,-1.357643 -0.90951,-0.777731 -0.89279,0.332652 -1.68244,1.160787 -1.56321,2.174028 0.13449,1.288695 0.68665,2.539612 1.48725,3.538802 2.16669,2.704399 10.5057,4.102446 13.73869,3.237528 2.05345,-0.549313 3.30253,-1.969692 3.57498,-4.20181 0.73945,-6.058157 -1.09079,-3.001591 -1.96112,-5.919019 -0.87336,-2.927587 -0.19982,-7.268762 1.86087,-7.751982 1.61344,-0.378373 3.30515,-0.146247 4.95421,-0.161747 0.68507,0.117121 2.97588,-0.09597 2.15698,0.532267 -1.86408,1.430065 -2.90247,4.272786 -2.45153,6.638872 0.71717,3.762902 4.67693,6.617935 9.8795,7.289477 -9.88568,9.368644 -30.07937,5.656471 -41.82949,1.988509 0.52056,-0.495223 1.19523,-1.055121 1.62574,-1.541508 0.50687,-0.572633 1.50046,-1.19207 1.37459,-1.989542 -0.10188,-0.646778 -2.07238,-1.232724 -3.14141,-1.264006 -1.33834,-0.03917 -3.51823,0.519773 -0.55397,-1.759066 7.00689,-5.386308 14.83537,-8.491761 22.34076,-10.09189 0.35627,-0.07596 1.02925,-0.154988 1.53892,-0.145728 z m 17.92811,1.093474 c 0.10821,-0.0022 0.21549,-0.0018 0.32194,5.17e-4 1.02189,0.02251 1.96154,0.24698 2.80293,0.502811 3.21878,0.978759 3.82355,8.079368 0.10852,10.860836 -0.90402,-0.05516 -2.63268,-1.8191 -2.99465,-3.074231 -0.24374,-0.845158 -0.62417,-1.644193 -1.22525,-2.268595 -0.73211,-0.760537 -1.98077,-0.437202 -1.75389,0.534851 0.18188,0.779262 -0.39813,2.119849 -1.41387,1.910994 -2.14001,-0.440008 -3.47788,-4.107554 -1.24437,-6.110738 1.95528,-1.75364 3.77541,-2.32306 5.39864,-2.356445 z m -73.52006,6.00015 c 0.50493,-0.0019 -0.18965,1.172068 -1.97818,2.805514 -2.35998,2.155493 -6.54004,3.901595 -9.19478,4.495849 -2.20843,0.49433 -8.63229,0.586674 -10.13737,-0.607198 -1.08285,-0.858942 0.6359,-1.267735 1.53014,-1.029911 2.54429,0.676631 6.65353,0.603943 10.08414,-0.335897 2.4009,-0.657738 5.75068,-2.453118 7.46879,-3.900537 1.18965,-1.002217 1.92429,-1.426686 2.22726,-1.42782 z m -61.80553,3.704684 c 0.0293,-7.52e-4 0.0579,8.02e-4 0.0853,0.0041 0.76752,0.09517 0.79229,1.77424 0.2465,2.057755 -4.91116,2.55124 -14.45433,2.112021 -18.90737,-1.60972 7.40726,1.665394 12.01426,2.283487 18.2857,-0.38344 0.10535,-0.0448 0.20189,-0.06647 0.28991,-0.06873 z m 86.73475,5.762439 c 1.05094,0.494137 2.24826,0.911627 3.64733,1.282092 -1.9626,1.655214 -5.17654,2.810815 -7.56337,2.840137 -2.35634,0.02895 -0.13907,-0.955008 0.68678,-1.483631 1.11977,-0.716563 2.26084,-1.725092 3.22926,-2.638598 z"
         sodipodi:nodetypes="csscscssssccccccssscscscssscsccccccccscsssssscscssssssssssssscccsssssscsccssccscscssscssscsssccssssssssccccsssssssssssszsssssssssscsssssssssssssssssssszssssssssssscssssssscccsscssscsccccccccssscscssscscscccsscsccscscccscccsscsssccsscccsscsccscsssccccccsccccccccscssssscscccscccsccsssssssccsssssscccsccsccsscssscsssscsccsssssccccccccccccscscsssscscsssssssscssssscssssssssssssscssssscscsssssssssccscccssssscssccscscssscscssssssscsssssscsccsscccccccsccccsc" /><path
         id="path2242"
         style="fill:#000000;stroke-width:1"
         d="m -11.305925,-88.435147 c -0.70912,1.55352 -1.145688,4.19075 0.79927,5.62262 1.0768785,0.79279 0.9694742,2.51386 -0.651999,2.23923 -3.423601,-0.57986 -3.573402,-2.28847 -3.234772,-3.70206 0.455517,-1.90153 -1.673291,-1.98077 -2.745907,-0.49679 -1.186822,1.64198 -1.474781,3.9432 -1.176881,5.85079 0.24308,1.55656 1.380048,2.14817 2.620523,2.67829 0.98478,0.67101 4.109438,0.18987 2.854465,1.12639 -2.558583,1.90933 -7.281668,1.77559 -9.34626,-0.0951 -1.12279,-1.01731 -1.844827,-2.7642 -0.0561,-3.45689 1.435455,-0.55589 1.114135,-2.15292 -0.148349,-2.99618 -1.515222,-1.01207 0.440774,-2.29778 1.854314,-2.28675 1.562457,0.0122 1.093773,-1.69499 -0.532568,-2.0844 -1.830095,-0.4382 -3.992381,-0.002 -5.282403,1.52236 -0.973685,1.15073 -1.721944,4.09813 -0.506223,5.85746 0.812129,1.17527 -0.58909,1.36289 -1.287001,0.14455 -0.908292,-1.58559 -2.360637,-4.37357 -3.585418,-5.34042 -0.974738,-0.76947 -2.029791,-1.60932 -3.274877,-1.8283 -1.554837,-0.006 -2.684499,1.22068 -3.843886,2.07983 -0.984921,0.69384 -0.689108,3.17396 0.7653,2.11454 1.596709,-0.76211 2.951898,0.92306 3.678658,2.14988 0.920562,1.54065 1.010982,3.46147 2.063889,4.92552 1.133826,1.00244 3.420345,2.3141 4.539023,1.15324 0.971579,-1.00822 1.096854,-3.83853 2.298473,-2.67009 3.766205,3.66221 7.350719,4.35052 13.191615,2.33698 0.94757,-0.32666 2.5789784,-1.01327 2.191065,0.55425 -0.476213,1.27391 -1.34151,2.56305 -0.922194,3.98987 0.678254,1.99513 2.6455964,3.3135 4.6926402,3.56881 1.7593819,0.45566 4.0351228,0.92864 5.41152301,-0.54222 1.9207981,-2.05262 0.32854713,-2.51756 -1.39993201,-2.42445 -2.6998834,0.14544 -1.157648,-1.0405 -0.6032966,-2.79539 0.6464746,-2.04653 -0.5654088,-3.03915 1.6653726,-1.13339 1.59683864,1.36418 3.8471845,1.70869 5.9039925,1.93722 2.4731429,0.24327 5.1616502,-0.60976 6.6131053,-2.72823 0.740124,-1.09237 1.625712,-2.02733 2.706763,-2.77957 0.918928,-0.70286 1.970771,-1.69142 3.214816,-1.44592 1.41423,0.53366 0.416975,1.8149 -0.34631,2.65877 -1.154501,1.27639 1.107344,1.57295 2.560555,1.16689 1.537132,-0.42951 3.585977,-0.65462 4.847918,-1.85083 1.596954,-1.51378 2.307671,-3.90794 1.882649,-6.26256 -0.285248,-1.82148 1.944753,-2.03364 2.607527,-0.61855 0.487783,1.04147 2.60525,1.48018 1.961644,-0.18155 -0.710815,-1.41726 -1.812548,-2.78948 -3.296949,-3.44554 -2.132276,-0.9424 -4.873933,-0.33327 -6.2017,1.64225 -1.08925,1.20783 -0.98495,3.05131 -1.863162,4.31641 -0.746654,1.07559 -1.303016,-0.22389 -3.038562,0.15323 -2.422596,0.52641 -1.545592,-3.00057 -2.135069,-4.15122 -0.605816,-1.18255 -1.767513,-2.02538 -3.131493,-2.05673 -1.9422808,-0.0446 -4.0062123,1.12496 -4.4096929,3.17358 -0.2281091,1.1582 0.4861514,3.0256 1.8328082,2.58664 1.5785737,-0.51456 0.066515,-3.18902 1.7437837,-3.4151 1.595345,-0.21503 0.928688,1.80918 0.610574,2.83772 -0.39494,1.27694 -0.18346,2.64155 0.919134,3.49247 0.951903,0.73462 -0.838043,1.93315 -1.469061,2.59469 -3.4119167,3.57694 -7.968203,3.22248 -11.4505117,0.22296 -0.9074672,-0.78166 -0.017903,-1.24777 1.88697697,-1.03415 1.50010203,0.16823 2.16680433,-0.33805 3.26802913,-1.243 1.3428737,-1.10353 1.0113344,-3.26098 0.5154774,-4.7741 -0.4124437,-1.25858 -1.4029851,-3.39717 -3.0084797,-2.88708 -1.34975564,0.42884 -0.47038806,2.60086 -2.22712649,2.53204 -1.43286451,-0.0757 -2.94918361,1.93304 -4.06757591,0.60196 -1.094281,-1.30239 1.8152693,-2.77144 1.1371268,-4.42469 -0.9833704,-2.39737 -3.0767423,-1.56526 -2.2617178,-3.37115 0.4285086,-0.94947 3.3659422,-1.91289 2.0788536,-2.77835 -1.5877428,-1.06763 -6.6342873,1.76467 -7.4123873,3.46931 z m 4.089987,9.25557 c 1.2045192,-0.31875 1.7286085,0.78612 1.6765471,1.73312 -0.052061,0.947 -0.6802734,1.73613 -1.7803569,0.7859 -0.3551025,-0.30673 -0.6117727,-0.8617 -0.6383559,-1.37738 -0.026583,-0.51568 0.1769204,-0.99207 0.7421657,-1.14164 z m 31.046781,0.74162 c -0.130244,1.61114 -0.560191,1.93445 -1.348559,2.17112 -0.788369,0.23666 -1.526923,-0.24466 -0.539236,-1.78421 0.103725,-0.16169 0.416518,-0.3957 0.6969,-0.60855 0.727456,-0.55226 1.248356,-0.48917 1.190895,0.22164 z"
         sodipodi:nodetypes="sssssssssssssssssssssssssssssssssssssssssssssssssssssssssssssssssssssssssss" /><path
         id="path2785"
         style="opacity:1;fill:#000000;fill-opacity:1;stroke:none;stroke-width:3;stroke-linecap:round;stroke-linejoin:round;paint-order:stroke fill markers"
         d="m -131.19251,-108.29168 c -2.39076,0.46535 -3.71149,3.51449 -2.68614,5.61929 1.3437,2.758273 4.14374,4.561973 6.65489,5.163513 2.15258,0.515644 5.29956,0.361088 6.48901,2.036052 0.53907,0.759111 -0.11551,1.792101 -1.04335,1.515153 -0.84966,-0.25361 -1.35984,0.440265 -1.8715,0.997479 -0.18839,0.205161 -0.64835,0.832381 -0.62903,1.191312 0.0497,0.923918 0.21903,1.66965 0.97711,2.501878 0.4498,0.493799 1.16231,-1.205058 2.05879,-1.197343 2.04336,0.01759 3.22633,0.944093 2.59407,3.759242 -0.27938,1.243968 -0.52064,2.336803 -1.89334,2.958695 -0.51088,0.231449 -1.10974,0.142944 -1.65984,0.146244 -0.86045,-0.0763 -1.77154,-0.08267 -2.6107,-0.306441 0.6778,0.628033 1.483,1.869691 0.17519,4.062284 -2.12668,3.157454 0.4762,-0.484475 0.91157,-0.577226 0.35917,-0.07094 0.71993,-0.104203 1.08159,-0.112654 1.08497,-0.02535 2.17847,0.17193 3.26078,0.241845 -0.0107,0.903506 -0.008,1.807203 -0.0388,2.710946 -0.0334,0.967695 -0.91293,1.824984 -1.92184,1.606103 -0.6907,-0.149846 -1.92301,-0.838427 -2.06551,0.310059 -0.13701,1.104231 0.77024,2.025858 1.52755,2.747119 0.54437,0.51846 2.04603,0.731321 1.77612,1.581816 -0.31411,0.989777 -1.16227,1.975999 -2.62797,2.120329 -3.11751,0.306985 -5.35486,0.84799 -8.36894,2.338211 -1.88266,0.930829 -3.33987,1.898543 -2.79271,3.849989 0.55214,1.969247 1.90532,0.766634 5.61317,-0.829489 2.0924,-0.900716 2.98106,-1.640138 7.54975,-2.403241 3.32381,-0.555173 3.9136,-4.343245 2.43627,-6.301559 -0.58556,-0.776207 0.19014,-1.619929 0.4284,-2.34766 0.37688,-1.151126 0.28042,-2.514109 0.33417,-3.697368 0.0923,-2.031177 0.11948,-2.718819 2.30069,-0.718797 1.89193,1.734774 3.03136,2.844305 3.46106,5.426236 0.16513,0.992222 -0.47977,1.82428 -1.51325,1.790791 -1.10859,-0.03592 -1.042,1.261752 -0.75293,2.083077 0.44324,1.259364 1.16166,2.370878 2.02572,3.350183 2.69414,3.05348 6.34813,3.017419 10.0862,2.781226 1.70951,-0.108017 3.276569,-0.910967 4.563031,-1.818494 1.13941,-0.80379 -0.290414,-1.013034 -1.1436,-0.859896 -2.056571,0.369134 -5.066871,0.10614 -6.476611,-1.30948 -2.51258,-2.52307 -3.3343,-6.193001 -5.5118,-8.936406 -1.07744,-1.357456 -2.59716,-2.445911 -3.7915,-3.358451 -0.5142,-0.392879 -0.36598,-1.010905 0.16071,-0.96945 4.4314,0.348792 8.42664,0.623707 11.96999,1.794528 2.824391,0.933257 8.499242,3.50325 11.676628,5.358011 0.864492,0.504637 0.433394,1.634441 -0.54932,1.892908 -1.115977,0.293516 -1.811964,1.797313 -1.267623,2.817399 0.667922,1.251675 1.948875,2.14133 3.0891,2.763139 3.26642,1.781305 8.69807,5.438883 13.487146,6.350001 4.495491,0.855263 9.122366,1.051661 13.677718,0.648022 3.309145,-0.293216 5.740955,-0.894767 7.414535,-3.744991 0.486221,-0.828068 0.04808,-1.898644 -0.751376,-2.335775 -0.988666,-0.540591 -1.797841,-0.499461 -2.904048,-0.620865 -0.743857,-0.08164 -2.553261,0.876739 -1.407316,1.153132 0.867399,0.20921 2.057543,-0.09744 2.604492,0.763778 0.573387,0.902844 -0.665778,1.793088 -1.493449,1.918746 -3.682366,0.55906 -6.71066,0.439573 -10.037114,-0.603064 -5.193986,-1.627992 -10.886359,-7.451845 -16.725734,-10.395172 -3.573783,-1.801358 -8.761769,-3.746046 -12.598064,-5.839501 -0.43813,-0.239086 -2.458795,-1.298219 -1.210262,-1.339453 4.812876,-0.15895 9.445269,0.01859 13.956299,0.06666 0.820527,0.0087 1.446452,0.5161 2.111638,1.029319 0.6797,0.524417 0.726151,1.836486 0.717085,2.651079 -0.01103,0.990777 0.774827,1.042458 1.447457,0.401009 0.596543,-0.56889 1.136067,-1.673885 0.863705,-2.656594 -0.220662,-0.796168 -0.66103,-1.500477 0.08446,-2.043985 0.73856,-0.538452 1.863883,-0.422724 2.748762,-0.09964 0.799762,0.292002 1.741261,-0.02913 0.797884,-1.096057 -0.685571,-0.775358 -1.597935,-0.984951 -2.368848,-0.498677 -0.84072,0.530307 -1.919216,0.02237 -2.411222,-0.66921 -0.480109,-0.674862 0.145655,-1.29392 0.04118,-2.064736 -0.101425,-0.748338 -0.619941,-1.465553 -1.331867,-1.878874 -1.775182,-1.030613 -0.545645,1.257663 -0.841591,2.217891 -0.490227,1.590595 -1.280394,2.619192 -2.610252,2.891778 -3.545383,0.72671 -8.238533,0.397 -12.723441,-0.09535 4.724893,-2.66713 11.533237,-6.025547 14.977231,-9.506371 3.832749,-3.873736 9.37834,-8.449392 13.95522,-9.464552 2.623168,-0.58181 5.382386,0.0201 6.627503,2.370928 0.480802,0.907769 -0.229819,1.514147 -1.141016,1.447457 -1.287253,-0.09421 -0.06526,1.097682 0.540019,1.284676 0.955919,0.295319 2.217867,0.82203 2.995683,-0.0708 0.87073,-0.999479 -0.190437,-3.667691 -0.677478,-4.533061 -1.907796,-3.38977 -5.033741,-4.84029 -7.576282,-4.89841 -3.548288,-0.0811 -8.265972,0.91449 -11.546065,2.68666 -5.372194,2.90249 -7.723057,5.036254 -11.683525,8.036205 -0.940221,0.712192 -0.582983,1.256517 0.448552,1.711006 0.862938,0.380207 1.530508,0.614822 1.944584,1.521354 0.391779,0.857721 -0.436161,1.779009 -1.091407,2.293917 -3.758289,2.953362 -8.656924,6.207089 -14.464741,6.918441 -2.1655,0.265234 -4.39302,0.512739 -6.51382,-0.186035 -1.17222,-0.386229 -0.10649,-0.945069 1.17286,-2.065998 1.76559,-1.546955 2.47133,-3.963431 2.89873,-6.028082 0.39728,-1.919118 0.54559,-4.526136 2.68749,-5.432686 1.66246,-0.703627 4.80849,0.08827 5.382295,2.343469 0.166704,0.655191 0.827452,1.998897 1.581299,1.167887 0.886171,-0.97688 0.369955,-2.501069 -0.445968,-3.340364 -2.324646,-2.391239 -5.804596,-3.037064 -8.709026,-2.380217 -3.68287,0.832895 -3.31404,3.203182 -4.97178,5.531963 -0.49043,0.688949 -0.91507,1.649324 -0.29869,2.478401 0.42457,0.571074 1.57656,0.661842 1.37097,1.383378 -1.89674,6.656624 -6.79213,6.583381 -5.9916,4.631208 2.00295,-4.884398 1.29399,-11.840385 -3.46399,-13.947823 -3.82027,-1.692104 -7.4821,-2.039604 -8.48284,-5.328004 -0.23045,-0.75726 1.01477,-0.9886 1.57407,-1.4981 0.63139,-0.57518 1.21202,-1.6291 0.41857,-2.23139 -1.25728,-0.95437 -2.61259,-1.05344 -4.03988,-0.77563 z m 50.99587,10.689106 c -0.716986,1.276736 -2.459286,2.350255 -3.531583,3.254845 -3.118941,2.631139 -3.874986,2.674772 -4.39833,1.821311 -1.069488,-1.744102 -0.48826,-1.996537 1.530572,-2.927691 2.157214,-0.99498 3.886806,-2.453674 5.411355,-3.296888 0.80904,-0.447472 1.931856,-0.532327 0.987986,1.148423 z m -1.929616,27.72158 c 2.507385,1.679827 4.797461,3.635462 7.588406,5.569608 0.590968,0.409546 2.246427,1.482088 1.800298,1.73575 -0.720578,0.409709 -2.132162,-0.172117 -3.160141,-0.593293 -5.231987,-2.143614 -8.840504,-4.5049 -12.088179,-7.508903 -0.876287,-0.810539 0.386278,-2.314963 1.365742,-1.889999 0.623424,0.270488 3.382986,1.942596 4.493874,2.686837 z m -29.088664,-0.153491 c 0.17608,-0.0096 0.52936,0.244601 1.12603,0.923975 0.3418,0.528619 0.73658,1.090924 0.91933,1.657263 -0.71017,1.369581 -2.50837,-2.110877 -2.13579,-2.53938 0.008,-0.0084 0.009,-0.04066 0.0258,-0.02222 v 5.17e-4 c 0.0181,-0.01166 0.0394,-0.01878 0.0646,-0.02015 z"
         sodipodi:nodetypes="sssssssssssccccscsssssssssssssssssssssssssssssssssssssssssssssssssssssssscsssssssssssssssssssssssssssssssssssssssssssscccsccsc" /><path
         id="path2944"
         style="opacity:1;fill:#000000;fill-opacity:1;stroke:none;stroke-width:3;stroke-linecap:round;stroke-linejoin:round;paint-order:stroke fill markers"
         d="m 97.485006,-97.782662 c 0.0033,0.0072 0.005,0.01498 0.0083,0.02222 l 0.0062,-0.0031 c 0,0 -0.0129,-0.01713 -0.01447,-0.01912 z m -209.713526,-5.116728 c 6.61271,-0.0204 12.861388,0.64917 18.577419,2.8836 11.497755,4.494534 19.836589,11.19983 24.29403,15.657271 3.942836,3.942836 7.420185,8.919545 10.984085,13.53385 2.546531,3.297082 7.294675,5.86903 11.984716,7.640657 1.979076,0.747581 1.93213,1.243379 0.14407,1.620323 -1.571578,0.331307 -1.941482,1.226582 -2.679423,2.141471 -0.475917,0.590036 -0.66596,1.830857 0.322978,1.77767 1.23639,-0.06649 2.188099,-1.335042 3.423047,-1.292945 1.128685,0.03848 1.975562,2.120635 6.529913,1.642839 5.266033,-0.552459 3.041871,-2.80714 5.341197,-3.237057 4.681224,-0.875272 6.430776,-1.901289 8.987565,-3.823539 0.638618,-0.480127 1.594504,-1.110919 2.375566,-0.588078 1.366154,0.914499 2.077663,2.522915 3.349666,3.556372 3.279526,2.664498 7.619442,4.440077 11.804964,4.350125 5.88657469,-0.126509 12.0819753,-2.60047 14.573734,-7.89332 0.4428123,-0.940596 0.8997176,-2.443153 1.5575811,-1.616693 1.4674349,1.843508 3.0225549,3.475039 4.9622229,4.492689 4.791356,2.513793 8.449509,2.588452 14.616944,2.258836 0.755432,-0.04037 1.612978,0.04019 2.051037,0.943612 0.964958,1.990067 3.441598,2.726534 5.369182,2.428794 1.71315,-0.264618 2.561779,-2.003326 3.891752,-2.919201 1.095937,-0.754708 2.455972,-0.195983 3.633887,0.02429 0.664918,0.124341 2.876241,0.302957 2.093412,-0.496094 -0.651618,-0.665121 -1.509437,-1.334103 -2.385384,-1.794723 -0.7286,-0.383138 -1.590931,-0.836632 -2.235523,-1.424202 -0.505789,-0.461045 -1.404985,-1.443171 -0.58291,-2.019515 2.507603,-1.75804 6.455388,-6.598537 7.528522,-9.19513 3.00862,-7.279763 8.38927,-13.241406 13.874471,-18.177054 4.392783,-3.952678 8.036608,-6.382368 12.213452,-8.612548 3.159491,-1.68698 7.040991,-2.21691 8.384092,-1.64605 2.416227,1.02696 0.534235,3.572557 3.518649,3.784786 1.604044,0.114068 2.516757,-0.788463 2.957959,-1.353406 0.497085,-0.6365 0.76569,-1.37131 2.030367,-1.27383 2.185998,0.1685 4.78318,1.901591 5.978963,3.394631 1.245895,-0.432522 2.67424,-1.835592 1.149284,-2.742471 -5.930363,-3.52674 -8.57124,-4.75017 -11.338172,-5.15524 -10.555367,-1.54529 -18.06265,4.5639 -25.326554,11.087415 -6.435965,5.779965 -11.201524,12.307214 -17.362592,19.906097 -1.683502,2.076383 -6.479375,6.628008 -9.288414,7.820379 -6.744001,2.86267 -11.086658,2.428912 -16.584029,1.953439 -2.83727,-0.245398 -6.427697,-0.839629 -8.054567,-3.657451 -1.5613819,-2.704393 -2.6210023,-2.74643 -3.4602537,-0.491961 -0.882399,2.370376 -1.8041323,4.271376 -3.5201986,5.87561 -3.95950572,3.701473 -8.2396542,5.050537 -12.6281697,3.939811 -5.868579,-1.485328 -9.407886,-3.621611 -11.893848,-8.731767 -0.340322,-0.699568 -0.645418,-1.513367 -1.277958,-1.982307 -1.157971,-0.858475 -1.801483,0.883309 -2.575553,1.498616 -3.231993,2.569107 -8.277075,2.397077 -13.852385,1.558044 -7.798844,-1.173654 -16.639872,-4.922319 -20.583918,-9.584251 -2.226624,-2.63191 -3.081743,-4.238786 -12.057414,-11.985201 -10.556578,-9.11081 -23.85429,-18.485383 -38.055131,-18.485383 -12.89743,0 -19.04823,3.65052 -22.78879,9.892854 -1.92069,3.205292 -1.14896,9.231918 1.0185,12.02569 0.9723,1.253257 1.69265,1.783056 2.95476,3.226335 -0.0546,1.822967 3.22594,1.424575 4.47894,0.643646 0.26134,-1.194905 -0.40086,-1.955254 -1.00924,-2.37815 -0.20417,-0.05428 -0.4051,-0.118223 -0.59841,-0.204121 -2.38692,-2.827995 -3.87189,-6.005482 -2.6968,-10.952112 1.38011,-5.809682 9.8083,-7.827212 15.87871,-7.845952 z m 71.095326,37.193939 c 6.526387,1.335774 11.021152,1.553768 16.136646,-0.734969 -1.712108,2.199377 -5.344722,3.954073 -7.714117,4.030792 -11.089072,0.359054 -20.130109,-4.393182 -25.197888,-10.581447 5.559706,4.474208 10.714869,6.045206 16.775359,7.285624 z m 79.452819,0.146662 c -1.903345,2.048606 -3.519669,2.664134 -5.670403,3.247952 -3.150599,0.855232 -8.144307,1.109623 -11.158349,0.651672 -2.760599,-0.419444 -5.863615,-1.046001 -7.869399,-3.002502 4.257326,0.999793 6.075837,1.692173 13.123147,1.632442 3.949264,-0.03347 7.662876,-1.647977 10.776086,-3.316076 0.767072,-0.411007 1.291512,0.256324 0.798918,0.786512 z"
         sodipodi:nodetypes="cccccsssssssssssssssssssssssssssssssssscsssssssssssssssssssccccssscscsssscsss" /></g></g></svg>
