<?xml version="1.0" encoding="UTF-8" standalone="no"?>
<!-- Created with Inkscape (http://www.inkscape.org/) -->

<svg
   width="1271.666mm"
   height="920.40967mm"
   viewBox="0 0 1271.666 920.40967"
   version="1.1"
   id="svg5"
   xml:space="preserve"
   inkscape:version="1.2.2 (b0a8486541, 2022-12-01)"
   sodipodi:docname="tp1.svg"
   xmlns:inkscape="http://www.inkscape.org/namespaces/inkscape"
   xmlns:sodipodi="http://sodipodi.sourceforge.net/DTD/sodipodi-0.dtd"
   xmlns="http://www.w3.org/2000/svg"
   xmlns:svg="http://www.w3.org/2000/svg"><sodipodi:namedview
     id="namedview7"
     pagecolor="#ffffff"
     bordercolor="#000000"
     borderopacity="0.25"
     inkscape:showpageshadow="2"
     inkscape:pageopacity="0.0"
     inkscape:pagecheckerboard="0"
     inkscape:deskcolor="#d1d1d1"
     inkscape:document-units="mm"
     showgrid="false"
     inkscape:zoom="0.13086758"
     inkscape:cx="2227.4424"
     inkscape:cy="1887.404"
     inkscape:window-width="1920"
     inkscape:window-height="1011"
     inkscape:window-x="1280"
     inkscape:window-y="0"
     inkscape:window-maximized="1"
     inkscape:current-layer="layer1"><inkscape:grid
       type="xygrid"
       id="grid2495"
       originx="843.62178"
       originy="1758.3121" /></sodipodi:namedview><defs
     id="defs2" /><g
     inkscape:label="Ebene 1"
     inkscape:groupmode="layer"
     id="layer1"
     transform="translate(843.62181,1758.3121)"><g
       id="g5655"><path
         id="path1142"
         style="opacity:1;fill:#000000;stroke:#ff2a2a;stroke-width:0.02;stroke-linecap:round;stroke-linejoin:round;paint-order:stroke fill markers"
         d="m -329.49513,-1651.9069 c -8.01688,0.409 -18.56081,9.095 -17.93121,17.016 0.63064,7.9341 5.43335,12.9194 11.09286,17.0563 2.37043,1.7327 5.07047,3.4599 7.83932,2.8138 4.58832,-1.0706 2.3964,-4.2115 0.339,-6.703 -2.42134,-2.932 -1.61938,-7.2395 0.0713,-10.374 3.89387,-7.2191 10.07128,-8.954 16.57832,-3.9367 7.24099,5.5832 9.09403,26.4012 1.89911,32.5748 -9.66097,8.2893 -24.37137,10.1404 -35.43815,5.6906 -14.81156,-5.9555 -24.97579,-10.244 -41.88013,-11.82 -9.43193,-0.8794 -20.85624,7.1358 -25.71523,13.5031 -6.56786,8.6066 -11.71637,14.8072 -13.06277,24.3235 -2.69362,19.0389 -0.56277,32.8786 7.44658,47.9899 3.27605,6.181 -2.1737,4.8817 -5.22501,4.6229 -19.21068,-1.629 -48.94058,-5.2125 -65.71898,-17.048 -10.58786,-7.4687 -18.77256,-20.5652 -21.6638,-31.6038 -1.81876,-6.9439 0.93856,-14.2873 4.73718,-20.1925 2.89311,-4.3908 6.3205,-8.6992 11.09596,-11.1363 8.54961,-4.5116 19.77966,-4.18 27.59884,1.7368 3.07094,2.3239 5.43734,5.6085 6.29625,9.4005 1.82636,8.0633 -1.9979,17.2584 -9.44852,21.1393 -1.37487,0.7162 -3.43105,0.3287 -4.13514,-0.909 -2.18918,-3.8482 2.6942,-8.8082 1.46037,-12.1672 -1.23482,-3.3617 -5.46867,-4.7346 -8.90643,-4.0788 -4.15741,0.7931 -7.6573,4.1463 -8.50956,8.4165 -0.79888,4.0027 0.20792,8.3496 3.17448,11.0417 8.22213,7.4613 18.93129,5.1939 26.23665,-1.3219 8.15119,-7.2703 8.12978,-15.7433 6.61044,-24.9292 -1.58966,-9.6111 -9.99914,-16.4793 -19.26807,-21.3295 -12.76983,-6.6819 -32.39452,-0.1046 -40.50554,4.5548 -3.02217,1.7361 -4.90668,-4.3518 -6.92361,-6.874 -6.35538,-7.9474 -15.30821,-9.1705 -22.69577,-11.6541 -4.31756,-1.4515 -9.91288,-5.8336 -12.03906,-8.6728 -4.19132,-5.5968 -8.09144,-7.8013 -13.10772,-10.9218 -6.21967,-3.8691 -13.96401,1.0409 -10.727,3.9568 7.98954,7.1969 14.54137,16.1766 15.19959,26.0548 0.55912,8.3911 -3.10104,10.0246 -3.4618,22.1857 -0.34459,11.6164 3.96222,11.5176 2.37195,16.8951 -2.5659,8.6764 -10.12904,14.9735 -12.58528,22.3898 -2.06031,6.2208 -2.77286,14.141 0.0103,19.6242 3.2864,6.4745 9.37931,12.274 15.48536,16.4584 5.00597,3.4305 11.61762,3.6863 17.24753,1.8309 6.15832,-2.0296 11.46533,-7.0002 13.10824,-13.4405 1.77358,-6.9526 -4.10753,-14.6353 -10.19421,-12.8117 -3.75176,1.1241 -6.48926,7.0413 -4.21421,9.9834 1.5335,1.9831 4.0307,3.2267 4.92321,5.6586 0.49038,1.3362 -0.30687,2.5955 -1.61024,3.1941 -4.50562,2.0692 -9.7481,1.5319 -14.07252,-0.5126 -7.10026,-3.3568 -11.60402,-7.8685 -9.71879,-15.8306 1.18573,-5.0078 3.8706,-9.5462 6.97425,-13.6043 3.57176,-4.4749 8.4094,-8.4487 14.24255,-9.2703 1.99406,-0.3306 4.0001,-2e-4 5.96656,0.3122 8.62953,0.7778 17.42448,3.7576 23.643,9.7358 11.1867,10.7543 13.17612,28.6605 11.39207,42.0383 -3.25302,24.3924 -15.81114,44.7584 -24.79849,64.9924 -2.0223,4.553 -4.56922,13.0693 -6.9019,17.7043 -5.0855,-13.1048 -14.88936,-25.9949 -26.31984,-31.489 -14.75078,-7.0901 -23.48966,-7.9919 -38.70979,-7.4574 -7.74717,0.2721 -15.9664,4.349 -24.46827,8.7865 -5.59135,2.9185 -12.11196,7.2777 -13.95677,13.2292 -4.5392,14.6439 -5.38065,30.0408 -9.21959,44.8551 -5.18068,19.992 -9.57772,27.3005 -20.04012,37.1492 -8.24307,7.7595 -15.21997,10.8364 -23.15725,10.1611 -8.5225,-0.7251 -17.72844,-8.2677 -15.16135,-17.5229 1.3919,-5.0183 4.93841,-9.674 9.93118,-11.3435 3.13364,-1.0478 7.31407,-0.713 9.34723,2.1342 4.24236,5.9408 -1.55915,10.1174 -4.26382,8.846 -3.67681,-1.7283 -9.81288,-0.8775 -1.72806,4.4173 4.91065,3.216 9.87572,0.8175 12.78837,-0.9622 5.57307,-3.4054 4.14823,-14.0829 0.63252,-17.9163 -3.51351,-3.831 -8.97413,-5.387 -14.05392,-5.0529 -6.96651,0.4582 -14.33482,4.2757 -16.93644,10.9384 -3.6109,9.2475 -1.13722,19.7682 4.94957,25.9942 6.34982,6.495 15.11705,9.5115 23.41046,7.0616 8.80871,-2.6021 18.24608,-7.4416 24.54114,-12.7103 17.29455,-14.475 28.85128,-26.9255 33.97002,-46.9491 0.49498,-1.9363 3.31305,-3.1515 5.21983,-2.2035 6.90555,3.4331 10.78499,6.6304 18.05833,6.7707 12.96192,0.2501 25.1029,-8.0239 28.39517,-19.4087 1.61703,-5.5916 0.57695,-11.7262 -3.70779,-15.4739 -1.57308,-1.3759 -4.00559,-2.8291 -6.06319,-1.6744 -1.39425,0.7825 -2.70391,2.8583 -1.81385,4.051 2.06923,2.7728 3.6674,5.8946 2.78433,9.1617 -1.13945,4.2157 -4.81904,8.0145 -9.32553,8.1328 -11.38482,0.2988 -18.13845,-4.9629 -19.79827,-14.7686 -0.96158,-5.6807 1.08439,-11.6948 5.16557,-15.9851 14.02383,-14.7424 44.59546,-11.2205 58.09413,8.3106 6.9433,10.0463 8.83682,23.7401 9.05268,36.6758 0.48796,29.2418 5.2866,41.8044 21.12636,62.4334 9.57041,12.4641 22.21356,25.3689 31.98719,29.639 8.1107,3.5437 9.35241,4.4863 -4.60127,8.7008 -23.7298,7.1673 -42.41006,31.1567 -52.46449,51.4796 -6.35014,12.8354 -8.84461,27.8568 -10.1844,41.9969 -1.89512,20.0011 -6.02863,27.8203 -22.93503,39.411 -7.98941,5.4774 -17.99014,6.0995 -27.47843,4.1811 -14.03167,-2.8371 -22.18812,-17.615 -20.54551,-24.5065 1.97421,-8.2826 11.01329,-11.176 16.73799,-8.0863 5.10697,2.7564 6.17562,6.052 5.93194,11.067 -0.0952,1.9593 0.0264,4.3197 1.90841,5.5439 1.71057,1.1127 3.2593,-0.09 4.16306,-1.4005 6.22344,-9.0228 2.837,-23.7277 -4.60799,-29.039 -6.36596,-4.5415 -11.46071,-5.0289 -19.30993,-4.1414 -5.70926,0.6456 -7.49007,5.1261 -11.02569,6.5319 -2.26912,0.9022 -7.43812,4.59 -11.64425,-3.0158 -8.11613,-14.6761 -13.06604,-33.4089 -34.80976,-39.6405 -18.20685,-5.2179 -34.70824,8.7513 -37.7269,21.3693 -1.66857,6.9747 -2.39343,14.7064 0.65009,21.3754 4.4668,9.7877 15.07544,5.9921 22.40484,3.6267 9.32198,-3.0084 13.40663,-10.3275 11.27838,-18.7017 -0.94656,-3.7245 -4.00026,-6.6881 -7.62124,-7.1939 -4.29452,-0.5999 -7.22916,3.2555 -5.12682,6.6621 2.66803,4.3233 5.74019,8.2038 -0.92294,9.9637 -8.47765,2.2391 -12.38377,-6.6731 -12.87363,-13.2886 -0.42615,-5.755 2.13536,-9.7309 6.09058,-13.7066 9.38245,-9.4311 27.624,-5.4865 33.54214,2.4288 7.52163,10.0599 10.83559,25.7681 10.03505,37.3837 -1.19657,17.3617 7.52498,30.1613 23.5014,38.3161 21.2373,10.84 50.81919,10.7221 66.33084,-2.3012 4.8293,-4.0546 7.88814,-8.5627 12.3641,-12.9677 4.26077,18.203 6.41016,29.6098 15.89981,45.2453 5.53725,9.1234 18.84302,18.4004 22.27512,28.528 4.70372,13.8799 7.54461,30.2597 6.30401,42.2734 -1.08579,10.5146 -8.988,17.9176 -18.21543,23.3624 -15.24653,8.9965 -34.10231,2.5158 -37.95944,-13.3077 -2.32442,-9.5358 1.63176,-20.1243 11.57346,-22.5775 4.48718,-1.1072 9.59461,-0.578 13.50822,2.048 2.42741,1.6288 4.26683,4.6658 3.63182,7.6925 -0.32513,1.5497 -1.90308,2.3215 -3.37964,2.1544 -2.33877,-0.2647 -4.38533,-1.8863 -6.7107,-1.9446 -2.15187,-0.054 -3.84911,2.4936 -3.63906,4.7625 0.34185,3.6925 4.47092,6.5028 7.98401,5.1243 1.20925,-0.4745 2.54439,-0.5367 3.7636,-1.0682 5.76208,-2.512 8.78869,-10.0159 5.9154,-15.6962 -1.80244,-3.5633 -5.42757,-5.753 -9.09557,-6.8311 -12.6928,-3.7305 -28.48758,-4.1858 -35.75492,17.9498 -3.70595,11.2879 3.56204,31.8702 14.36398,42.9757 3.44177,3.5385 9.08724,3.7637 12.64574,7.2373 1.61533,1.5768 2.76708,4.4967 1.32136,6.135 -7.15333,8.106 -3.4825,13.79528 -2.89646,20.44164 0.52517,5.95594 -2.36907,11.47629 -4.46588,16.89923 -3.05371,7.89774 -7.07517,17.25472 -5.78518,24.92612 0.43521,2.58813 3.69237,4.05206 6.37378,3.67988 3.95742,-0.54929 7.56401,-3.02077 9.68209,-6.28902 4.49706,-6.93908 10.10319,-13.72932 14.84457,-19.66857 8.52565,-10.67954 10.66883,-4.80201 18.87999,-9.02477 2.98324,-1.53419 3.70956,-7.85839 4.5837,-10.866 1.25489,-4.31765 3.40777,-13.02167 8.11785,-9.82162 6.59757,4.48242 11.90695,6.86543 18.03404,7.64759 11.4302,1.45915 22.89306,-5.98428 29.04991,-13.31908 4.13047,-4.9207 7.45668,-10.4172 9.24026,-16.783 1.85367,-6.6159 2.82868,-16.7426 -1.64796,-23.7422 -3.18238,-4.9759 -7.10082,-10.0468 -12.85038,-12.1491 -9.75871,-3.5683 -21.96288,2.1963 -24.47861,10.8484 -0.84176,2.895 -1.26527,6.1347 -0.0801,8.9607 2.99406,7.1392 7.66682,9.7425 14.20224,9.185 4.43142,-0.378 8.01861,-5.3782 6.86521,-9.7741 -0.57532,-2.1927 -2.76312,-3.3241 -4.82089,-4.0049 -1.55354,-0.5139 -3.60818,-2.2788 -2.70992,-4.0127 2.40908,-4.6503 9.77623,-4.293 13.56817,-0.7524 4.66428,4.3551 6.13993,9.7617 5.57795,17.0811 -0.8079,10.5224 -6.44752,16.4635 -15.58819,17.2687 -11.6333,1.0248 -26.16413,-4.8147 -30.85342,-14.922 -6.13818,-13.2304 -4.87572,-30.1584 1.64176,-41.8135 8.24756,-14.749 19.8177,-20.2153 34.26923,-25.0212 19.98544,-6.6462 41.48635,-18.0872 61.95281,-19.0226 1.75225,-0.08 -0.19028,3.9488 -0.98341,5.5004 -9.27559,18.1452 -12.3078,55.2462 -3.27008,76.3147 10.76632,25.0982 36.90643,24.4594 61.16836,25.6517 11.2539,0.553 25.6033,0.5786 29.89843,12.56408 2.47282,6.9003 0.54773,18.20131 -6.14381,20.74654 -6.12548,2.32992 -19.37449,1.36708 -15.5944,-10.8164 1.83197,-5.90454 -4.72171,-11.54749 -8.93795,-6.90035 -6.19611,6.82934 -5.46102,14.81058 -1.22525,21.62762 4.38078,7.05043 13.10055,11.59116 21.27829,9.53947 3.95685,-0.99272 7.39822,-3.45279 10.16372,-6.32003 9.02296,-9.3549 14.96298,-21.0199 9.56117,-32.54271 -6.20857,-13.24372 -15.09976,-17.09262 -27.13374,-20.23542 -9.32442,-2.4351 -18.96847,-4.3025 -27.56059,-8.7117 -1.49212,-0.7657 -1.89817,-3.2715 -0.7519,-4.7557 1.91309,-2.477 4.83804,-3.8195 7.55716,-5.2075 5.15367,-2.6308 8.21078,-16.7749 4.0535,-27.9786 -2.77877,-7.4887 -9.2484,-14.9721 -20.72483,-16.6987 -5.86927,-0.883 -15.11027,1.6728 -14.50506,8.3731 0.18285,2.0244 0.95468,4.3297 2.83187,5.333 1.69397,0.9054 3.06947,-1.0682 3.47783,-2.4903 1.57095,-5.4708 8.3891,-8.0727 13.48186,-5.8095 1.8793,0.8351 2.86613,2.5497 3.5295,4.3538 1.92827,5.2441 2.78088,12.3415 -1.3348,16.2734 -7.51738,7.1818 -16.31683,8.7015 -24.89977,4.9604 -11.33221,-4.9395 -17.43361,-19.5158 -14.15004,-35.7244 1.95211,-9.6362 6.70445,-21.8153 13.88132,-28.6132 7.41742,-7.0259 14.8727,-13.9253 22.51129,-20.7109 20.04465,-17.8063 32.90857,-50.5157 28.27424,-78.3694 -2.12717,-12.7849 0.46339,-9.0838 7.48946,-3.4143 12.5861,10.156 34.40144,13.6982 47.65446,14.1527 25.36871,0.8702 40.58634,-9.1091 55.81726,-23.3965 5.48625,-5.1464 13.27386,-15.881 15.58536,-20.5535 0.35301,7.4383 1.28541,34.0561 1.64753,39.1625 0.27405,3.9735 -0.32621,12.3924 0.1757,16.2253 0.0485,0.3704 -0.0865,0.7411 -0.12919,1.1116 6.64333,-5.6628 8.97521,3.9621 9.5896,7.4734 -0.0222,-0.5574 10e-4,-1.1186 -0.0729,-1.6717 -1.42091,-10.6142 -3.37924,-21.1747 -4.09897,-31.8792 -0.41423,-6.161 0.0954,-12.3157 0.0884,-18.4728 -0.002,-1.8857 0.58453,-4.2233 2.01797,-5.489 -0.98574,-2.3604 -4.82458,-12.8739 1.63194,-21.3119 -0.17275,-2.893 7.63263,-13.341 16.39642,-21.7987 8.65524,-8.3529 16.56119,-12.9736 22.34489,-13.8508 9.14428,-1.3869 12.76348,-0.9891 9.78286,1.5901 -2.61741,2.2648 -5.95432,5.8562 -7.64759,8.4155 -4.56499,6.8997 -6.76771,18.2754 -5.38727,25.572 1.54578,8.1707 5.26355,15.4124 12.72842,22.4638 10.0726,9.5146 27.61093,5.972 38.06486,4.5904 9.9327,-1.3127 19.160691,-8.9041 22.008475,-17.7173 4.430872,-13.7124 -0.172551,-25.9744 -13.230715,-29.5852 -3.44061,-0.9514 -7.44527,-1.7342 -10.45621,0.7348 -2.33973,1.9186 -5.07143,5.2098 -3.20187,8.198 1.59576,2.5506 4.78153,5.1875 7.97109,4.0235 3.46282,-1.2638 0.34309,-7.4029 4.19457,-7.9592 3.30809,-0.4778 6.726821,1.4381 8.94571,3.9031 6.582062,7.312 5.320149,16.6195 -1.462443,22.0074 -3.206607,2.5473 -7.691187,0.2068 -11.360027,-0.8108 -6.83863,-1.8969 -11.36824,-5.3631 -16.62483,-8.662 -3.89351,-2.4435 -9.08732,-4.2795 -13.39195,-1.7843 -3.27822,1.9002 -3.40009,6.1397 -2.81946,9.4335 0.56307,3.1942 1.49743,7.3453 -1.47743,9.6578 -2.62628,2.0416 -6.04419,-0.027 -7.80573,-2.3425 -3.80427,-5.0008 -7.27842,-9.9769 -8.27081,-18.587 -0.77338,-6.71 2.42346,-17.3712 8.36745,-23.428 4.44842,-4.5329 10.77097,-6.675 16.29668,-8.4134 5.98465,-1.8828 27.14734,-0.6942 37.372911,0.6785 -3.396531,-2.0924 -6.208401,-5.5771 -1.967322,-10.7461 -11.214789,2.9952 -28.748049,7.2793 -38.439509,1.68 -9.79518,-5.6593 -17.40102,-20.3286 -18.34979,-30.6173 -0.52139,-5.6541 2.64224,-17.3356 9.62112,-22.0219 2.95776,-1.9861 5.99685,-6.1876 9.52758,-5.1708 4.64904,1.3388 -1.02267,5.4958 -1.27692,8.4631 -0.46336,5.4077 0.0989,11.4175 3.87056,15.6166 4.03233,4.4893 11.10548,4.9336 16.05587,2.0733 3.38239,-1.9543 5.49563,-5.9087 9.5095,-6.9572 3.72516,-0.9731 6.60919,2.2178 8.305951,5.209 1.74283,3.0724 0.245767,8.8548 -3.185851,10.2582 -6.00934,2.4576 -10.4965,4.689 -17.1204,2.819 -1.82344,-0.5148 -7.06904,2.545 -2.24069,4.3656 8.57589,3.2337 17.20913,-0.1289 24.407809,-5.1335 7.797021,-5.4205 7.559699,-15.736 4.814176,-24.6264 -5.095257,-16.4992 -24.376495,-20.828 -35.832435,-19.7182 -12.93118,1.2527 -21.50856,4.6458 -27.4836,16.6786 -4.11706,8.2911 -9.02063,21.9787 6.70657,43.3648 5.39189,7.332 -0.23541,5.4789 -4.35477,4.549 -3.08321,-0.6959 -4.99122,-1.4199 -7.70651,-3.1403 -15.82301,-10.0253 -29.31338,-28.9686 -36.68355,-39.2938 -2.81807,-3.948 -5.52842,-5.7738 -6.07663,-9.1586 -1.67071,-15.8896 -2.49727,-29.384 -2.40037,-44.1849 0.0809,-12.3637 0.068,-22.9289 -0.38344,-34.0284 -1.77187,2.4943 -4.72336,0.817 -7.36854,-1.6738 v 0 l -5.2e-4,5e-4 c 0.56805,1.049 1.08456,2.1279 1.47898,3.2701 1.4745,8.4051 1.19492,15.99 1.12758,24.4868 -0.0897,11.3116 -0.19224,23.9863 0.86196,36.7575 0.0804,0.9737 1.00907,9.8418 1.02767,10.8347 -30.20843,-26.9335 -68.41259,-43.2075 -101.86285,-30.4087 -2.87148,1.0987 -5.65625,2.9187 -8.82737,2.8572 -1.92112,-0.037 -3.89278,-1.9754 -3.32331,-3.6282 7.01549,-20.3615 5.42214,-41.5521 -0.30851,-60.1777 -7.01525,-22.801 -25.74535,-38.3028 -43.31725,-52.3049 -10.44957,-8.3267 -18.61118,-12.3568 -35.80867,-18.3032 -5.72074,-1.9781 -8.76975,-8.4769 -11.28924,-13.9883 -4.52826,-9.9056 -5.48862,-21.3702 -2.93677,-31.8694 2.24164,-9.2228 8.61014,-17.0759 18.00407,-18.8283 18.23257,-3.4012 22.9557,6.4646 26.1767,16.8491 3.90658,12.5949 -15.82607,22.7886 -21.2602,14.0591 -1.72807,-2.776 -1.90684,-6.5146 -4.50722,-8.7034 -1.20858,-1.0173 -2.59051,1.2649 -2.9099,2.3952 -0.8958,3.17 0.45625,6.5617 2.28358,9.1142 5.11739,7.1481 12.16238,9.6503 20.22564,7.4187 7.87359,-2.1791 17.02709,-4.7611 21.09019,-12.0055 4.90603,-8.7473 1.20086,-14.8632 3.45922,-21.1894 0.81788,-2.2911 2.81222,-3.9523 5.16247,-4.1351 7.1473,-0.5559 14.65066,0.4396 21.42453,-2.4082 8.92784,-3.7534 17.34079,-8.9981 23.85953,-16.015 10.10826,-10.8807 7.74602,-33.6263 -1.81436,-43.7229 -5.96544,-6.3 -8.69055,-9.0033 -21.09794,-10.1999 -0.50793,-0.049 -1.03134,-0.058 -1.56579,-0.031 z m -205.87116,52.6981 c 4.36936,-0.066 6.44048,1.129 7.34167,3.1352 1.84089,3.9694 1.29396,8.487 1.0201,12.7155 -0.0707,1.9237 -1.07126,4.1313 -3.15123,4.5082 -3.00135,0.4988 -5.89046,-1.0347 -8.35505,-2.5776 -2.25148,-1.3649 -4.2005,-3.5078 -4.53202,-6.2167 -0.81393,-5.3999 3.30719,-11.4988 7.67653,-11.5646 z m 42.17262,70.7104 c 1.69011,0.082 4.28902,1.1193 7.24504,2.9853 8.29474,5.2361 13.10601,10.8817 29.10261,16.3199 10.62725,3.6129 14.0661,3.5613 14.08338,8.6378 0.0212,6.2412 -4.70113,5.629 -8.10286,8.7782 -5.55428,5.1419 -9.62172,12.3649 -9.86142,20.0944 -0.2024,6.5268 2.63276,13.5538 7.78247,17.4971 5.05171,3.8682 12.53071,5.1774 18.61954,2.7885 4.46606,-1.7522 7.49104,-6.385 6.15415,-10.6495 -0.50364,-1.6065 -3.1188,-1.6292 -3.47938,0.2656 -0.73177,3.8453 -4.26366,6.7897 -8.34574,7.4993 -8.91746,1.5502 -14.01305,-8.572 -11.6334,-14.9422 2.72809,-7.303 10.66968,-11.3089 17.63458,-7.3293 6.76328,3.8644 14.74491,-3.0787 18.02061,-8.4754 4.14231,-6.8244 4.67303,-14.9148 0.55035,-21.0344 -2.99267,-4.4422 4.61592,-6.0131 9.92963,-4.9067 10.97265,2.2849 14.57548,5.3322 22.6627,10.1177 21.77532,12.8852 42.34035,29.4981 50.9049,53.4696 6.89066,19.2865 5.42898,32.067 3.78168,50.4683 -1.1161,12.4675 -8.17512,23.538 -15.69516,33.5375 -0.85445,1.1362 1.09533,3.3689 2.80809,2.9347 4.60449,-1.1674 5.00181,-3.8175 6.95152,-6.2911 9.45431,-11.9949 24.78301,-18.8737 38.29062,-20.3089 30.22699,-3.2115 68.14704,16.0576 85.28791,41.02 -8.69787,14.8709 -24.49647,35.0446 -40.01412,38.5602 7.4255,-16.0032 7.72639,-23.3204 7.55199,-27.8768 -0.66025,-17.2501 -9.32242,-24.0165 -18.62212,-29.2071 -9.07126,-5.063 -19.2894,-3.3759 -27.5177,-1.1601 -5.21733,1.405 -11.47931,3.9519 -12.82299,9.6408 -1.43025,6.0554 1.27408,12.723 5.64255,16.9958 2.22664,2.1779 3.99196,4.8495 6.76238,6.395 3.40171,1.8976 6.45324,-1.9101 7.57473,-5.0188 1.1215,-3.1086 -1.60749,-9.3154 -4.69325,-6.9247 -2.84746,2.206 -6.37819,1.932 -8.31784,-0.9353 -2.95436,-4.3673 -3.86944,-6.4928 -2.36368,-8.9333 3.24497,-5.2595 11.45565,-7.8808 16.58193,-4.5233 4.44035,2.9082 6.48038,10.9668 7.47758,15.5748 0.81249,3.7545 -1.23141,8.3955 1.67483,11.3967 2.99141,3.0892 7.96166,3.1053 12.18272,2.4567 3.81397,-0.586 3.99203,-5.9433 7.89254,-5.3604 2.5657,0.3835 3.40837,3.0753 3.29334,5.4069 -0.35856,7.2678 -0.93494,12.5526 -12.25041,20.0737 -5.66621,3.7662 -12.87942,2.8019 -19.20038,1.5901 -0.33979,-0.097 -0.68851,-0.1751 -1.03405,-0.2599 5.80594,4.0429 2.85773,7.5349 1.58079,8.6641 10.54915,-1.4188 24.94866,0.5874 30.72008,11.2427 5.75917,10.6327 4.00582,18.8412 2.54699,29.2843 -2.94926,1.3016 -4.25425,6.4848 -7.49604,4.8283 -2.49917,-1.2771 -0.84143,-5.1622 -1.8743,-7.7545 -2.13728,-5.3642 -7.05262,-10.2779 -13.05605,-10.0868 -3.61148,0.1149 -5.11283,3.6305 -6.05596,6.687 -2.27665,7.3782 -5.04838,11.512 -10.05004,16.9307 -2.01656,2.1847 -7.07002,4.0912 -9.84692,3.3312 -5.18819,-1.4199 -9.75945,-5.9196 -8.83152,-13.5331 0.37552,-3.0811 4.12385,-7.4146 6.59804,-4.2349 1.81644,2.3344 0.19296,7.7063 4.32532,7.8915 3.32183,0.1489 4.87947,-3.8045 4.77749,-6.7123 -0.24274,-6.9214 -9.46187,-11.0468 -14.71125,-6.9561 -5.91041,4.6058 -7.93547,13.4902 -5.15007,20.2597 5.43511,13.2092 16.06249,16.6278 27.20919,18.2986 5.94731,0.8915 16.73133,-1.719 22.50612,-6.2264 4.9787,-3.8861 12.14214,-9.146 14.60376,-17.9953 3.79239,-13.6333 3.48466,-27.3836 -2.62155,-37.5321 -1.54103,-2.5612 1.21052,-4.6541 8.79533,3.2013 9.11763,9.443 20.6147,15.7905 25.65632,31.8792 0.009,0.01 0.017,0.021 0.0264,0.032 -0.006,0 -0.0206,-0.013 -0.0269,-0.017 -3.69287,13.95 -12.49842,26.2881 -21.34805,35.6485 -18.7866,19.8708 -54.04696,21.8434 -76.76689,11.4603 -8.32874,-3.8063 -17.03918,-7.8045 -22.91901,-15.0219 -3.62409,-4.4485 -8.80771,-11.6638 -13.12065,-13.3661 -5.52753,-2.1817 -7.79927,3.3242 -5.49992,7.1422 7.06544,11.7319 11.85652,25.6358 11.12387,38.4209 -1.50552,26.2719 -17.54689,53.2823 -46.34188,72.408 -5.35417,3.5563 -10.89918,4.3997 -17.24287,5.517 -5.25823,0.9261 -15.85022,2.7395 -12.87467,0.8372 6.35988,-4.066 6.68368,-14.524 2.14974,-19.2717 -5.85034,-6.1261 -10.80733,-6.5977 -16.89044,-0.7778 -2.48799,2.3804 -5.10298,4.9216 -8.56537,5.7454 -6.41576,1.5264 -13.51761,-2.2495 -16.18041,-8.2129 -1.9356,-4.3348 -0.48663,-9.5854 2.81947,-12.8535 2.54099,-2.5118 6.42899,-4.5326 9.96631,-3.0685 1.69498,0.7015 3.00152,2.1964 4.93562,2.4334 2.19851,0.2694 4.43433,-1.5611 4.10363,-3.822 -0.3131,-2.1405 -2.47548,-3.1001 -4.27106,-3.8866 -5.39587,-2.3635 -11.72336,-1.0955 -16.33647,2.3425 -9.32158,6.947 -10.28413,19.8115 -7.32617,27.3901 1.36147,3.4882 5.48003,5.8197 5.68957,9.65 0.30398,5.5562 -2.98682,5.4053 -8.55916,8.4109 -9.35223,5.0443 -15.99782,10.4839 -21.25814,16.5194 -4.59857,5.2762 -8.37538,11.4654 -12.6416,19.018 -3.49413,6.1858 -2.32764,-1.9384 -2.34921,-7.9474 -0.0292,-8.1331 -1.10172,-33.2853 -10.05004,-49.4636 -6.20808,-11.2241 11.87116,-8.7998 19.47634,-16.0559 5.61197,-5.3544 8.47183,-11.6762 10.26449,-18.5368 1.49789,-5.7325 -0.24746,-12.3449 -4.48087,-16.6062 -2.40979,-2.4257 -5.84572,-3.8051 -9.27437,-3.6045 -1.85615,0.1086 -4.2682,-0.1397 -5.46168,1.4216 -1.04786,1.3708 1.27858,2.7328 2.8143,2.7249 4.90005,-0.025 8.61231,4.9612 8.85682,9.6842 0.44382,8.5731 -9.38564,15.7706 -15.67708,13.9185 -8.81083,-2.5938 -8.96298,-14.328 -14.041,-18.5637 -3.85122,-3.2124 -9.565,-4.4201 -14.36967,-2.7047 -6.25491,2.2332 -4.54355,8.5916 -8.138,12.5186 -2.75559,3.0105 -4.64762,-0.5249 -5.85184,-2.8541 -5.08575,-9.837 -2.13129,-25.1513 -1.37666,-35.8397 2.38116,-33.726 16.80392,-65.0273 42.66613,-83.4709 11.50642,-8.2058 25.77502,-12.1057 39.80687,-13.1072 5.03863,-0.3596 9.10543,-0.1617 12.7491,0.214 1.83675,0.1893 6.04046,1.6926 7.55147,0.6247 1.16091,-0.8205 2.60385,-2.6784 1.31672,-3.886 -1.32888,-1.2467 -3.35379,-0.7453 -5.04,-0.8599 -9.34612,-0.6349 -17.29951,-1.6078 -25.92504,-5.5955 -19.80268,-9.1552 -32.37422,-22.2833 -43.3126,-37.8753 -14.50929,-20.682 -16.0408,-41.944 -15.00012,-65.0926 0.28931,-6.4352 2.59729,-15.7888 6.87038,-18.1788 4.9233,-2.7537 4.09531,11.1802 9.10074,13.1336 6.58495,2.5698 14.63157,2.1679 19.95589,-2.6035 8.71575,-7.8105 -0.28182,-15.4044 8.69869,-20.3848 3.57278,-1.9814 7.87071,-2.0014 11.24376,-0.072 3.21774,1.8409 6.13652,5.4659 5.34334,9.2842 -0.56067,2.699 -3.53113,3.8607 -5.66322,5.2477 -1.37113,0.892 -3.37043,1.7707 -3.49487,3.5874 -0.1056,1.5417 1.29314,2.9627 2.8515,3.2448 3.48625,0.6312 6.73066,-1.4675 8.8837,-3.9739 6.42774,-7.4826 3.89764,-17.1589 -1.21492,-24.3215 -3.3496,-4.6929 -4.20924,-9.4081 -13.01367,-12.2391 -4.92499,-1.5836 -17.04867,6.3506 -13.91491,-4.4039 5.49491,-18.8574 8.60978,-41.9037 2.64531,-59.1255 -0.67787,-1.9573 0.10358,-2.8311 1.79369,-2.7492 z m 286.56701,188.9977 c 1.29187,-0.086 2.67965,0.5569 4.21214,2.2397 10.11161,11.1035 20.59102,25.6351 30.77693,33.0698 8.59804,6.2756 8.08375,6.8969 2.22467,10.8629 -4.38413,2.9676 -11.97205,8.1638 -15.92357,11.6427 -12.61922,11.1099 -17.36024,23.2752 -21.23385,18.7337 -7.88973,-10.1953 -14.13641,-17.7938 -24.29774,-27.7833 -5.8349,-5.7363 -18.48322,-11.3416 -13.38368,-14.0668 11.56779,-6.1818 20.37495,-15.0776 25.2243,-20.1786 4.39577,-4.6238 7.78694,-14.214 12.4008,-14.5201 z m 1.39681,20.4458 c -1.66201,-0.022 -3.30499,0.8567 -4.15944,1.7167 -1.31625,1.325 0.64455,6.4462 4.67259,5.2798 4.88599,-1.4146 5.2735,-4.7507 1.12706,-6.6404 -0.52969,-0.2414 -1.08621,-0.3488 -1.64021,-0.3561 z m 14.24202,13.3284 c -0.59161,-0.01 -1.12633,0.1235 -1.88877,0.7255 -3.17007,2.5032 0.6939,7.4051 4.27623,6.1444 0.78185,-0.2752 1.48742,-0.3882 1.8526,-1.017 1.49852,-2.5802 -0.99275,-5.5322 -3.6189,-5.8074 -0.2204,-0.023 -0.42395,-0.042 -0.62116,-0.045 z m -27.53113,0.7813 c -5.8773,0.4414 -6.20052,3.861 -2.81792,6.5128 3.53574,2.7718 8.58629,-3.5608 4.81728,-5.9774 -0.59169,-0.3793 -1.30455,-0.5876 -1.99936,-0.5354 z m 12.65246,16.3872 c -0.47289,-0.014 -0.95453,0.062 -1.43041,0.247 -3.76958,1.7684 -1.66177,7.8175 2.26963,8.0656 1.10444,0.07 2.06597,-0.2232 2.74919,-0.9627 2.55189,-2.762 -0.2783,-7.251 -3.58841,-7.3499 z m -306.39939,252.1138 c 0.2717,5.6465 1.54924,9.6524 2.68356,13.0095 1.61323,4.7746 0.73815,9.2571 -2.24069,12.4732 -7.22013,7.795 -12.0105,13.33048 -16.31063,7.8413 -3.06225,-3.909 -4.12743,-6.4391 -4.78266,-10.219 -0.92034,-5.3093 0.61532,-10.3966 6.54379,-13.1981 5.36059,-2.5331 9.11056,-6.1832 14.10663,-9.9069 z"
         sodipodi:nodetypes="ssssssssssssscssccssssssssssssssssssssssssssssssscccssscssssssssssssssssssssssssssssssssssssssssssscsssssssssssssssssscsssssssssssssssssssssssssssssssssssssssssssssscssssssssssssssssssssssssssssssccscccssccssssssssssssssssssssssssccsssssssssssssssssssscscccccsscsssssssssssssssssssssscssccccssssssssssssssssssssssssscssssssssssssssssscccsscssssssssssssssssscccssssssssssssssssssssssssssssssssssssssssssscsssssssssssssssssscsssscssscssssscssssccsscsscssscssssscss" /><path
         id="path1221"
         style="opacity:1;fill:#000000;stroke:#ff2a2a;stroke-width:0.02;stroke-linecap:round;stroke-linejoin:round;paint-order:stroke fill markers"
         d="m -386.40785,-1377.2866 c -1.43335,2.6404 -0.008,6.5503 -2.29799,9.4606 -2.83633,3.6052 -5.45485,-1.5713 -8.60014,-4.0928 -2.80016,-2.2448 -5.47796,-4.6891 -8.62428,-6.3924 -4.57738,-2.478 -7.31446,-2.1274 -9.50795,-0.5002 -2.35477,1.7468 -5.10203,6.46 -2.07739,15.2125 1.17227,3.3922 1.86003,7.74 1.15135,10.5544 -0.90114,3.5787 2.03881,7.2465 0.0274,10.4432 -1.74872,2.7792 -5.80681,2.7007 -8.7235,2.1834 -3.57727,-0.6345 -7.50888,1.6611 -6.89725,5.6802 1.08711,7.1435 4.58876,11.3321 7.83621,14.5056 3.63058,3.5479 8.2143,5.4274 12.83798,6.8983 12.06442,3.8379 14.50361,-2.1258 23.64817,-1.1115 4.82733,0.5354 1.45338,2.4173 0.42491,10.1517 -0.95809,7.2051 2.58902,6.5942 -2.46045,10.4439 -5.72643,4.3658 -10.29235,-1.4582 -19.69778,1.0406 -10.25192,2.7237 -14.69623,4.1275 -21.38343,11.5256 -2.35419,2.6044 0.0489,7.785 3.07836,6.83 10.15236,-3.2004 16.59639,2.0914 14.24203,7.0404 -3.67674,7.7287 4.30268,7.8981 -5.74642,24.3091 0.20844,1.1381 3.49778,17.4825 19.30528,7.1396 7.68895,-9.1211 10.48932,-5.8301 14.6234,-8.8335 2.1355,-1.5514 5.74221,-6.6713 7.37836,-3.4117 1.61703,3.2215 2.65103,6.2712 4.35012,9.1829 1.67945,2.8781 6.92079,4.7688 8.33748,1.2051 0.97918,-2.4631 2.57754,-4.4343 4.40283,-6.1635 2.36623,-2.2416 2.76119,-5.5451 2.79931,-8.5917 0.11808,-9.4359 -4.27821,-18.0665 -8.91573,-26.1178 -3.13242,-5.4382 4.75785,-5.0937 7.33302,-5.5747 2.67168,-0.499 7.34918,-2.3528 8.79563,-3.9008 1.68121,5.61 5.48228,13.5066 13.02357,16.5935 11.69639,4.7877 18.42475,2.3088 23.0296,-2.4469 2.73155,-2.821 -3.86915,-5.6705 -3.86798,-9.0853 10e-4,-3.0449 4.14596,-3.4662 6.79442,-2.8401 3.1958,0.7555 6.5488,-0.429 9.76219,-1.1069 8.37084,-1.7659 14.7392,-7.7573 21.92735,-11.9104 0.30342,-0.1755 0.6183,-0.2764 0.92759,-0.4139 1.33063,-1.2229 4.22105,-4.7568 -1.28829,-8.6615 -4.49532,-1.1416 -9.77817,-0.9506 -13.22194,-4.2824 -2.95692,-2.8608 -5.43215,-6.2554 -8.90074,-8.6031 -2.74611,-1.8587 -6.87694,-4.1987 -9.56014,-1.6413 -2.95584,2.8173 -8.23059,-1.075 -5.21054,-4.1816 2.54307,-2.6159 7.51516,-1.928 8.87853,-6.009 1.14645,-3.4317 -0.99947,-6.7007 -3.72794,-8.5162 -8.12106,-5.4038 -22.35503,-4.5262 -28.57138,1.4236 -3.76678,3.6052 -5.09219,9.053 -6.26525,14.0364 -0.92781,3.9416 -1.93192,7.8992 -2.52181,11.9052 -0.4387,-1.147 -1.25668,-2.9903 -3.33835,-5.3706 -1.75641,-2.0084 -4.32996,-3.9856 -8.37553,-5.1045 -5.07964,-1.4048 -9.42204,0.2643 -6.02013,-5.2709 1.91879,-3.1221 3.74514,-4.9669 6.81529,-8.2256 4.11996,-4.3729 3.21847,-10.8648 2.18178,-16.3179 -2.04227,-10.7426 -9.23378,-20.8761 -18.94327,-24.0409 -4.60678,-1.5016 -8.14838,-0.9217 -9.16656,0.9538 z m 7.24443,28.4418 c 0.4783,5.0502 0.40824,10.161 -0.0801,15.2058 -0.3461,3.5754 2.06511,9.1204 -1.59267,10.6769 -2.28691,0.9731 -3.85958,-3.1156 -6.65282,-3.4443 -2.78543,-0.3278 -5.03427,-2.499 -7.18871,-4.3046 -2.43555,-2.0411 -3.75109,-4.9022 -5.24981,-7.6042 -1.59986,-2.8843 -3.86605,-6.5458 -1.58336,-9.7441 1.43014,-2.0038 2.96071,-4.1823 5.16196,-5.2116 4.10088,-1.9175 16.62414,-1.5012 17.18551,4.4261 z m 27.65416,39.9371 c 1.7772,3.8714 2.97617,9.7479 -0.69146,14.668 -3.96874,5.324 -13.26111,8.3599 -19.62766,5.2111 -8.6053,-4.2561 -10.28715,-5.0254 -9.61449,-17.5008 0.29121,-5.4009 4.21244,-9.5456 8.4429,-12.3625 9.79222,-6.5203 18.62507,3.7416 21.49071,9.9842 z m 29.41729,-5.224 c 1.69506,-0.01 3.40179,0.337 4.92218,1.139 5.62492,2.9671 6.23668,10.785 3.61063,16.1861 -1.57295,3.2352 -4.4531,4.0249 -7.72832,4.3068 -4.52462,0.3895 -7.2358,-3.2345 -11.43898,-4.9683 -3.05652,-1.2608 -7.59031,-3.7985 -6.27197,-7.4698 1.33023,-3.7044 6.18267,-4.0717 9.16327,-6.2007 2.31516,-1.6537 4.91816,-2.9799 7.74319,-2.9931 z m -47.18079,7.471 c -1.47283,1.3146 -3.21194,6.4218 1.3216,7.4058 2.11093,0.4582 3.74076,0.1428 4.94198,-1.1825 1.36654,-1.5076 2.04314,-6.0166 -0.46346,-7.1956 -1.8817,-0.8851 -4.45833,-0.2254 -5.80012,0.9723 z m -12.54424,24.6526 c 2.81578,-1.4047 5.54545,4.5897 4.64674,6.9976 -1.88794,5.0582 -2.08969,10.9904 -5.77536,15.0502 -4.83494,5.3257 -9.00848,3.3 -13.88184,0.9018 -2.47398,-1.2175 -4.41979,-3.4085 -4.75216,-6.1501 -0.31246,-2.5774 -0.62316,-5.5831 0.96428,-7.785 2.30965,-3.2037 6.70444,-3.3553 9.84074,-5.4126 2.53343,-1.6618 6.62512,-2.4383 8.9576,-3.6019 z"
         sodipodi:nodetypes="sssssssssssssssssssccsssssssscssssssccsssssssscsssssssssssssssssssssssssssssssssssssssssss" /><path
         id="path1357"
         style="opacity:1;fill:#000000;stroke:#ff2a2a;stroke-width:0.02;stroke-linecap:round;stroke-linejoin:round;paint-order:stroke fill markers"
         d="m -540.63212,-1402.1294 c -15.27487,4.0243 -26.92979,13.6541 -38.26639,22.9893 -19.75665,16.2687 -41.52548,39.2284 -58.61966,49.5809 -22.48936,13.6199 -46.47342,22.8652 -70.75382,22.3672 -7.71107,-0.1581 -15.37508,-1.3805 -22.74332,-3.6562 -2.4175,-0.7467 -6.0758,-1.983 -5.65082,-5.012 0.56395,-4.0196 6.36649,-2.4735 8.53695,-5.0442 2.13994,-2.5346 1.9625,-6.2208 1.57355,-9.3715 -0.58021,-4.6999 -0.40939,-10.9037 -4.88239,-13.4612 -7.94565,-4.543 -21.31747,-1.56 -26.87433,-7.0714 -4.92603,-4.8857 2.44252,-17.7711 6.40633,-19.2769 4.20651,-1.598 9.44486,-0.9173 13.22761,1.7958 2.00414,1.4374 4.53322,5.4355 6.88589,3.4422 2.48367,-2.1043 0.98558,-8.1985 -1.70429,-10.0139 -7.6459,-5.1603 -17.74878,-3.3369 -25.81548,-1.7518 -7.23052,1.4208 -15.76759,11.3926 -18.65209,16.9943 -7.82711,15.2004 0.95686,28.2764 8.86027,32.585 2.54569,1.3878 0.77131,4.1028 -2.59347,4.5512 -14.03236,1.8699 -22.47869,4.7744 -34.64952,8.5174 -11.57168,3.5587 -17.79793,9.687 -30.07181,12.1612 -3.63672,0.7331 -9.31346,5.9114 -6.38027,8.4018 9.4035,7.9838 24.14181,5.1314 34.21083,8.7039 7.0004,2.4837 18.49561,7.7846 22.49049,8.5891 7.15916,1.4416 11.21062,0.9074 8.01772,8.6712 -2.03518,4.9487 -3.14885,9.3389 -5.99808,13.2344 -2.6016,3.557 -4.09045,8.6434 -1.56011,12.4426 4.02408,6.0421 8.90959,11.5325 14.21412,16.4786 7.03204,6.5568 22.48235,5.4771 28.89953,0.8056 8.17684,-5.9524 10.64478,-16.7344 13.05656,-25.4672 0.87828,-3.1802 -2.82453,-4.4028 -3.82457,-1.7182 -1.99686,5.3606 -4.53554,13.4667 -10.4421,15.8078 -3.40992,1.3515 -9.29536,-0.5763 -13.01194,-3.6068 -6.51246,-5.3102 -4.06238,-15.097 -0.69746,-20.2207 3.51428,-5.3512 15.91989,-5.4428 20.80805,-7.1453 9.78018,-3.4064 5.75905,-11.9497 -0.46561,-15.7752 -3.58848,-2.2054 -0.1199,-4.8293 2.79001,-5.471 9.0421,-1.9939 17.55641,-7.2424 26.90482,-7.105 19.70448,0.2897 44.29755,6.6008 60.298,14.7949 13.86489,7.1004 29.84906,18.7442 40.84653,30.823 13.10849,14.3974 28.93546,33.769 47.84256,40.0575 18.76345,6.2407 32.44409,8.945 50.52324,10.3607 19.31345,1.5124 41.87839,-0.6589 57.90011,-7.6157 12.2468,-5.3177 21.09422,-10.2065 30.11661,-17.4479 0.80211,-0.5236 1.41728,-0.6127 1.89911,-0.4692 l 4.17546,-9.277 c -4.16909,-2.7777 -5.2998,-8.7966 -5.36453,-9.1674 -0.39666,0.8565 -0.90698,1.6573 -1.29863,2.5203 -1.45981,3.2165 -5.17222,4.1201 -8.31732,4.1858 -3.63826,0.076 -6.25843,3.9731 -10.00404,2.6975 -2.88663,-0.9831 -3.79679,-2.9502 -3.47055,-6.7334 0.28401,-3.2935 1.81242,-6.099 3.24424,-9.0667 1.63148,-3.3816 1.00114,-8.034 -1.00459,-11.1135 -1.95703,-3.0048 -5.934,-3.8382 -9.08161,-5.4441 -3.20567,-1.6355 -6.66497,0.9974 -9.16223,3.005 -3.74503,3.0108 -9.11375,2.4428 -12.84573,-0.262 -3.97166,-2.8785 -5.2833,-8.1942 -3.82716,-12.7336 1.74961,-5.4543 7.29483,-9.7916 13.11755,-8.7778 3.64165,0.634 3.00432,4.6903 -0.4361,5.3258 -4.12669,0.7623 -2.93391,6.478 0.95498,7.0409 4.62718,0.6698 9.26594,-2.3346 10.17044,-6.906 0.96377,-4.871 -2.80732,-9.7633 -7.36389,-10.4666 -17.28227,-2.6674 -25.2573,15.041 -23.48815,27.5367 1.44695,10.22 4.59552,21.0332 14.13013,27.9219 6.47551,4.6785 13.32951,10.3881 24.45942,11.1363 2.99442,0.2013 7.2136,-2.9011 9.01805,0.033 1.66854,2.7131 -2.79252,4.2772 -5.90845,6.2315 -27.2526,17.0927 -75.46087,17.676 -109.17307,4.475 -16.64135,-6.5164 -20.21403,-13.8853 -24.09448,-19.182 -3.48489,-4.7568 -7.39634,-9.0188 -10.01076,-14.2668 -1.64996,-3.312 -0.65862,-6.882 0.12351,-10.2061 1.18235,-5.025 4.6813,-8.8933 8.54263,-12.0964 4.83741,-4.0128 11.81976,-5.0068 17.41703,-2.0216 4.9485,2.6392 6.18147,9.7094 2.37143,13.8369 -2.53125,2.7422 -6.40779,1.393 -9.33638,3.0246 -3.46331,1.9296 -1.52739,6.7608 1.95182,7.9515 3.91228,1.3389 7.13133,4.2042 9.72653,2.0913 8.47196,-6.8975 8.91285,-17.1952 8.79029,-19.4027 -0.37655,-6.7819 -3.4047,-11.8667 -6.20957,-14.5296 -8.02183,-7.6159 -21.65122,-5.134 -31.86937,-3.5796 -3.91154,0.595 -7.49409,-1.9633 -8.98291,-5.4493 -1.97704,-4.6291 -0.0565,-10.2954 4.41368,-12.7532 2.77531,-1.5259 5.735,0.557 8.37417,-0.4486 4.03121,-1.536 -2.15159,-4.6363 -4.45296,-4.7635 -5.58961,-0.309 -10.53892,5.4631 -13.19649,10.188 -2.99058,5.3171 -4.36228,10.9342 -4.80389,18.2947 -0.24179,4.03 -4.48447,2.4228 -6.59605,-0.5862 -13.82164,-19.6956 -41.68263,-17.4201 -63.27624,-23.9634 23.4,-5.3443 56.65525,-14.5821 70.81738,-35.0872 1.39816,-2.0244 5.59008,-4.3319 6.67504,-1.2392 1.15117,3.2814 -0.0572,6.9164 -0.7183,10.2842 -1.37769,7.0186 3.6019,14.6317 10.60556,15.6502 3.48201,0.5064 8.14906,0.3604 10.14408,-2.9539 2.18624,-3.6319 -3.73501,-3.6695 -6.26783,-2.6551 -3.18647,1.2762 -8.61324,-0.6155 -8.71575,-4.4933 -0.0892,-3.3729 0.85939,-7.0177 2.97398,-9.65 7.78182,-9.6871 24.30351,-4.1102 30.97692,-7.2151 5.46853,-2.5443 9.25542,-6.2734 11.82868,-11.2151 2.45869,-4.7217 2.45503,-12.5799 -1.71095,-16.1522 -2.31177,-1.9824 -4.30411,-6.9378 -7.56027,-5.3092 -3.59258,1.7969 1.00815,6.2264 2.63137,8.4558 4.71545,6.4764 1.7179,13.256 -4.30206,14.1495 -6.3846,0.9477 -15.01825,-2.9494 -17.52227,-8.781 -3.6915,-8.5971 0.73255,-15.525 4.12254,-20.7547 12.32414,-19.0122 38.45169,-25.095 59.24177,-25.7266 23.35354,-0.7095 45.19514,6.8889 64.22821,16.5479 3.77597,1.9163 2.23615,3.5106 -2.7156,4.8824 -16.05322,4.4472 -26.83565,11.2942 -32.68276,25.7493 -4.18285,10.3408 -2.91357,23.6052 5.91902,30.6059 5.45384,4.3227 11.48283,5.7617 17.84284,5.0095 5.71887,-0.6764 8.74685,-7.1744 7.64656,-12.7176 -0.57656,-2.9047 -2.10116,-5.5642 -4.7749,-6.6192 -2.84033,-1.1207 -6.64359,-0.1898 -7.57318,3.0814 -1.36458,4.8019 4.23083,4.4703 7.18302,5.6974 4.33999,1.804 -1.09927,5.9805 -4.34495,5.9732 -6.01095,-0.014 -12.35878,-2.7572 -14.44822,-8.5777 -1.32434,-3.6892 -0.0418,-7.8391 2.93419,-10.2444 2.10448,-1.7009 4.51785,-3.0871 7.07812,-3.9625 3.15446,-1.0786 6.48752,-0.3408 9.72034,-0.1535 7.24179,0.4196 12.86416,-8.2604 9.96477,-14.8539 -2.00083,-4.5501 -7.42901,-6.0814 -11.95276,-5.8818 -2.28807,0.101 -3.27714,-1.7753 -2.37799,-3.3132 3.5969,-6.1523 16.71529,-6.4338 22.67439,-5.0925 3.75812,0.8459 7.01757,3.3011 8.6341,6.6529 1.4765,3.0615 4.54464,4.4185 6.87297,6.6047 -1.20642,-7.0299 -0.66232,-11.1522 0.71675,-13.4922 -0.0873,-0.1157 -0.20664,-0.251 -0.29662,-0.3684 -0.10787,0.2154 -0.15632,0.468 -0.28112,0.6692 -2.8601,0.9118 -3.94982,-2.6501 -5.85133,-4.1594 -19.12278,-15.1785 -39.54539,-21.2905 -62.53468,-24.9918 -19.39537,-3.1227 -36.15394,-1.0347 -54.85863,3.8933 z m -6.73292,83.7928 c -3.69064,1.2351 -4.44056,5.6645 -4.11913,9.1075 0.41826,4.4803 1.60785,10.5163 6.44044,11.5734 3.88369,0.8495 9.20269,0.3029 11.4763,-3.4091 2.47481,-4.0405 2.6492,-9.8988 0.0341,-13.8782 -3.12683,-4.758 -8.84158,-5.0636 -13.83171,-3.3936 z m -206.14246,4.8719 c 5.08772,0.8843 9.68236,4.9906 17.86784,7.7941 2.51887,0.8627 7.32855,2.6948 12.58663,5.1461 -10.23765,4.2306 -12.22005,5.1712 -22.0097,8.9693 -9.66489,3.7497 -20.68727,2.4397 -25.24116,1.205 -3.36509,-0.9124 -7.05171,-3.0071 -6.74533,-6.4234 0.29931,-3.3375 0.62355,-6.8636 2.13579,-9.8816 3.40789,-6.8011 10.4914,-8.7066 21.40593,-6.8095 z"
         sodipodi:nodetypes="ssssssssssssssssssssssssssssssssssssssssssccccsssssssssssssssssssssssssssssssssssssssscssssssssssssssssssssssssssssssssssssccccssssssssssscsssss" /><path
         id="path1859"
         style="opacity:1;fill:#000000;fill-opacity:1;stroke:#ff2a2a;stroke-width:0.02;stroke-linecap:round;stroke-linejoin:round;paint-order:stroke fill markers"
         d="m 20.638017,-1365.2004 c -5.42447,6.6947 -11.1219896,5.6235 -18.5444928,12.4106 -2.65110761,2.4242 -5.7743397,-4.1132 -7.0043356,-7.1959 -1.7410654,-4.3636 -4.0559815,-5.737 -7.8721226,-0.3525 -5.343219,7.5392 -7.695563,19.7635 -5.311569,26.3948 2.13669,5.9434 5.383395,10.4497 6.591102,13.4616 1.6481853,4.1103 -2.243086,2.451 -7.383583,4.8231 -1.892527,0.8733 -3.494687,2.2437 -5.509535,3.9854 -2.667914,2.3063 -5.182296,-4.6777 -6.192828,-9.7251 -1.508023,-7.5323 -5.849281,-14.8453 -9.99939,-19.544 -1.013245,-0.7763 -2.79159,-1.531 -5.822384,-1.5648 -2.418811,2.0899 -7.233136,4.646 -14.68061,2.0168 -3.102345,-1.0952 -8.69064,-4.399 -11.148821,-1.5176 -3.943532,4.6225 -0.63627,15.1724 2.748153,18.3818 4.235301,4.0163 0.714831,5.081 -3.108139,6.7554 -11.344965,4.969 -16.63606,11.3194 -26.163143,15.4829 -4.241079,5.1692 -1.429529,8.6683 1.967005,10.7607 12.991814,2.0049 16.301491,5.1965 22.575697,6.8701 5.166793,1.3783 13.034248,3.2597 7.297605,7.7676 -9.411993,7.3961 -7.477272,10.4262 -1.676573,14.5807 12.113997,8.6761 26.965327,0.1624 31.864792,-3.549 2.628918,-1.9914 4.698711,-6.2009 3.016354,-8.772 -2.097469,-3.2055 -4.200186,-9.8869 -1.138108,-11.8703 2.089979,-1.3538 3.564935,-2.288 4.727927,-4.0315 1.923531,-2.8837 3.086136,0.4105 5.88937,3.4903 2.312668,2.5409 7.287694,5.0479 11.073902,4.9794 2.465443,-0.045 0.553536,3.4998 -0.627763,5.6878 -1.780157,3.2972 -4.272615,3.3989 -7.29494,5.2969 -7.17099,4.5031 -7.837099,14.058 -4.694158,20.5105 2.865935,5.8838 3.937041,10.892 5.798813,17.0664 1.099238,3.6455 5.630975,4.2852 8.901782,3.5652 4.1631151,-0.9164 5.1584357,-3.995 6.9067252,-7.3748 2.3279155,-4.5003 4.96096886,-3.4459 9.4969578,-1.264 6.09173,2.9303 8.226153,6.1148 11.790427,10.339 14.775824,8.6641 15.217887,-3.0388 15.1722,-5.2927 -1.314275,-3.4641 -2.508806,-7.1145 -1.934249,-10.8133 0.636476,-4.0974 1.360913,-8.5616 -0.738973,-12.3998 -1.838727,-3.3608 1.219601,-7.9477 5.237924,-7.4781 4.227809,0.4941 6.937737,5.4995 11.295951,4.5062 4.180377,-0.9528 2.523275,-6.0775 1.183907,-9.0625 -1.439525,-3.2082 -3.281274,-7.8441 -10.082034,-12.1312 -6.912961,-4.3578 -11.156646,-6.3695 -20.146464,-7.9232 -6.37343,-1.1015 -8.3708757,1.5637 -11.6030571,-2.3881 -1.5209015,-1.8595 0.8251292,-2.4907 1.5129759,-9.9325 0.2869907,-3.105 -0.5670362,-5.6962 -1.9842819,-8.4664 -2.0543501,-4.0156 5.7510771,-1.8676 8.4098391,-0.4894 4.883611,2.5316 10.537754,5.5743 16.159221,3.7429 6.242909,-2.0338 9.112631,-7.0602 12.374656,-11.6095 2.066902,-2.8825 5.097455,-8.0028 4.685284,-11.7833 -0.421025,-3.8617 -5.098692,-3.8334 -7.540108,-1.9369 -3.159025,2.4539 -7.743915,-0.1141 -7.702372,-3.8669 0.06653,-6.0098 -2.997284,-7.7174 -2.218489,-11.1756 1.02183,-4.5373 2.305679,-7.1848 4.739782,-11.206 0.39036,-11.1737 -6.309245,-10.3345 -13.295829,-8.1592 z m -0.792717,29.4528 c 2.203294,2.9988 0.515358,6.7862 -0.74104,9.7978 -2.60853,6.2528 -9.9532427,5.4883 -15.3577687,7.0186 -1.8551268,0.5253 -6.3105012,-1.26 -6.0176705,-3.286 0.5520647,-3.8196 1.41562461,-8.0012 2.13165283,-11.4189 0.69227931,-3.3044 1.74323457,-7.2652 5.27513017,-7.6481 5.3977322,-0.5852 12.1370702,2.0352 14.7096962,5.5366 z m -25.2699485,23.3718 c 5.39482695,2.8358 9.8435724,9.1622 7.8749794,15.2874 -1.57829512,4.9108 -4.2339615,10.4581 -9.380441,12.128 -7.5922969,2.4635 -18.0291529,-4.7665 -19.2406839,-11.9849 -0.720271,-4.2915 2.165667,-11.3451 5.877911,-13.8329 2.510906,-1.6827 10.6713988,-3.8036 14.8682345,-1.5976 z m -33.3007405,6.5463 c 6.1211,4.5056 6.238572,8.4338 0.695358,10.0273 -7.048044,2.0261 -10.64842,8.1295 -16.193678,7.2806 -6.234894,-0.9545 -12.511244,-6.4209 -10.430368,-12.1923 2.572059,-7.1338 6.447056,-10.9276 13.611055,-11.4127 6.417077,-0.4346 7.784177,2.9602 12.317633,6.2971 z m 27.572467,2.5242 c -4.174999,0.1394 -5.50332,5.6582 -2.639244,7.9188 1.534801,1.4875 4.148947,0.2926 5.1179882,-1.1378 1.8128902,-2.1998 1.132405,-6.5486 -2.4787442,-6.781 z m 17.8749913,28.0915 c 7.2755177,6.5421 13.3628267,9.5173 15.3612437,17.6278 0.625183,2.5373 2.022159,10.8109 -1.683009,9.5081 -4.41255,-1.5515 -7.242439,0.6419 -9.318811,2.0665 -1.2801182,0.8783 -5.4368655,-1.938 -9.0192089,-6.4586 -2.55874349,-3.2289 -3.2792563,-7.6664 -2.40076573,-14.2032 0.4029184,-2.9981 -0.64474247,-6.0905 -0.0325562,-9.0232 0.72837169,-3.4893 5.18501433,-1.2332 7.09310713,0.4826 z"
         sodipodi:nodetypes="cssssssssccssssccssssssssssssssssccsssssssssssssssssccsssssssssssssssssssssssssssssss" /><path
         id="path2031"
         style="opacity:1;fill:#000000;fill-opacity:0.927535;stroke:#ff2a2a;stroke-width:0.02;stroke-linecap:round;stroke-linejoin:round;paint-order:stroke fill markers"
         d="m 102.132,-1398.4086 c -25.284155,1.0558 -43.535483,6.2135 -64.06869,19.8798 -8.599064,9.2653 -12.559902,18.433 -4.129464,21.4871 4.321132,-3.0779 5.55016,-5.9496 8.505941,-9.0997 4.856599,-5.176 21.106251,-7.0813 26.436629,-3.3016 3.815839,2.7057 -2.236846,5.574 -5.008997,6.3572 -6.595928,1.8634 -8.617466,9.9791 -7.499283,16.2998 0.807754,4.5659 4.387957,8.1837 8.918318,8.8015 3.809718,0.5196 6.179103,-2.408 8.952942,-4.2684 4.553663,-3.0541 10.820103,-5.0915 16.036747,-2.3947 2.874222,1.4858 4.5273,4.2701 5.096408,7.4578 1.343092,7.5229 -4.476876,11.5739 -9.065155,12.1179 -2.436674,0.289 -4.218576,-3.3074 1.71461,-7.4288 1.603107,-1.1135 -1.046281,-3.2035 -4.818738,-2.1109 -0.983502,0.2849 -2.529398,1.8326 -3.206189,3.1001 -1.387401,2.5984 -3.41876,5.6912 0.403923,7.8848 8.313362,4.7704 15.217359,-2.2869 17.888467,-4.7519 1.997371,-1.8432 4.720521,-7.9375 3.489851,-15.008 -2.406166,-13.8241 -9.862691,-19.2986 -18.599384,-24.7821 -14.492409,-9.096 -27.76242,-10.0984 -40.720512,-3.7202 2.721912,-3.701 4.803563,-5.2876 11.905216,-8.9782 15.430364,-8.0187 34.429717,-13.2608 50.05896,-12.9951 23.24929,0.3952 44.94135,1.5581 60.3436,17.2584 8.41501,8.5778 12.54171,18.8614 11.49336,29.808 -0.8155,8.5152 -9.34373,14.655 -17.57826,15.1784 -8.15662,0.5184 -10.99269,-2.4276 -12.05249,-9.9457 -0.54476,-3.8645 0.31679,-9.3328 4.2416,-10.6076 2.68289,-0.8714 7.0436,-6.2197 2.93884,-6.2337 -7.18764,-0.024 -12.71217,7.8529 -13.49427,14.9298 -0.50718,4.5893 -0.5336,10.3663 2.17376,14.2807 3.08498,4.4603 6.34192,9.0558 11.058,10.4706 5.06573,1.5198 8.3672,-1.1276 11.39775,-1.5656 7.28283,-1.0526 15.10749,3.3716 15.83469,10.5849 0.77359,7.6733 -1.87379,11.5474 -9.44461,12.3307 -3.19202,0.3303 -5.84935,-1.9244 -8.89506,-2.0784 -4.89461,-0.2475 -1.7284,4.4275 2.4316,5.0847 16.49287,2.6057 26.45853,-2.0551 32.08176,-11.0747 6.78702,-10.8863 0.89458,-23.1688 -0.67666,-32.002 -1.46858,-8.2561 3.5249,-2.201 7.17849,2.0201 26.12796,30.1864 51.52358,29.4658 77.18354,36.4508 7.42911,2.0223 9.13807,3.1693 -0.89432,5.3728 -11.09068,2.4358 -26.94383,6.6512 -37.84719,10.3491 -12.42626,4.2144 -39.85319,15.3034 -49.07089,31.5558 -1.90466,3.3582 -4.22473,3.0232 -1.81252,-2.7771 1.44821,-3.4823 2.98905,-8.1121 3.05135,-11.9507 0.20556,-12.666 -7.69647,-19.3949 -17.10291,-21.2298 -5.5072,-1.0742 -9.23918,-1.1079 -14.1143,1.478 -2.59934,1.3788 -2.76955,6.2097 0.53588,4.5356 2.71315,-1.3741 4.96046,-3.8258 8.3814,-3.6416 7.70668,0.4151 13.38211,9.9639 9.28161,16.4088 -2.38214,3.7441 -7.08533,5.3495 -11.25358,6.3097 -8.62137,1.9861 -17.89771,5.5416 -22.90041,14.44 -2.29687,4.0855 -3.20239,9.4156 -1.13965,15.0104 1.30165,3.5305 5.12557,7.1595 6.09437,3.8489 0.96298,-3.2908 -3.43504,-5.296 -2.62207,-9.7565 0.8243,-4.5227 5.34404,-6.8873 9.16379,-8.7711 5.53323,-2.7289 12.45811,0.1903 14.95981,5.5175 1.81382,5.2515 5.38407,11.4271 2.39313,16.5825 -5.44354,9.3828 -14.1279,17.8708 -23.16833,21.8223 -15.46528,6.7598 -35.36786,12.1219 -57.968005,12.2052 -14.249975,0.053 -33.160124,-7.8314 -38.146305,-10.7365 -5.856959,-3.4124 -7.652799,-7.1069 -10.620541,-10.666 7.121893,0.457 13.516721,0.215 19.911943,-0.026 17.741523,-0.6684 24.506406,-10.5611 30.941801,-21.0286 7.253607,-11.7984 5.351627,-26.3539 0.771012,-37.7858 -2.825177,-7.0508 -8.866239,-9.1044 -14.290341,-9.3312 -4.316754,-0.1805 -8.759344,1.0657 -11.322284,3.7645 -2.690775,2.8335 -3.02921,8.9398 0.59193,10.785 2.617562,1.3338 7.082833,1.3124 8.295618,-1.8376 1.352855,-3.5138 -4.983386,-4.9267 -3.647323,-8.5814 1.047191,-2.8645 6.471364,-2.1734 8.496962,-1.6109 2.79249,0.7754 5.618063,4.5965 6.305247,6.9227 0.902478,3.055 1.329211,6.2451 1.085853,9.4039 -0.88715,11.5152 -4.117838,10.1266 -12.245907,8.8616 -4.839834,-0.7533 -9.79856,-2.5701 -14.702978,-1.3012 -7.320801,1.894 -9.476823,9.1504 -8.105299,15.2676 2.257659,10.0695 11.920138,13.6933 19.321868,10.9751 3.948303,-1.4499 5.806769,5.7487 -0.966252,8.6094 -7.02152,2.9656 -15.314479,3.4149 -23.831917,2.6149 -10.020774,-0.9412 -18.413119,-6.1521 -20.165178,-15.2647 0.02206,1.0881 -0.08578,4.3678 -1.848982,6.5055 9.411598,8.9996 9.271014,14.7652 8.856823,16.6967 4.24136,3.4979 8.656907,6.6711 13.393498,9.478 8.101113,4.8008 29.109612,12.9 44.683813,12.5623 29.969634,-0.6499 56.641584,-7.7163 79.826504,-23.3466 21.89728,-14.7622 38.17638,-36.1388 54.46385,-48.713 10.10063,-7.7979 22.61419,-16.0861 34.19318,-21.4947 7.50419,-3.5052 15.46344,-8.8909 23.89757,-9.5244 7.02272,-0.5275 13.1198,-0.098 20.00776,1.4944 3.72598,0.8615 8.20664,1.5025 10.43968,4.9976 2.21002,3.4591 0.48145,4.8673 -4.10068,5.8705 -6.43122,1.4079 -12.06897,11.4508 -7.60197,17.8278 2.90844,4.152 8.56425,5.8304 13.56972,6.2508 7.41744,0.623 14.04849,7.4495 12.84123,14.5442 -1.07499,6.3175 -7.67844,12.7855 -16.84213,9.4735 -7.32091,-2.646 -6.23663,-7.7742 -8.70065,-10.4051 -2.15766,-2.3037 -7.38318,-3.2623 -8.23051,0.3938 -0.85159,3.6745 3.34567,5.7903 4.91908,8.6837 4.67398,8.5951 11.68192,12.939 20.83335,11.8856 12.96124,-1.4919 26.32446,-7.3779 31.26321,-18.7105 5.14518,-11.8063 -0.11767,-23.3996 -5.36866,-32.9329 -1.97958,-3.594 0.15767,-5.5454 3.96926,-5.2389 12.43341,0.9998 29.24794,-3.557 33.95969,-7.907 5.55314,-5.1268 10.10514,-8.3445 17.65851,-9.9903 4.34445,-0.9466 8.23208,1.5205 12.62042,0.6966 5.82315,-1.0932 11.4724,-11.9621 1.89864,-12.196 -17.61584,-0.4303 -20.63703,-4.9419 -27.47915,-8.6268 -2.80041,-1.5082 -6.42952,-2.7122 -6.84093,-6.3139 -1.115,-9.7613 -12.14072,-8.349 -19.44269,-7.6934 -3.60123,0.3233 -8.16845,1.2756 -11.65722,2.3423 -3.63633,1.1118 -3.63901,-3.6885 -1.49551,-6.1712 3.20907,-3.7169 4.74187,-8.8115 5.39657,-13.7206 1.13133,-8.4831 -1.4188,-19.1518 -5.51129,-25.7462 -5.33116,-8.5904 -19.76609,-14.0405 -29.53144,-13.2226 -9.60508,0.8044 -14.70809,5.0398 -17.83932,12.8738 -2.05161,5.1329 -2.70932,10.6367 1.9327,15.4073 3.66344,3.7649 8.28757,-0.6084 5.12376,-2.3437 -3.59524,-1.972 -5.80259,-7.0223 -3.4236,-10.9397 2.15183,-3.5433 5.76263,-6.2542 9.64127,-7.7928 8.2369,-3.2675 16.12998,4.2286 17.89358,9.6548 2.82419,8.6894 -3.74679,18.4185 -11.00148,17.8375 -2.8987,-0.2322 -5.64301,-2.4917 -8.51317,-1.6309 -3.08394,0.925 -3.2518,4.7512 -4.7501,7.1619 -1.73949,2.7987 -6.02691,2.541 -6.96753,5.9991 -0.89345,3.2846 0.30167,7.9195 1.3683,10.8719 1.78417,4.9386 5.01492,9.1412 10.22686,11.181 3.00935,1.1777 6.24904,5.0671 2.41328,6.8415 -20.30937,9.3947 -43.65416,4.7138 -61.28669,-2.4433 -16.61107,-6.7425 -27.0105,-17.9367 -38.36717,-28.4701 -11.93428,-11.0691 -20.01694,-20.2657 -32.69775,-29.5165 -11.04135,-8.0549 -20.84121,-14.7888 -32.4559,-19.7043 -16.36662,-6.9266 -38.29849,-9.2351 -55.4899,-8.5172 z m 248.64822,94.4939 c 2.55547,4.8651 3.42342,9.8694 -0.20606,12.8034 -4.60783,3.7249 -11.55308,5.2915 -16.78729,3.3941 -3.2289,-1.1705 -13.60684,-3.7263 -15.89108,-4.4555 -3.8718,-1.236 -12.85814,-4.2563 -7.78454,-6.6926 3.15716,-1.5161 11.45917,-5.2526 15.25695,-7.5412 2.88083,-1.736 5.93786,-2.6406 9.26404,-3.3491 7.28923,-1.5527 13.23212,0.2896 16.14798,5.8409 z m -211.1629,-4.1657 c -2.36274,0.1519 -4.71377,1.1059 -6.12263,3.0267 -4.01898,5.4794 -2.08255,14.073 3.18586,17.6666 2.11423,1.4421 5.15894,0.315 7.4321,-0.8356 5.0173,-2.5397 6.4293,-9.2298 4.59559,-14.0792 -1.54406,-4.0834 -5.42986,-6.0139 -9.09092,-5.7785 z"
         sodipodi:nodetypes="cccsssssssssssssssscsssssssssssssssssssssssssssssssssssscsssscssssssssssssssssscccsssssssssssssssssssssssssssssssssssssssssssssssssscssssssssssssss" /><path
         id="path2257"
         style="opacity:1;fill:#000000;fill-opacity:1;stroke:#ff2a2a;stroke-width:0.02;stroke-linecap:round;stroke-linejoin:round;paint-order:stroke fill markers"
         d="m -216.90562,-1758.3015 c -1.66686,0.038 -2.86162,1.882 -3.21273,5.7072 -1.50601,16.4072 -3.84349,23.2624 -6.45025,29.7263 -3.70075,9.1766 -7.14565,17.2889 -12.47469,11.6536 -6.0851,-6.4348 -13.90195,-11.2903 -19.76934,-15.4838 -3.54684,-2.535 -5.87301,-4.4804 -11.48973,-6.0353 -9.96477,-2.7586 11.7276,14.6621 20.08146,36.637 3.40997,8.97 5.5449,17.8973 7.521,26.2063 1.01676,4.2752 -0.27875,8.3988 -3.5135,4.8807 -5.6977,-6.1969 -11.46311,-9.0015 -18.23144,-11.6866 -7.77668,-3.0851 -14.26671,-3.3981 -23.50761,-1.8286 -10.45533,1.7759 -15.29972,9.5267 -15.39788,14.6044 -0.18428,9.533 2.9636,13.4118 6.44701,22.2221 0.88657,2.2423 3.95963,0.5238 4.59351,-1.201 1.26261,-3.4356 -1.5653,-6.5294 -2.66392,-9.6129 -3.6463,-10.2339 -3.76281,-13.3932 4.36114,-18.6755 2.8086,-1.8262 11.45073,-1.6844 14.75656,1.1572 3.87677,3.3324 6.35485,7.3606 7.82174,14.9872 1.99139,10.3534 -5.79021,11.2882 -4.04058,21.4587 1.02187,5.94 4.26337,11.8018 10.17664,13.3645 6.7184,1.7755 13.09955,-1.8407 19.20968,-4.1449 3.80419,-1.4346 5.32205,-5.3844 8.1778,-7.8549 2.87312,-2.4854 5.85909,2.9311 6.92224,6.1683 0.9095,2.7693 -0.64951,7.0954 -3.08165,11.4028 -9.56533,16.9409 -12.28289,12.9585 -57.7789,37.9222 -27.72766,15.2142 -45.66833,18.1305 -78.93007,51.0806 -20.61142,20.4183 -46.68691,52.5119 -53.31922,98.0865 -2.04795,14.0727 0.66575,29.8925 2.42104,42.5153 0.46472,3.342 1.80477,4.8025 1.20923,7.5473 0.078,0.102 0.18239,0.2197 0.25838,0.3204 3.88377,-3.6431 7.35921,-3.0065 11.09183,-0.9751 -0.97362,-0.7172 -1.92376,-1.4648 -2.82257,-2.2785 -2.4995,-1.982 -3.1959,-3.6523 -3.06441,-6.7324 0.66447,-15.5653 8.74117,-26.6832 20.14089,-30.5598 3.75411,-1.2767 6.08491,3.4392 3.10679,4.995 -7.51548,3.9259 -6.75873,13.7393 -2.65566,17.8888 4.564,4.6156 14.94187,2.9144 18.38234,-1.8727 3.20824,-4.4639 6.02812,-10.1416 11.74606,-11.7249 3.69666,-1.0236 8.0385,1.5087 9.67538,4.4323 2.47093,4.4134 3.16236,14.7731 -0.64182,15.4761 -3.91707,0.7239 -3.35381,-3.7932 -3.90623,-6.3335 -0.74529,-3.4273 -4.78961,-3.7598 -6.76186,-0.9255 -3.08541,4.4341 -2.50327,12.2327 3.067,13.8611 6.08221,1.7781 12.31495,-3.2226 14.33349,-8.8294 2.89505,-8.0414 1.70575,-17.7016 -7.74578,-25.0145 -9.32752,-7.2168 -24.13328,-11.6271 -34.23357,-8.7039 -15.41495,4.4614 -24.21085,12.7378 -27.45052,24.6146 -7.25069,-42.2147 22.54361,-89.3508 35.80557,-103.6459 14.58665,-15.723 30.85052,-19.1741 40.11796,-18.0201 6.61749,0.824 9.8232,5.9206 9.66918,12.7723 -0.1125,5.0048 0.8905,11.1399 -8.34109,11.6903 -2.4012,0.1432 -6.12927,2.2844 -4.56407,4.9118 1.58525,2.6612 3.2086,3.716 5.82704,5.2891 5.75362,3.4567 12.67632,0.9013 18.28829,-1.8216 2.57813,-1.2509 6.05312,-3.9891 6.79028,-7.3768 1.26671,-5.8213 6.64733,-11.1742 12.81369,-10.0722 8.91339,1.5929 10.60035,7.764 10.49083,15.0192 -0.0538,3.5623 -2.12618,8.6361 -6.6151,10.5182 -2.85129,1.1955 -8.04073,0.8837 -8.52041,4.9496 -0.37064,3.1416 7.19553,-0.2825 10.01438,-1.356 6.75367,-2.5721 10.67227,-8.1245 10.51098,-14.3211 -0.0969,-3.724 -0.7324,-10.6913 -4.43125,-15.6042 -4.03353,-5.3575 -8.12839,-9.1691 -14.25546,-12.8773 -2.65388,-1.6061 -7.71858,-5.7054 -2.33061,-8.7927 3.37024,-1.9311 6.66304,-3.9633 9.92394,-6.057 14.48757,-9.3019 28.00077,-22.2778 37.1843,-35.1942 6.7118,-9.44 15.49735,-19.4662 22.08599,-28.2252 7.18279,-9.5488 10.88827,-10.1834 5.27874,-2.2495 -24.10885,34.0993 -24.41168,58.6713 -23.08541,89.0871 0.73269,16.803 9.94312,36.1683 15.4864,50.6682 1.51608,3.9657 -4.8248,2.3466 -7.75922,1.2118 -16.65959,-6.4428 -37.41676,-9.2403 -46.1393,0.016 -4.22846,4.4873 -5.01736,11.1546 -4.82813,15.8372 0.10462,2.5889 3.11919,8.6764 5.86527,7.2802 6.30088,-3.2035 0.31937,-4.7659 0.19017,-11.1114 -0.41304,-20.2865 26.71635,-15.5563 25.57415,-1.1855 -0.818,10.2918 0.86405,14.224 4.07572,21.9707 3.28414,7.9216 9.5935,10.3363 17.22014,11.1787 4.55387,0.503 2.845,-3.0237 0.21549,-5.0323 -2.48733,-1.9 -1.62295,-6.1781 -0.94981,-9.2376 1.22671,-5.5755 2.98114,-8.5353 6.27042,-13.1057 2.0818,-2.8926 8.11678,-6.7591 12.74702,-1.2893 3.5992,4.2517 6.49963,7.2534 9.07438,12.008 2.64518,2.4908 6.51803,4.5558 7.36906,1.664 0.85103,-2.8918 1.08265,-5.7325 3.9734,-8.3948 2.44248,-2.2494 5.73917,-5.7794 12.63076,-4.9573 2.70382,0.3225 9.83053,3.6589 11.19156,7.7478 1.78214,5.3541 -0.66748,11.3491 -4.08295,15.4523 -2.83484,3.4057 1.40777,7.3613 4.37441,4.9341 2.63036,-2.1521 7.09064,-1.2053 8.76277,-4.269 3.41585,-6.2586 5.04328,-11.5655 2.78846,-18.3927 -2.54754,-7.7134 -2.63748,-20.3783 7.09569,-23.9717 5.86774,-2.1663 12.24051,0.26 15.01459,6.0395 2.1394,4.4572 3.65413,10.1661 -2.24379,14.8621 -2.28905,1.8226 -6.38854,6.0327 -3.3538,8.0238 3.08145,2.0216 7.82291,-0.9408 9.25576,-3.9331 6.76686,-14.1316 2.42797,-24.1747 -6.27403,-31.226 -9.32202,-7.5537 -24.71039,-7.3804 -35.3534,0.06 -3.72194,2.6019 -4.87812,2.095 -1.17357,-6.8259 6.05767,-14.5875 12.49852,-36.9598 12.81058,-48.1816 0.80721,-29.0278 -2.26408,-50.2328 -15.3882,-74.3644 -8.76232,-16.1114 -1.8773,-8.5331 2.61689,-2.8086 16.62941,21.1818 37.76526,61.2789 51.89399,81.3495 3.67044,5.2141 10.8067,13.0792 14.80116,18.0852 1.60124,2.0068 2.93276,5.433 -1.49499,7.9747 -3.47214,1.9931 -7.52959,2.8852 -10.71305,5.302 -10.35383,7.8605 -6.35921,22.9367 -0.85886,30.9243 5.50468,7.9936 11.35682,11.5776 20.94704,10.8029 2.44858,-0.1978 5.23962,-2.8783 3.53312,-5.1836 -1.97854,-2.6729 -5.75318,-2.3983 -8.73383,-2.5281 -4.6165,-0.2011 -7.29362,-3.9966 -10.08983,-7.6662 -3.00226,-3.9402 -5.09101,-11.6035 -1.42627,-15.1851 9.01207,-8.8075 17.18532,-2.1978 24.5153,9.5044 3.243672,5.1783 10.562101,6.2237 16.61036,6.0792 14.72113,-0.3517 31.176045,-14.0764 34.38188,-27.4257 0.74145,-3.0875 -1.306138,-8.536 -4.53409,-6.0648 -2.830359,2.1669 -4.119409,5.8571 -6.468339,8.5571 -3.03882,3.493 -7.103151,7.7782 -12.071614,6.8399 -5.851335,-1.105 -9.975475,-11.4842 -9.2599,-16.0895 1.238144,-7.9684 3.952166,-13.6991 16.248104,-14.0162 7.047507,-0.1817 18.903878,2.8325 24.504964,4.9868 8.076568,3.1064 19.395158,10.5054 27.76678,17.0873 20.3430788,15.9947 54.802455,55.8732 47.833773,106.2788 -0.224081,1.6208 -1.517106,2.921 -1.967838,-0.5172 -1.770905,-13.5097 -11.086007,-24.4687 -28.8592207,-27.5131 -10.9620065,-1.8777 -29.8901663,-2.3217 -39.4606403,12.3946 -4.617365,7.1 -6.247356,15.4216 -0.584977,21.885 2.718707,3.1033 6.397476,5.9271 10.549227,6.8073 1.379079,0.2924 3.072809,0.7011 4.249869,-0.2486 2.782435,-2.245 1.56182,-6.4711 -0.301273,-8.9772 -1.945825,-2.6173 -4.324123,0.5445 -6.383073,1.403 -6.616973,2.7589 -8.386099,-5.7235 -8.668722,-7.4987 -0.752396,-4.7261 4.103864,-12.322 6.286955,-10.6175 2.501046,1.9528 4.882567,1.7172 6.237345,1.5885 2.006034,-0.1906 2.929114,-0.4784 3.553272,-0.1726 4.436141,2.1731 7.085304,3.2733 9.868648,7.2378 2.202058,3.1368 3.8996222,7.5258 7.959721,8.2957 6.5875726,1.2492 11.7968013,-6.0534 11.092863,-12.1269 -0.4057642,-3.5009 -1.9327817,-4.7462 0.5839437,-7.8631 2.1152465,-2.6196 5.8148423,-1.0572 8.5519323,-0.2026 9.117035,2.8467 10.801341,12.8407 10.653614,19.8158 -0.127521,6.0212 -2.455408,9.0895 -5.275647,12.0639 0.51243,-0.1623 6.228993,-1.8937 10.027811,0 1.804275,-2.2498 5.632278,-6.0212 7.397482,-13.3341 13.085305,-54.2094 -32.5577813,-109.9992 -76.523495,-133.2244 -14.409498,-7.612 -34.185762,-14.5277 -46.381148,-22.317 -38.681527,-24.7061 -59.314917,-40.9812 -89.122207,-66.3406 -3.37449,-2.8709 -8.35678,-7.8009 -11.76001,-10.5663 -7.55582,-6.1397 -4.3142,-25.3475 1.72703,-22.7976 3.38303,1.4279 5.96246,4.1642 8.16953,7.1603 5.59443,7.5943 15.406,9.0609 23.73912,7.2109 10.1107,-2.2446 16.55551,-19.9255 15.829,-26.7988 -0.45568,-4.3111 -2.51253,-9.0303 0.0729,-13.0871 1.99349,-3.128 6.30495,-9.0455 17.61081,-4.0871 9.83544,4.3135 7.4945,9.817 3.63854,15.1629 -2.65298,3.6781 3.80673,2.229 5.10356,1.0733 1.9381,-1.7273 3.59648,-3.5627 4.73718,-7.0672 1.51544,-4.6558 -1.88153,-8.405 -4.87102,-10.4154 -18.17431,-12.2219 -48.76237,-11.3041 -63.3088,-1.9487 -2.88915,1.8581 -4.8063,1.0219 -4.74286,-3.5352 0.18161,-13.046 -0.0967,-19.1313 3.09903,-29.8804 2.63954,-8.8781 4.83528,-16.4361 10.53063,-26.7167 6.44888,-11.6409 14.00621,-21.2439 -5.55367,-8.7793 -13.99426,8.9178 -13.69095,16.3807 -18.28415,25.431 -1.36321,2.686 -4.48659,-7.5878 -6.39548,-13.3589 -4.75554,-14.3774 -9.70366,-19.8206 -16.23777,-29.7491 -2.23993,-3.4035 -4.37877,-5.1731 -6.04562,-5.1356 z m 5.53601,56.9288 c 13.99448,0.1831 27.8528,10.6771 27.11852,27.7196 -0.13432,3.1174 -0.90107,12.5415 -2.34288,15.339 -1.19215,2.3131 -2.2959,-1.7481 -3.59339,-8.3836 -1.58687,-8.1155 -8.11839,-16.2718 -18.78025,-17.4708 -10.98404,-1.2352 -18.2249,5.8155 -21.69376,12.5382 -2.08101,4.033 -3.54235,9.748 -4.63641,7.1748 -1.14466,-2.6923 -1.301,-5.2207 -1.07486,-10.7437 0.52479,-12.8168 14.68016,-26.3086 25.00303,-26.1735 z m -0.92596,24.3309 c 11.01566,0.1908 16.25477,9.0172 17.81338,18.4593 1.83843,11.1372 -0.25401,22.9777 -2.58795,33.7277 -0.65019,2.9947 -2.25773,4.2351 -3.29024,2.5791 -5.37502,-8.6209 -7.57981,-19.9114 -5.98516,-29.2364 0.64117,-3.7494 -4.56406,-6.9149 -6.98976,-3.7631 -1.2912,3.0433 -0.52591,8.56 -0.1111,15.0342 0.31851,4.9712 1.07218,7.4762 -2.33268,14.2224 -1.50695,2.9858 -3.38237,-3.159 -3.60908,-5.0296 -0.4551,-3.755 -1.34174,-5.0241 -1.20561,-10.432 0.23878,-9.4856 -4.98979,-15.839 -6.4146,-22.5417 -0.74268,-3.4939 0.19261,-7.4581 3.19361,-9.5571 4.22745,-2.2433 7.92204,-3.5251 11.51919,-3.4628 z m 3.37189,60.9828 c 1.72386,-0.1791 3.13253,1.5409 5.06739,5.1263 10.22763,18.9524 20.04559,35.4571 20.29333,63.3972 0.13063,14.7326 -2.45967,23.6798 -24.75817,95.2681 -2.9313,9.4107 -3.84914,5.2534 -6.91586,-1.8454 -13.80771,-31.9619 -17.57607,-43.8755 -20.73259,-66.6476 -3.47011,-25.0346 -3.84097,-58.9719 20.08767,-89.0276 3.19509,-4.0133 5.23436,-6.0918 6.95823,-6.271 z m -38.93148,24.7158 c 2.2156,-0.1114 -2.59061,4.3913 -6.905,9.5751 -10.12368,12.1643 -20.39124,17.5302 -33.06568,26.8997 -18.50577,13.6801 -37.69839,21.1586 -75.89925,32.4357 24.94742,-26.0297 51.66554,-36.5317 72.16924,-47.4859 12.29733,-6.57 28.20341,-14.6315 38.86636,-19.6299 2.57723,-1.2081 4.09581,-1.7575 4.83433,-1.7947 z m 81.93971,4.6116 c 0.5431,0.01 1.64751,0.7066 3.53363,2.4061 30.7097,27.6717 86.622862,66.6217 107.492147,71.3078 -17.875954,-4.6781 -25.364316,-1.0902 -40.853837,-3.0836 -22.04868,-2.8376 -28.7969,-15.2804 -42.28993,-29.5475 -8.52548,-9.0146 -16.16466,-19.8618 -20.2122,-27.1327 -1.35706,-2.4378 -9.9071,-13.9763 -7.66981,-13.9501 z m -43.72298,30.924 c -0.52548,-0.054 -1.0595,-0.055 -1.59524,0 -6.38851,0.694 -8.64816,5.4905 -8.26475,9.3557 0.50664,5.1076 5.8888,8.1333 8.51841,8.1535 5.65815,0.043 9.52518,-5.7224 8.7419,-11.0276 -0.46451,-3.1462 -3.72195,-6.1057 -7.40032,-6.4845 z"
         sodipodi:nodetypes="ssssssssssssssssssssssssssssccccsssssssssssssscsssssssssssssssssssscsssssssssssssscsssssssssssssssssssssssssssssssssssssscsssssssssssscssssssccsssssssssssssssssssssssssssssssssssssscssssscsssssssssscscssscscssscscsssscc" /><path
         id="path1204"
         style="opacity:1;fill:#000000;stroke:#ff2a2a;stroke-width:0.02;stroke-linecap:round;stroke-linejoin:round;paint-order:stroke fill markers"
         d="m 148.38009,-1652.1353 c -0.72861,0.046 -1.51422,0.3279 -2.36213,0.8966 -2.57403,1.7264 -5.2442,3.3637 -7.36544,5.7092 -3.45992,3.8257 -4.8116,10.2486 -9.93273,11.8204 -14.45662,4.4372 -15.61008,9.8835 -19.07429,18.9415 -1.30385,3.4093 -6.16162,3.8236 -8.87697,1.9901 -8.224931,-5.5537 -14.023704,-8.2044 -23.616133,-9.1421 -14.256952,-1.3937 -29.131988,12.8468 -34.085258,27.0676 -2.023594,5.8097 -8.760499,24.729 9.369454,37.3352 5.016887,3.4884 14.347678,3.7714 19.21278,3.0804 4.015232,-0.5703 7.505404,-4.5827 8.960177,-8.1556 1.977974,-4.8579 1.729629,-11.839 -2.426725,-15.182 -4.731615,-3.8057 -9.944231,-3.4816 -12.666411,0.3928 -2.061539,2.9341 -0.114112,6.6942 2.428793,8.4951 2.165871,1.5336 4.380293,3.6004 3.968233,6.5582 -0.457385,3.2832 -3.63559,2.7032 -6.002734,2.4748 -4.850074,-0.4679 -8.843765,-2.1662 -11.543999,-4.6287 -9.879077,-9.0094 -8.683238,-16.0515 -3.332613,-25.539 5.5802,-9.8945 15.79779,-14.5574 25.487333,-11.2272 19.271374,6.6233 35.592633,25.1698 21.37699,51.7498 -5.408322,10.1124 -14.792546,17.0376 -23.877095,23.4683 -16.60756,11.7568 -41.61073,12.3744 -56.450301,16.3298 -4.028026,1.0737 -9.5794238,4.1883 -8.1240524,1.2635 6.8560744,-13.7785 10.4960944,-26.4692 8.8464884,-40.5319 -1.861985,-15.8732 -9.9463999,-28.0405 -16.9607218,-35.6025 -5.5477277,-5.9809 -16.6324422,-11.5763 -28.8860922,-12.2824 -27.310469,-1.5738 -39.679046,12.2882 -62.494377,5.7035 -6.167108,-1.7799 -11.473576,-5.3886 -16.312696,-9.5281 -8.62058,-7.3742 -9.71246,-20.0156 -3.47163,-26.3803 7.79996,-7.9548 17.341296,-8.7739 24.685319,-3.0799 3.95884,3.0694 6.090616,7.6396 4.163054,11.8525 -1.231247,2.6911 -4.371803,5.0149 -7.457943,3.4463 -3.337168,-1.6962 0.61729,-5.3053 -1.990059,-7.0037 -2.683268,-1.7478 -5.874469,1.6503 -6.290573,3.9641 -0.608812,3.3855 -0.23819,8.0593 3.028239,10.0779 4.287844,2.6499 17.46791,-1.013 20.725867,-4.623 3.623505,-4.0151 4.906579,-9.8304 3.899504,-15.0182 -2.275016,-11.7195 -16.133915,-15.8464 -27.492379,-13.9965 -8.657489,1.41 -20.373069,7.7313 -22.631689,20.9785 -1.26076,7.3946 -0.15265,13.543 1.9513,17.5814 5.53789,10.6297 9.78058,10.3164 14.48387,18.7963 2.851402,5.1409 9.592977,8.5445 14.867824,10.4805 10.96597,4.0248 23.002095,1.6581 30.584697,1.5291 3.286003,-0.056 2.719277,3.3246 0.952396,7.9085 -3.018516,7.831 0.734189,20.8245 7.070887,26.4873 6.263798,5.5977 18.241063,11.5488 31.218766,6.9593 5.514512,-1.9502 8.8247539,-8.2818 9.2955565,-14.0602 0.2814293,-3.4541 0.4661959,-8.2992 -3.0861165,-10.1048 -3.224124,-1.6388 -4.640017,3.765 -3.429765,5.718 2.600636,4.1966 -0.38702,6.2722 -3.261299,8.1949 -4.430654,2.9638 -10.513992,4.9338 -15.291057,1.8681 -9.227365,-5.9217 -10.126504,-21.2596 -1.629358,-27.926 6.238044,-4.894 13.713947,-8.1676 21.69325,-6.9169 11.958324,1.8744 23.7316662,17.5102 25.80876,27.0351 1.808381,8.2927 -0.549786,23.6338 -6.9008704,35.0635 -3.9170934,7.0494 -4.66711697,9.786 -9.0878174,12.8514 -20.4762492,14.1988 -32.1944312,21.4877 -46.1610062,38.409 -12.035612,14.5818 -15.646185,24.9768 -18.320329,33.6352 -3.107937,10.063 -3.277962,15.5599 -4.049365,33.7395 -0.135665,3.1972 0.696125,9.1278 -3.191537,7.9665 -15.292974,-4.5682 -29.710876,-10.875 -44.526996,-12.0582 -22.63108,-1.8074 -39.73677,5.0221 -50.01349,12.4333 -10.94616,7.894 -22.2434,18.9495 -29.76821,28.9972 -1.49482,1.9961 -2.84733,4.1027 -4.71289,3.7383 -0.80502,3.8602 0.63663,7.0935 5.86425,9.2702 l 0.2129,-0.1214 c -0.7118,-1.3256 -1.47454,-2.8585 -0.79581,-4.3631 1.6292,-3.6113 3.89902,-7.2884 6.49056,-10.3425 6.36125,-7.4966 17.93167,-19.7305 29.19408,-25.7059 19.71923,-10.4624 45.84218,-11.6371 64.290648,-4.0881 16.415985,6.7173 21.746691,5.5153 35.850525,23.1443 3.596323,4.4952 7.756784,9.3209 11.60291,13.5697 1.870994,2.0669 4.545885,3.2026 5.574336,8.2636 3.05261,0.028 5.538979,1.6412 6.556189,2.4205 -1.419278,-2.3654 -0.806972,-8.1283 -8.4708,-15.2729 -9.877979,-9.2091 -10.230782,-11.4494 -14.804265,-20.7977 -3.944891,-8.0637 -2.127725,-14.8037 -2.477368,-23.5945 -1.040993,-26.1728 8.900191,-44.2329 19.849434,-56.5665 17.253538,-19.4356 32.752811,-30.8656 46.35427703,-39.9723 5.46903617,-3.6617 11.35786797,-6.0905 16.18299197,-5.9981 4.683736,0.09 9.138678,1.8553 9.318294,5.0788 0.175255,3.1453 -4.721101,5.3102 -4.984192,8.8971 -0.388057,5.2907 2.328977,10.3827 6.481775,14.0245 3.371065,2.9562 8.663347,4.8038 12.734106,3.8054 5.312576,-1.3029 11.381202,-3.3973 16.4915,-0.4929 3.381038,1.9216 6.657092,4.3764 8.92452,7.614 2.098376,2.9962 0.925689,7.148 -1.766817,9.3363 -3.158459,2.5671 -7.158943,4.9423 -11.402405,4.3641 -3.703002,-0.5045 -3.810837,-5.8462 -7.269841,-6.351 -3.865034,-0.5641 -3.495225,5.9147 -1.144632,7.4987 7.923394,5.3403 19.616303,2.4577 24.894604,-4.2028 2.950983,-3.7237 5.206656,-7.9702 6.043042,-12.9124 2.134301,-12.6115 -7.558783,-16.7707 -12.980086,-25.0827 -1.674094,-2.5667 -2.198956,-7.0353 0.966349,-8.2873 5.769424,-2.282 11.791121,-4.6221 16.041915,-9.2388 6.391178,-6.9411 11.302451,-14.8212 16.203662,-22.9029 2.378517,-3.9221 3.899866,-8.6562 6.332428,-9.8671 1.82024,-0.9061 0.99911,5.0721 0.58756,7.7664 -2.07093,13.5578 -9.608454,42.4439 -5.278745,60.5116 3.038205,12.678 9.413215,16.0084 12.049915,21.1997 2.42435,4.7732 -5.26816,3.5422 -8.01037,3.0344 -4.857402,-0.8994 -12.396563,-0.9934 -17.135386,0.6641 -4.705923,1.6459 -12.137452,8.0322 -12.80387,17.0816 -0.469386,6.3739 6.420503,8.1692 5.628081,4.73 -0.749626,-3.2534 -1.599467,-4.4564 -0.495577,-7.4766 2.237956,-6.123 10.213543,-8.1611 15.724621,-5.6033 4.187057,1.9433 7.668742,5.7073 9.121921,10.1963 1.13492,3.5058 -1.208321,6.4448 -1.615402,9.8206 -0.554337,4.5969 2.257932,8.8877 6.793902,10.8035 7.26741,3.0695 13.74122,1.3091 19.50992,-4.4452 2.43309,-2.427 3.40752,-5.5775 4.37854,-8.6476 0.98986,-3.1297 6.38243,-4.0564 7.41144,-0.9172 3.88132,11.8406 1.8522,20.3332 0.93327,32.4709 -1.30181,17.195 -3.66538,33.6662 -15.13396,53.0846 -6.53605,11.0667 -11.59031,18.7991 -26.206666,26.7456 -5.762572,3.1331 -9.196444,5.6574 -15.780432,6.5309 -6.413458,0.8509 -11.437578,0.5736 -18.954916,0.6692 -3.17497,0.04 -8.136937,-1.0352 -8.294067,1.4837 -0.171581,2.7504 1.427402,2.2737 8.13077,2.2613 7.966624,-0.015 15.422025,0.5462 23.008415,2.9838 25.326096,8.1374 38.531536,30.6952 45.835966,52.1064 5.9966,17.5777 4.01322,32.4178 3.77341,44.5306 -0.37561,18.9716 -2.30376,23.211 -6.09834,32.5655 -1.90526,4.6969 -5.7888,8.7891 -5.44463,3.9635 0.28474,-3.9923 0.19889,-8.1825 -1.67638,-11.8556 -3.02072,-5.9167 -10.04063,-8.6789 -16.48168,-7.5556 -3.72799,0.6501 -7.904008,3.338 -7.528224,7.2482 0.909933,9.4681 -4.219837,12.1511 -8.342643,12.2783 -6.301483,0.1944 -11.850964,-1.831 -13.418819,-4.347 -1.378064,-2.2114 -4.319811,-8.3293 0.03152,-13.2773 4.435368,-5.0437 8.93155,-7.107 16.358174,-7.3783 -6.496649,-0.502 -5.112794,-1.7112 -7.700822,-2.3766 -7.141741,2.2403 -14.594871,7.8302 -16.051733,12.3977 -1.939373,6.0804 -1.608842,10.8705 -0.543119,15.5277 2.607974,11.3969 19.169888,18.5547 28.485083,17.6661 2.81028,-0.2681 11.522123,-2.3923 8.881633,1.5565 -10.054251,15.0358 -6.816951,29.8933 -8.109587,49.4776 -0.169624,2.5699 -1.772084,0.4586 -2.315621,-0.1256 -15.408603,-16.5622 -29.542605,-27.403 -50.345764,-26.7389 -2.62812,0.084 -6.971528,-1.6645 -1.958537,-5.8084 7.466045,-6.1716 12.981098,-20.4574 11.416357,-28.2428 -1.219043,-6.0654 -4.710112,-14.0857 -13.533541,-14.5334 -4.517019,-0.2292 -2.600211,4.357 0.962732,6.4058 8.903297,5.1196 6.669486,16.3579 -2.793111,19.0427 -3.908349,1.1089 -6.80993,2.9049 -11.393103,0.054 -3.162118,-1.9671 -7.99043,-2.1857 -10.868587,0.6165 -4.476861,4.3588 -5.138035,12.6699 -3.471106,17.092 1.048622,2.7818 6.553257,10.8801 -3.0555209,7.887 -39.9406911,-12.4412 -65.6959391,-44.4244 -70.2609341,-78.0926 -1.235538,-9.1125 -0.07612,-18.0465 0.790132,-26.9973 0.416008,-4.2985 1.846959,-8.2221 3.039034,-12.318 0.608842,-2.092 2.214581,-4.8125 0.215552,-6.4767 -2.925784,-2.4357 -4.153742,1.838 -5.079793,4.0995 -10.019637,24.4688 -38.15925,32.5233 -66.615132,33.6371 -25.41393,0.9948 -46.70449,-13.6806 -59.50383,-30.8102 -2.57401,-3.4449 -5.38299,-8.8296 -7.4817,-11.7777 -2.66945,-3.7499 -3.13842,-6.3664 -3.08442,-10.34 -6.45658,8.438 -2.61768,18.9514 -1.63194,21.3118 1.23754,-0.955 2.85209,-1.611 3.76205,-0.5498 12.34665,14.3983 29.19536,31.932 51.06462,35.7397 31.21843,5.4355 60.614989,-4.869 76.822411,-19.7043 2.854718,-2.613 4.121612,-3.921 3.488927,-0.2741 -7.200449,41.505 13.410581,68.8999 40.056722,92.7719 6.496378,5.82 11.905995,13.0203 14.324454,16.0153 13.4587799,16.6672 16.7398761,42.55 0.5410527,62.9098 -7.9936607,10.047 -22.6181157,6.3364 -28.0716717,2.3436 -5.048457,-3.6962 -8.801351,-8.9379 -9.375138,-14.9459 -0.543522,-5.6911 4.695742,-12.6575 10.997261,-14.765 4.280568,-1.4316 9.50514,-1.9772 11.963611,2.1058 1.918378,3.186 -0.378536,6.6521 0.908472,9.9307 1.475497,3.7588 5.792006,1.1519 5.999117,-2.0268 0.451962,-6.9366 -2.982517,-15.1032 -10.02006,-16.9188 -6.225473,-1.6061 -12.815514,0.8652 -18.083651,4.2121 -10.168835,6.4603 -16.489531,12.0862 -16.353007,30.1522 0.04854,6.4236 5.964335,15.4162 13.705107,20.576 1.81522,1.21 7.879653,3.9518 4.924247,4.98 -16.797724,5.8442 -29.346012,2.4642 -41.947827,8.1778 -12.166694,5.5164 -19.152037,16.39543 -20.720697,28.8236 -1.24237,9.84305 0.13287,20.18267 5.2064,28.64632 6.553225,10.93206 24.105125,12.16488 35.364248,6.77736 3.976677,-1.90286 8.187542,-3.51541 9.368937,-7.6817 1.330796,-4.69318 -3.25123,-14.92968 -6.610966,-15.44402 -3.125112,-0.47842 -6.630524,-0.72367 -9.570992,0.48369 -3.583164,1.47126 0.404051,5.98043 -0.592729,9.30176 -0.999704,3.33106 -3.671219,5.7059 -12.232328,5.15937 -14.467704,-0.9236 -19.74285,-17.10106 -13.19506,-27.49754 3.106283,-4.93212 9.475399,-5.83672 14.806331,-6.7753 16.22031,-2.85581 32.515897,-2.31077 45.695919,-5.22294 11.054376,-2.4425 18.250071,-3.2426 25.913664,-11.0588 17.0499599,-17.3893 19.8884028,-39.1503 20.1383054,-61.5507 0.1277463,-11.4507 -3.0818448,-22.5997 -8.0475708,-32.7655 -3.0345966,-6.2124 -5.9814378,-9.4712 -9.7063843,-16.0729 20.8277607,8.9427 41.7551417,14.2141 61.8096637,19.9941 9.67528,2.7886 19.410221,6.0519 28.067538,11.2159 8.47566,5.0556 25.375334,11.212 27.776084,20.1083 2.71243,10.0513 4.05481,25.706 -3.61322,34.7716 -5.397995,6.3818 -13.775627,11.6293 -22.334035,9.8893 -11.378098,-2.3133 -16.328165,-10.5654 -11.894882,-20.6902 2.792773,-6.3781 5.387271,-8.0077 12.216826,-7.9293 4.253206,0.049 3.866083,5.2598 2.061889,7.8745 -2.65518,3.848 4.298551,5.3069 5.655469,1.4629 1.215433,-3.4432 2.5625,-7.0016 1.286227,-10.3673 -4.400742,-11.6054 -22.046615,-6.4684 -25.952421,0.3814 -7.176557,12.5858 -4.977995,24.2804 4.83743,34.0697 4.223296,4.2121 22.49276,13.3168 30.173867,7.3459 2.30058,-1.7884 3.79979,-5.8495 7.14737,-5.2442 3.9047,0.7061 2.20126,6.0982 3.10058,8.9587 1.5976,5.0813 7.04358,7.7609 11.90315,9.23298 8.10667,2.45575 14.34785,2.07488 20.58686,5.7304 17.25902,10.11232 23.96023,24.38397 31.84302,35.79472 1.96487,2.84425 5.24118,4.91769 8.63875,4.1429 2.51702,-0.574 4.37407,-2.16017 1.21233,-7.11482 -2.86999,-4.49745 -2.74901,-6.23802 -5.2896,-10.40815 -8.32565,-13.66568 -14.00716,-37.67013 -10.11618,-47.65083 3.13914,-8.0521 4.22072,-17.9982 -1.78129,-22.1635 -2.81401,-1.9529 -4.9578,-7.3959 -0.50178,-8.5866 5.01377,-1.3397 10.37472,-3.4056 13.49375,-7.783 5.98648,-8.4016 7.37671,-19.6219 5.12062,-29.5423 -2.36477,-10.3983 -10.73929,-17.5147 -20.58737,-20.8572 -10.93027,-3.7097 -21.19892,0.7798 -25.07857,7.3402 -2.15117,3.6376 -4.11661,9.2091 -2.3673,13.3898 2.3257,5.5582 5.69722,5.6513 8.77982,5.7118 3.05795,0.06 7.96474,-0.7379 8.62893,-3.3011 0.89243,-3.4433 -2.29371,-5.6793 -4.80177,-5.6523 -2.69049,0.029 -4.53902,3.4117 -4.02043,5.9247 -2.2527,1.5814 -4.71112,-1.6738 -5.05033,-3.0453 -0.82513,-3.3363 0.21178,-6.917 1.74769,-9.988 2.82208,-5.6427 11.81109,-9.0447 20.06131,-5.5475 15.05277,6.3807 15.6431,23.2757 7.45484,32.6719 -8.4476,9.6937 -27.78062,12.1756 -35.96163,7.5572 -8.00263,-4.5178 -17.96543,-14.2095 -20.8132,-21.961 -3.54728,-9.6556 -4.88243,-20.6665 -1.71772,-30.3867 8.03345,-24.6744 18.44503,-37.8647 22.56245,-57.8048 0.93843,-4.5447 2.66724,-0.6439 4.67826,2.8489 4.84418,8.4137 7.97248,17.0176 15.30243,23.1232 8.17175,6.8068 21.04715,17.5946 34.49298,16.8398 19.16482,-1.0759 31.46294,-8.3118 45.5073,-18.6893 15.20455,-11.2347 15.67235,-31.5417 19.74195,-47.6529 2.33528,-9.2452 5.71239,-18.5444 12.46591,-25.385 6.23326,-6.3136 12.81171,-6.7968 18.84484,-5.1697 7.61332,2.0531 13.73195,8.3664 15.89774,16.7447 2.09706,8.1123 -0.86552,14.534 -10.62674,13.4085 -4.59486,-0.5299 -4.3171,-4.429 -4.3739,-6.9288 -0.1091,-4.8017 -7.55975,-7.5424 -10.11152,-3.3435 -1.08701,1.7886 -0.50676,4.1818 -0.29508,6.2224 0.62063,5.9828 4.55825,9.8962 10.16217,11.8044 3.9693,1.3516 8.76796,0.5077 12.63644,-1.1059 6.43993,-2.6862 10.14412,-9.7664 9.67383,-16.4842 -0.45614,-6.5156 -4.64446,-11.9554 -8.15454,-17.1954 -8.76427,-13.0835 -19.88188,-16.2132 -31.13867,-12.624 -13.12851,4.186 -27.25812,15.3635 -35.64485,28.559 -3.74081,5.8857 -8.34521,14.1784 -6.15208,21.1884 1.45506,4.6509 0.97444,8.1688 -0.4439,12.6333 -0.91822,2.8903 -3.9523,6.1836 -6.91327,4.3455 -2.45589,-1.5245 -2.28091,-4.9321 -2.52595,-7.5091 -0.28967,-3.0463 -2.23543,-5.406 -4.39559,-7.3613 -5.96531,-5.3994 -14.49884,-7.1938 -22.3759,-5.9382 -10.56551,1.6842 -16.30675,6.1066 -20.55637,11.8975 -3.47831,4.7399 -4.70787,10.7325 -1.71204,16.4972 1.42808,2.748 5.08785,6.4 7.47138,3.3553 1.86203,-2.3786 -0.54987,-5.2231 -1.51774,-7.5618 -1.6193,-3.9129 -0.273,-8.9227 3.80649,-11.1781 6.38343,-3.5292 14.08734,-2.3406 18.51308,7.4853 5.73001,12.7215 2.68123,25.1708 -13.15733,28.2717 -16.94778,3.318 -28.46578,-11.1904 -34.83974,-20.5988 -6.41609,-9.4706 -10.40555,-15.8299 -9.71568,-28.0184 1.58268,-27.9628 0.18921,-53.602 -10.89856,-72.7718 -7.07174,-12.2264 -15.85805,-23.3747 -27.47326,-31.1991 -2.787653,-1.8779 -11.889471,-6.1428 -8.476487,-8.0523 12.503927,-6.9955 22.972997,-14.9304 29.670027,-24.9411 12.19743,-18.2328 18.35189,-31.0479 20.69176,-64.1852 0.72109,-10.2123 1.75775,-19.7798 7.3241,-26.788 8.06038,-10.1482 18.57315,-15.3063 29.9868,-13.6163 16.51869,2.4458 22.95143,12.5845 16.1804,25.446 -1.93547,3.6765 -4.02557,7.6047 -7.70599,9.9002 -3.16925,1.9767 -6.36407,-0.3602 -8.11475,-2.8179 -1.64413,-2.3081 -3.29039,-1.0564 -3.07113,1.7544 0.38506,4.9364 9.94374,8.9629 14.91796,9.9064 4.67651,0.8871 9.04558,-0.9479 12.70361,-3.4158 5.29504,-3.5723 9.75955,-8.5376 12.51087,-14.3263 1.06026,-2.2308 5.10284,-5.2678 6.3748,-2.4241 3.9559,8.8441 8.38957,15.3611 13.18163,23.4538 7.42821,12.5445 17.73279,20.1284 29.14395,22.3201 5.04143,0.9683 17.25747,-0.087 22.25498,-1.5275 7.38571,-2.1281 9.93955,-5.9834 14.70453,-11.8386 4.67537,-5.7452 5.43491,-20.1485 2.03398,-31.087 -1.63754,-5.2668 -6.38431,-8.986 -11.67836,-9.9529 -7.81157,-1.4267 -16.9243,1.0461 -21.5315,7.858 -3.8566,5.7021 -3.08098,12.0014 -1.06557,18.0872 1.42165,4.2929 7.2179,7.5782 11.44272,6.5934 3.96528,-0.9243 5.15679,-5.1755 5.82341,-8.7467 0.68435,-3.6662 -2.18964,-7.7055 -5.59345,-5.7821 -3.48661,1.9701 -7.64659,-1.9014 -4.79299,-4.6865 2.66348,-2.5996 7.15336,-1.9643 10.49496,-0.8165 3.79527,1.3037 8.51185,2.8937 9.66556,7.1194 3.48357,12.7594 -1.41817,23.9835 -11.48767,27.6676 -7.17266,2.6243 -16.41542,2.935 -22.10459,-1.2955 -15.7688,-11.7257 -17.67702,-27.5927 -20.56671,-42.7773 -2.07618,-10.9099 -8.46028,-22.6864 -20.19825,-29.1651 -13.17905,-7.2741 -37.50104,-10.9382 -49.28226,-5.4968 -12.46151,5.7555 -24.5391,15.353 -28.94242,27.3647 -0.86654,2.3638 -2.21542,6.7497 -2.89439,2.6593 -7.24457,-43.6428 -22.7232,-44.9498 -29.02717,-66.6776 -4.3666,-15.0502 -6.46209,-40.1416 -2.72283,-58.6951 2.55377,-12.6716 12.30491,-17.0812 20.51347,-21.0742 8.38912,-4.0808 17.77381,-3.3787 25.93537,0.4258 5.454,2.5424 13.64259,13.8975 12.6814,21.7976 -0.4599,3.7801 -2.60025,8.3461 -5.37384,11.1198 -2.95425,2.9544 -6.55296,6.2959 -16.24345,6.7071 -10.22172,0.4338 -11.49647,-8.8046 -11.38742,-12.2184 2.55851,-0.016 5.0567,-0.2019 7.56595,-0.8506 3.80312,-0.9832 5.12205,-6.4059 2.26704,-8.7096 -2.637,-2.1276 -6.37599,-3.8719 -9.77459,-3.2385 -5.85666,1.0914 -7.01607,6.0861 -6.24045,11.7698 1.98086,14.5155 11.50791,18.7951 16.94264,18.7787 13.93671,-0.042 23.03813,-6.8312 27.52338,-13.5532 8.33868,-12.4971 4.47407,-33.2485 1.49655,-39.8564 -2.85382,-6.3336 -9.06301,-17.991 -25.63306,-21.0933 -4.12699,-0.7727 -1.65804,-8.1193 0.2558,-10.5219 9.41567,-11.8201 7.55175,-17.4444 6.97166,-26.6185 -0.55078,-8.711 -2.06191,-11.3226 -5.04155,-17.6837 -1.28558,-2.7445 -2.95647,-4.7321 -5.14232,-4.5945 z m -28.48302,50.1788 c 2.47747,-0.056 5.08784,0.6271 7.57215,1.5415 4.23787,1.5599 6.51184,4.3556 7.99331,8.1385 1.56864,4.0058 1.46428,10.6178 -7.76541,17.4186 -4.14606,3.055 -14.65836,13.4381 -13.77849,5.7583 0.58959,-5.1461 -1.57177,-11.2679 -3.4184,-14.8141 -2.9676,-5.6986 -2.11397,-10.1886 2.62206,-15.1463 1.95278,-2.0442 4.29734,-2.8402 6.77478,-2.8965 z m -3.3662,534.7627 c 5.9278,3.9694 9.5841,10.575 15.46107,14.5196 5.36689,3.6022 10.21621,8.9417 9.93686,15.7303 -0.20411,4.9601 -0.55997,10.4315 -5.77587,12.4261 -6.23411,2.384 -13.81482,-3.865 -14.75724,-9.7105 -0.79905,-4.9564 -3.39718,-9.401 -3.72329,-14.3206 -0.41443,-6.252 -1.48633,-12.3933 -1.14153,-18.6449 z"
         sodipodi:nodetypes="sssssssssssssssssssscsssssssssssssssssssssssssssssssssssssssssscccssssssccssscscssssssssscsssssssssssssssssssssssssscscsssssssssssccssssscssssssssssssssssssccssssssssssssssssssssssssssssssssscsssssssssssssssssssssssssssssssscsssssssssssssssssssssssssssssssssssssssssssssssssssssssssscssssssssssssssssssssssssscssssssssssssscsssssscssssscs" /><path
         id="path420"
         style="opacity:1;fill:#000000;stroke-width:1"
         d="m -402.96403,-1234.1934 c -5.69285,0.5649 -7.93552,2.212 -10.85464,0.2729 l -4.1522,9.2263 c 1.6238,0.4809 0.82037,3.6032 0.23513,5.5128 -1.50843,4.9219 -2.54899,15.804 -0.71572,25.8672 5.50351,30.21 10.63214,57.6548 38.22454,84.1059 9.93324,9.5225 21.27223,16.9812 32.62281,24.5215 24.64066,16.369 50.50132,26.4097 76.97102,37.9259 18.20766,7.9216 39.53883,17.4035 55.13565,43.5772 10.32419,17.32538 6.11813,28.45813 -0.4594,41.25017 -1.20538,2.34421 -5.92459,6.79766 -6.72983,2.60397 -1.45017,-7.55248 -5.63485,-14.63407 -11.80909,-19.14146 -5.12854,-3.744 -15.11881,-2.24007 -19.00039,0.8077 -4.20084,3.29846 -9.18103,7.9045 -8.72892,14.05344 1.10653,15.04933 -18.70958,16.11021 -23.86381,3.73371 -1.60361,-3.85065 -2.48964,-11.57565 -1.38829,-14.87194 2.32539,-6.95976 7.41434,-8.28969 12.37409,-8.51229 2.32084,-0.10416 6.19995,0.28237 8.46304,-2.62774 1.77712,-2.28521 2.76125,-9.52229 -0.3917,-8.70438 -15.2898,3.96632 -23.77773,9.45839 -26.56737,19.84995 -4.01326,14.94962 -0.24738,33.36118 12.94908,45.00294 10.13612,8.94196 24.40939,10.65198 35.83192,5.54798 3.13769,-1.40203 6.12543,-4.67871 9.73067,-3.62665 3.65979,1.06798 1.90211,5.89326 1.0325,8.72505 -3.35319,10.91928 -8.76935,20.94894 -14.31541,30.83171 -3.23643,5.76715 -8.18439,10.88606 -8.77259,17.8971 -0.38732,4.61668 6.20596,8.26003 8.93796,4.53357 5.24836,-7.15878 8.99264,-15.38492 14.78204,-22.16402 2.55093,-2.98701 6.38995,-9.41846 9.82472,-6.65593 5.79569,4.66139 7.59206,11.96032 8.29407,24.43262 0.56245,9.99283 -0.21009,14.67081 0.70485,25.11796 0.91774,10.47921 15.57915,7.70952 16.66407,3.0136 3.31144,-14.33299 4.52097,-20.58529 9.42446,-32.64174 1.20072,-2.95226 2.30381,-7.33722 5.18813,-8.65698 6.38885,-2.9233 17.5274,11.50465 21.46949,16.23105 1.85618,2.22548 3.13144,7.07519 6.43062,6.05132 5.60006,-1.73792 0.0349,-13.78744 -1.60255,-18.05396 -6.2003,-16.15531 -10.90817,-27.43516 -16.7183,-42.31704 -1.073,-2.74835 -0.0288,-9.38101 2.91558,-6.94169 5.19443,4.30338 15.35136,8.83787 23.98481,7.78256 13.93492,-1.70335 29.36683,-10.92018 31.38959,-24.86266 1.55052,-10.68743 2.60369,-19.46832 -1.89032,-29.18891 -2.77582,-6.00412 -9.20442,-9.38371 -15.49156,-9.66505 -3.58751,-0.16053 -7.22512,0.0802 -10.77919,1.16066 -3.36958,1.0244 -3.47812,7.54241 0.32246,5.81411 3.00415,-1.36613 6.69826,-1.61559 10.02396,-1.2094 8.29052,1.0126 12.52142,9.54629 11.53599,16.32779 -1.82828,12.58188 -21.379,14.4436 -26.2253,6.47203 -6.85663,-11.27832 -18.206,-13.10469 -26.59476,-3.72794 -2.84905,3.1846 -5.26247,9.27512 -7.5954,5.04362 -3.25755,-5.90859 -7.70803,-13.51253 -7.96747,-19.42311 -0.40844,-9.30521 2.62557,-18.83686 8.22275,-25.99324 19.04278,-24.34748 57.31919,-43.69068 78.59727,-54.89278 40.905102,-21.535 66.161344,-47.7205 87.162125,-65.782 10.1325979,-8.7145 28.506602,-28.4008 39.996008,-48.5686 8.712769,-15.2939 11.679599,-27.5797 13.846183,-40.612 0.529142,0.2215 1.057483,0.2983 1.582849,0.3167 0.414191,-1.9315 0.554725,-7.697 -8.856823,-16.6966 -1.889064,2.2904 -5.680755,3.2684 -13.323218,-1.2129 6.38708,5.4868 10.192699,11.4519 6.850228,18.4444 -3.418342,7.1512 -9.968683,12.0271 -15.404228,13.2803 -2.9548894,0.6812 -7.67062976,1.3029 -9.51311447,-1.9141 -1.32208713,-2.3084 1.10882522,-4.7583 2.70526127,-6.3892 2.0098072,-2.0532 4.7539783,-3.5827 4.5449422,-6.5795 -0.2545786,-3.6497 -4.2134609,-4.4984 -7.13806561,-5.0979 -11.76615239,-2.4118 -19.51575939,6.2543 -27.47339839,13.1258 -4.172886,-3.9879 -5.750454,-9.1246 -5.475495,-15.6119 0.0213,-0.5025 0.856337,-0.5993 1.429887,-0.6821 2.992905,-0.4321 6.9544,2.8996 9.134843,-0.5054 1.111853,-1.7363 2.293534,-5.0739 1.639176,-6.4379 -1.431197,-2.9834 -8.774114,-2.5763 -12.273323,-1.1467 -3.219624,1.3154 -3.413723,6.5582 -3.462908,10.1587 -0.106316,7.7828 1.340011,17.0281 16.769209,24.232 9.22254,4.3059 30.742608,5.8716 41.096751,-4.7682 5.746616,-5.9052 7.078302,-10.428 10.076904,-17.7106 1.382735,-3.3582 4.106124,1.5317 3.624585,5.2101 -2.513592,19.201 -14.605754,39.8841 -23.885364,52.6805 -11.7623994,16.2199 -27.525856,34.3034 -48.467843,41.8692 -11.54147,4.1696 -19.609271,6.5876 -29.441613,-0.1111 -10.105379,-6.8847 -8.086234,-12.1826 -6.433716,-17.3379 2.494755,-7.7828 8.574573,-11.7087 18.416447,-4.2277 3.738221,2.8415 2.607881,-1.7877 0.719853,-4.225 -7.770023,-10.0307 -19.763333,-12.3896 -30.770215,-7.9691 -6.498069,2.6097 -12.784012,6.8271 -20.116597,6.3986 -6.65825,-0.3891 -11.18643,-7.0678 -10.84224,-13.4023 0.33827,-6.2256 4.84285,-12.9789 11.31094,-7.9798 3.47071,2.6824 6.030502,-5.5391 1.46193,-6.2115 -3.43277,-0.5053 -7.12202,0.4261 -10.43761,2.2665 -4.07833,2.2637 -5.81628,7.5261 -6.43061,12.1905 -1.08028,8.2019 2.31811,25.4922 11.82305,32.1194 3.1017,2.1626 7.09013,2.4602 10.769365,3.3089 2.527334,0.583 7.657663,3.2365 3.84266,5.5728 -29.782425,18.2389 -54.356575,45.3478 -71.495895,73.9861 -9.20171,15.3753 -20.62069,33.4116 -29.46487,54.11302 -1.5856,-6.13577 -1.32111,-12.94995 1.4118,-18.49032 12.15409,-24.6399 25.12244,-50.4402 28.94552,-74.7505 3.12014,-19.8404 -7.87504,-38.0102 -12.56357,-56.6337 9.34996,13.3059 27.28952,14.121 32.47347,12.7 5.49127,-1.5053 13.11293,-8.4321 15.06368,-14.1243 2.00793,-5.859 3.54975,-15.3704 -1.92598,-15.1386 -4.10547,0.1738 -1.9932,4.8919 -1.48673,7.3929 1.28227,6.332 -4.0145,12.7119 -8.6372,14.9272 -4.78959,2.2952 -12.32807,0.2632 -14.00793,-5.5795 -2.01033,-6.9922 1.47013,-13.9196 2.99568,-20.6819 1.81961,-8.0658 -0.19152,-17.9411 -7.2409,-22.6948 -2.78811,-1.8801 -5.74943,-3.5061 -8.71885,-5.0989 -3.65869,-1.9626 -5.8193,-4.7635 -9.2723,-3.1569 -4.29723,1.9995 0.27796,5.5297 2.76262,7.0518 5.12034,3.1368 7.76563,7.8287 6.01979,12.8597 -2.36457,6.8139 -9.87197,12.2363 -16.88373,10.2112 -12.15748,-3.5113 -10.72064,-10.4285 -11.43754,-20.2344 -0.25991,-3.5552 -2.94623,-13.136 -9.5896,-7.4735 -2.65299,9.3286 -5.4128,20.5061 -11.60084,29.1502 -5.29637,7.3985 -20.97468,8.69 -20.95944,4.2039 0.0116,-3.4041 -2.33119,-7.0008 -3.7698,-9.9637 -3.06812,-6.3189 0.0448,-14.564 6.42028,-17.4088 2.87649,-1.2835 6.27552,-1.4662 8.88421,0.262 2.75442,1.8248 8.35573,-1.6646 5.66891,-4.1134 -6.73248,-6.1364 -19.80297,-4.4046 -27.02833,-1.0811 -6.96061,3.2018 -11.64149,8.5859 -13.26895,16.3178 -1.41055,6.7015 1.93375,12.9016 3.21169,19.2697 1.05885,5.2763 -2.11397,9.3807 -5.49889,12.9723 -3.85916,4.0947 -12.35579,3.9167 -14.83372,1.0413 -2.25745,-2.6195 -4.70729,-4.626 -4.27933,-10.2862 0.15735,-2.0811 -0.78417,-6.4335 -3.47059,-5.3129 -3.33648,1.3918 -3.18222,5.9767 -2.76934,8.8594 0.64085,4.4744 3.97946,11.1341 11.13162,13.3863 9.98849,3.1454 20.08225,1.621 32.2523,-4.5573 3.5339,-1.794 3.86311,3.2646 2.97036,6.1479 -12.7659,41.2299 1.32493,59.5242 14.56707,88.7672 -38.18403,-33.703 -44.97873,-51.2618 -68.94618,-65.3355 -13.28289,-7.7998 -10.56889,-10.2651 -3.2644,-17.4584 9.84407,-9.6942 7.69444,-35.4147 -5.009,-43.4573 -5.98804,-3.7911 -14.56401,-5.9374 -20.61373,-1.6113 -2.75162,1.9677 -7.0783,4.0913 -6.83679,7.7603 0.2512,3.8162 3.61943,-1.0011 5.17488,-2.081 1.97147,-1.3688 4.54646,-2.0083 7.02541,-1.9307 4.70155,0.1473 9.73966,2.5255 11.57087,7.1629 1.72114,4.3586 0.044,9.504 -3.31608,12.3181 -4.84304,4.0562 -16.9092,1.5129 -22.91643,-0.3524 -4.82754,-1.499 -8.44958,-4e-4 -12.98628,4.887 -3.80239,4.094 2.13519,5.1258 5.44204,6.7531 10.8268,5.3279 8.69907,13.601 3.23753,20.4763 -5.3483,6.7328 -23.38609,6.0543 -32.04817,-0.5504 -29.36844,-22.3929 -38.58901,-68.6495 -40.56445,-88.2458 -0.60133,-5.9652 0.26737,-7.2593 4.22506,-5.5702 4.78758,2.0433 6.10892,7.7082 12.28401,11.1017 13.10991,7.2046 28.55868,3.8482 36.99361,-5.3501 3.82497,-4.1711 4.67921,-10.9419 4.86688,-14.1919 0.41175,-7.1309 -1.14727,-12.1858 -5.78362,-12.7057 -6.59888,-0.74 -9.38007,5.748 -5.56349,7.3706 2.94082,1.2503 5.43259,-0.2806 5.15369,-3.9175 1.34331,0.2932 2.28168,0.6546 2.62775,1.9461 1.68791,6.2994 -0.54605,11.9336 -7.26726,13.4483 -2.99067,0.674 -7.86656,-0.3769 -7.90598,-3.159 -0.0329,-2.3248 -0.93173,-5.43 -3.22254,-7.2368 -2.9206,-2.3035 -8.48648,-3.1229 -11.52746,-0.1519 -3.64106,3.5573 -6.62515,9.005 -3.55844,13.3894 2.91255,4.1637 -2.4731,3.2978 -4.77852,0.7704 -4.88116,-5.3509 -12.24925,-7.6398 -13.13615,-10.4308 -2.46384,-7.7535 2.89341,-15.4817 7.34271,-19.8965 z m 197.73883,67.9695 c 0.63892,0.03 1.37097,0.6154 2.24121,2.0242 13.89054,22.4863 21.90001,51.9941 22.83426,77.2852 0.82388,22.303 -1.98279,45.3532 -21.33358,88.01113 -16.09724,-30.58183 -30.83494,-59.57263 -31.15727,-84.27703 -0.41613,-31.8929 15.20048,-55.6448 24.07708,-78.019 0.97831,-2.4659 1.93269,-5.0902 3.3383,-5.0245 z m 162.57664,60.1694 c -33.238675,34.8211 -80.07449,51.9162 -117.18613,77.6764 -5.44051,3.7764 -4.5496,-1.7961 -2.32182,-4.3372 37.19872,-42.4303 62.11582,-70.7983 119.50795,-73.3392 z m -294.99956,6.78 c 13.94452,0.2115 21.44135,2.849 31.31333,7.6031 12.33955,5.9426 23.85345,13.0965 44.68151,35.6015 7.49204,8.0952 5.98101,9.6044 -3.02721,5.6482 -19.96336,-8.7675 -36.45027,-16.5087 -53.41224,-23.8786 -11.10382,-4.8246 -18.07931,-9.2607 -30.35939,-19.5513 -5.47596,-4.5888 0.77011,-5.5751 10.804,-5.4229 z m 129.44222,15.1438 c -3.90184,0.1346 -7.88697,2.0305 -9.07076,5.8053 -1.90229,6.0658 1.80054,13.0382 7.26932,15.5939 2.88645,1.3489 6.66947,0.6355 9.571,-0.9555 4.00156,-2.1943 4.05321,-7.2935 3.39514,-11.2815 -0.65569,-3.9737 -3.29946,-7.6976 -7.36183,-8.7039 -1.21567,-0.3012 -2.50221,-0.5032 -3.80287,-0.4583 z m 2.98014,118.64292 c 0.87613,-1.39085 3.11666,-0.0955 2.58852,3.12688 -0.39633,2.41816 -1.34785,4.66639 -1.55701,7.07141 -0.21114,2.42785 2.25798,6.08373 4.62917,4.24625 2.79962,-2.16948 2.08954,-6.19745 2.03977,-10.58021 -0.0327,-2.87879 5.36927,-1.57448 7.42238,4.10788 1.31751,3.64645 2.21428,8.90047 1.81815,12.73165 -0.36845,3.56354 -4.56163,10.07993 -9.46646,10.92671 -8.36988,1.445 -12.03716,-1.95579 -15.25463,-6.0773 -3.86009,-4.94468 -1.43272,-12.44292 1.12974,-14.87861 3.1924,-3.03445 4.74684,-7.65283 6.65037,-10.67466 z m -14.07965,23.84922 c 6.08483,14.42193 21.12955,13.92546 26.64246,10.89231 5.74457,-3.16059 10.09892,-9.13471 11.40063,1.67996 0.68323,5.67633 -2.64412,12.03375 -5.51588,15.46472 -4.89317,5.84598 -12.73991,5.2569 -18.88935,4.22814 -8.9419,-1.49592 -17.09633,-9.39006 -19.34737,-15.92558 -1.77948,-5.16641 -1.62447,-10.5016 -0.38269,-15.46321 0.77935,-3.11395 4.69804,-4.18069 6.0922,-0.87634 z"
         sodipodi:nodetypes="sccssssssssssssssssssssssssssssssssssssssssssssssssssssccccsssssscssssssssssssssssssssssssssscsscsssssssssssssscssssscssssssssssscsssssssssscsssssssssscsssssssscscscssscsscssssssssssssssssssssssssssssssssss" /></g></g></svg>
